<svg xmlns="http://www.w3.org/2000/svg" viewBox="0 0 510.96 510.96" width="512" height="512"><path d="M392.979 503.46H117.982c10.973-33.722 37.299-55.792 66.55-55.792H326.43c29.25 0 55.576 22.07 66.549 55.792z" fill="#ffdf65"/><path d="M326.429 447.668h-36c29.251 0 55.576 22.07 66.55 55.792h36c-10.973-33.722-37.299-55.792-66.55-55.792z" fill="#ffcd2c"/><path d="M255.481 333.358c-8.194 0-16.22-.71-24.029-2.057-2.938 106.301-29.421 116.367-29.421 116.367H308.93s-26.483-10.066-29.421-116.367a141.243 141.243 0 0 1-24.028 2.057z" fill="#ffbb64"/><path d="M279.509 331.3a141.141 141.141 0 0 1-24.028 2.057c-.972 0-1.941-.012-2.908-.031 3.218 104.387 29.357 114.341 29.357 114.341h27c0 .001-26.484-10.066-29.421-116.367z" fill="#ffae47"/><path d="M118.391 223.079c-15.726-5.611-29.224-14.522-40.338-26.724-18.719-20.551-27.722-47.027-31.979-65.619-1.103-4.817.041-9.809 3.139-13.696a16.37 16.37 0 0 1 12.866-6.202h53.078V78.07H62.078c-15.069 0-29.098 6.76-38.492 18.548-9.35 11.734-12.796 26.835-9.454 41.431 7.361 32.15 21.088 59.941 39.696 80.371 20.641 22.661 46.996 36.741 78.589 42.081a139.368 139.368 0 0 1-14.026-37.422zM487.374 96.618C477.98 84.83 463.951 78.07 448.882 78.07h-53.078v32.768h53.078a16.37 16.37 0 0 1 12.866 6.202c3.098 3.887 4.241 8.879 3.139 13.696-4.257 18.592-13.261 45.068-31.979 65.619-11.114 12.202-24.612 21.113-40.338 26.724a139.4 139.4 0 0 1-14.026 37.423c31.593-5.341 57.948-19.42 78.589-42.081 18.608-20.43 32.335-48.221 39.696-80.371 3.341-14.597-.104-29.698-9.455-41.432zm-79.436-45.745H103.023c-11.977 0-21.686-9.709-21.686-21.687 0-11.977 9.709-21.687 21.686-21.687h304.915c11.977 0 21.687 9.709 21.687 21.687-.001 11.978-9.71 21.687-21.687 21.687z" fill="#ffd039"/><path d="M407.938 7.5h-27c11.977 0 21.687 9.709 21.687 21.687 0 11.977-9.709 21.686-21.687 21.686h27c11.977 0 21.687-9.709 21.687-21.686-.001-11.977-9.71-21.687-21.687-21.687z" fill="#f4b70c"/><path d="M255.481 333.358c-77.499 0-140.325-62.825-140.325-140.324V50.873h280.649v142.16c0 77.5-62.826 140.325-140.324 140.325z" fill="#ffdf65"/><path d="M118.391 223.079c-10.964-3.912-20.841-9.433-29.586-16.55a139.416 139.416 0 0 0 12.103 45.015c9.839 4.066 20.34 7.069 31.51 8.958a139.356 139.356 0 0 1-14.027-37.423zM88.156 78.07h27v32.768h-27zm307.649 0h27v32.768h-27zm26.351 128.459c-8.745 7.117-18.622 12.638-29.586 16.55a139.393 139.393 0 0 1-14.026 37.422c11.17-1.888 21.671-4.892 31.51-8.958a139.427 139.427 0 0 0 12.102-45.014z" fill="#f4b70c"/><path d="M368.805 50.873v142.16c0 72.944-55.66 132.881-126.824 139.675 4.444.424 8.945.649 13.5.649 77.499 0 140.324-62.825 140.324-140.324V50.873h-27z" fill="#ffcd2c"/><path d="M263.592 120.755l12.355 25.035a9.044 9.044 0 0 0 6.811 4.948l27.628 4.015c7.419 1.078 10.382 10.195 5.013 15.429l-19.991 19.487a9.042 9.042 0 0 0-2.601 8.006l4.719 27.516c1.267 7.389-6.488 13.024-13.124 9.535l-24.711-12.991a9.047 9.047 0 0 0-8.418 0l-24.711 12.991c-6.636 3.489-14.392-2.146-13.124-9.535l4.719-27.516a9.048 9.048 0 0 0-2.601-8.006l-19.992-19.487c-5.369-5.233-2.406-14.351 5.013-15.429l27.628-4.015a9.048 9.048 0 0 0 6.811-4.948l12.355-25.035c3.316-6.723 12.903-6.723 16.221 0z" fill="#ffa035"/><path d="M315.398 170.181c5.369-5.233 2.406-14.351-5.013-15.428L297 152.808l-28.593 27.861a9.042 9.042 0 0 0-2.601 8.006l6.327 39.601 12.268 6.45c6.636 3.489 14.392-2.146 13.124-9.535l-4.719-27.516a9.048 9.048 0 0 1 2.601-8.006l19.991-19.488z" fill="#f78819"/><path d="M493.24 91.944c-10.824-13.583-26.992-21.374-44.357-21.374h-45.577V58.374h4.633c16.093 0 29.187-13.093 29.187-29.187C437.124 13.093 424.031 0 407.938 0H103.023C86.929 0 73.836 13.093 73.836 29.187c0 16.093 13.093 29.187 29.186 29.187h4.633V70.57H62.078c-17.365 0-33.533 7.791-44.357 21.374C6.939 105.475 2.967 122.89 6.822 139.723c7.648 33.405 21.985 62.364 41.462 83.747 20.961 23.011 47.666 37.707 79.39 43.768 20.513 35.194 55.141 61.189 96.071 70.178-3.026 79.773-19.826 99.177-23.943 102.751h-15.27c-32.708 0-61.629 23.933-73.682 60.972-1.604 4.93 2.252 9.821 7.333 9.821H293.93a7.5 7.5 0 0 0 7.496-7.731c-.123-4.105-3.704-7.269-7.811-7.269H128.921c11.407-25.089 32.415-40.792 55.61-40.792h141.898c23.195 0 44.203 15.703 55.609 40.792h-57.315a7.5 7.5 0 0 0 0 15h68.255c5.158 0 8.656-5.161 7.076-9.992-12.085-36.941-40.969-60.8-73.625-60.8h-15.27c-4.117-3.574-20.917-22.978-23.943-102.751 40.93-8.99 75.558-34.984 96.071-70.178 31.724-6.061 58.429-20.757 79.389-43.768a7.5 7.5 0 0 0-11.089-10.1c-16.148 17.728-36.168 29.939-59.636 36.46a146.7 146.7 0 0 0 6.999-21.153c15.262-6.08 28.539-15.236 39.502-27.271 19.814-21.754 29.288-49.527 33.745-68.996 1.616-7.055-.055-14.361-4.584-20.044-4.572-5.737-11.399-9.027-18.731-9.027h-45.577V85.57h45.577c12.772 0 24.664 5.73 32.626 15.722 7.919 9.938 10.838 22.726 8.008 35.084-4.078 17.81-10.157 34.218-18.069 48.77-1.827 3.359-.764 7.678 2.409 9.809 3.621 2.431 8.689 1.181 10.768-2.644 8.565-15.752 15.131-33.445 19.513-52.587 3.856-16.835-.116-34.25-10.897-47.78zM108.713 210.679a90.649 90.649 0 0 1-25.115-19.374c-17.622-19.347-26.157-44.527-30.214-62.244-.59-2.578.027-5.256 1.693-7.347a8.905 8.905 0 0 1 7-3.376h45.578v74.696a148.98 148.98 0 0 0 1.058 17.645zm-49.34 2.691c-17.741-19.478-30.857-46.102-37.93-76.995-2.83-12.357.089-25.145 8.008-35.082 7.962-9.992 19.854-15.722 32.626-15.722h45.578v17.768H62.078c-7.332 0-14.159 3.291-18.731 9.028-4.529 5.683-6.2 12.989-4.584 20.043 4.458 19.469 13.931 47.242 33.746 68.996 10.963 12.036 24.24 21.191 39.502 27.271a146.63 146.63 0 0 0 6.999 21.154c-23.469-6.522-43.489-18.733-59.637-36.461zm232.955 226.798h-73.696c8.404-14.579 17.692-43.415 20.026-100.273 5.523.629 11.134.963 16.822.963 5.688 0 11.299-.334 16.822-.963 2.335 56.857 11.622 85.694 20.026 100.273zm-36.848-114.31c-73.24 0-132.824-59.584-132.824-132.824V58.374h37.051a7.5 7.5 0 0 0 0-15h-56.685c-7.822 0-14.186-6.364-14.186-14.187C88.836 21.364 95.2 15 103.023 15h304.915c7.822 0 14.187 6.364 14.187 14.187 0 7.822-6.364 14.187-14.187 14.187h-218.23a7.5 7.5 0 0 0 0 15h198.598v134.66c-.001 73.239-59.586 132.824-132.826 132.824zm193.402-207.52a8.907 8.907 0 0 1 7.001 3.376c1.666 2.091 2.284 4.769 1.693 7.348-4.057 17.716-12.591 42.896-30.213 62.243a90.678 90.678 0 0 1-25.115 19.374 148.557 148.557 0 0 0 1.057-17.645v-74.696h45.577z"/><path d="M311.464 147.331l-27.627-4.015a1.543 1.543 0 0 1-1.164-.846l-12.355-25.034c-2.808-5.689-8.492-9.223-14.836-9.224-6.343 0-12.029 3.534-14.837 9.223L228.29 142.47c-.225.456-.66.772-1.164.845l-27.627 4.015c-6.278.912-11.396 5.227-13.356 11.26-1.961 6.034-.356 12.533 4.187 16.961l19.991 19.487c.365.355.531.867.445 1.368l-4.72 27.516c-1.072 6.253 1.45 12.454 6.583 16.183s11.809 4.211 17.424 1.259l24.71-12.991c.45-.237.988-.237 1.438 0l24.71 12.991c5.545 2.914 12.358 2.422 17.425-1.26 5.133-3.729 7.655-9.93 6.582-16.183l-4.719-27.516a1.546 1.546 0 0 1 .444-1.368l19.992-19.487c4.543-4.429 6.147-10.928 4.186-16.961-1.961-6.031-7.08-10.346-13.357-11.258zm-1.301 17.48l-19.991 19.487a16.543 16.543 0 0 0-4.758 14.645l4.719 27.516c.214 1.244-1.116 2.224-2.242 1.629l-24.711-12.991c-4.778-2.512-10.62-2.512-15.398 0l-24.711 12.991c-1.125.592-2.456-.383-2.242-1.629l4.72-27.517a16.544 16.544 0 0 0-4.759-14.644l-19.991-19.487c-.911-.888-.395-2.454.856-2.636l27.628-4.015a16.537 16.537 0 0 0 12.457-9.051l12.355-25.035c.562-1.139 2.208-1.141 2.771 0l12.355 25.034a16.54 16.54 0 0 0 12.458 9.051l27.628 4.015c1.25.183 1.768 1.748.856 2.637z"/></svg>