<svg xmlns="http://www.w3.org/2000/svg" width="512" height="512"><path d="M181.686 7.5h-78.652c-10.413 0-18.864 8.451-18.864 18.864v168.29a40.977 40.977 0 0 0 12.001 28.972l55.666 55.676h29.85L256 126.819 181.686 7.5zm227.279 0h-78.652L256 126.819l74.313 152.482h29.85l55.666-55.676a40.977 40.977 0 0 0 12.001-28.972V26.364c0-10.413-8.451-18.864-18.865-18.864z" fill="#4695fd"/><path d="M112.974 240.432l38.863 38.87h29.85l52.235-107.181c-48.924 5.947-91.919 31.389-120.948 68.311zm165.104-68.311l52.235 107.181h29.85l38.863-38.87c-29.029-36.922-72.025-62.364-120.948-68.311z" fill="#0d84fd"/><path fill="#ff89ca" d="M181.686 7.5h148.627v271.802H181.686z"/><path d="M330.313 186.666c-22.7-10.204-47.855-15.888-74.313-15.888s-51.613 5.684-74.313 15.888v92.636h148.627v-92.636z" fill="#fa4aad"/><circle cx="256" cy="352.639" r="151.861" fill="#a4bfd6"/><circle cx="256" cy="352.639" r="109.458" fill="#d3e9f4"/><path d="M256.466 280.576c21.618 0 43.424 13.605 43.424 38.579 0 40.442-57.588 53.675-57.588 70.634v1.678h48.829c4.66 0 8.759 5.777 8.759 12.486 0 6.709-4.099 12.86-8.759 12.86h-66.347c-5.218 0-12.674-3.541-12.674-8.946V389.79c0-29.26 58.707-46.033 58.707-69.703 0-5.963-3.728-13.232-14.165-13.232-7.455 0-13.978 3.727-13.978 13.977 0 5.405-5.777 10.624-15.282 10.624-7.455 0-13.046-3.355-13.046-15.096 0-22.738 20.874-35.784 42.12-35.784z" fill="#a4bfd6"/><path d="M186.948 277.631a7.5 7.5 0 0 0-10.162-11.034c-23.987 22.094-37.745 53.455-37.745 86.042 0 64.491 52.467 116.958 116.958 116.958s116.958-52.467 116.958-116.958-52.467-116.958-116.958-116.958c-19.452 0-38.715 4.875-55.708 14.097a7.5 7.5 0 0 0 7.154 13.184c14.804-8.034 31.594-12.28 48.554-12.28 56.22 0 101.958 45.738 101.958 101.958s-45.738 101.958-101.958 101.958S154.041 408.86 154.041 352.64c.001-28.408 11.995-55.747 32.907-75.009z"/><path d="M239.355 345.084c-16.286 11.953-34.745 25.502-34.745 44.705v18.078c0 5.056 2.889 9.749 7.926 12.874 3.606 2.237 8.185 3.573 12.247 3.573h66.347c8.813 0 16.26-9.324 16.26-20.36 0-11.021-7.294-19.986-16.26-19.986h-36.143c3.535-2.858 8.124-5.999 11.247-8.137 17.369-11.89 41.156-28.173 41.156-56.674 0-29.93-26.237-46.079-50.924-46.079-12.583 0-24.523 3.884-33.623 10.938-10.316 7.997-15.998 19.484-15.998 32.346 0 14.36 7.489 22.596 20.546 22.596 14.797 0 22.782-9.338 22.782-18.124 0-5.418 2.375-6.478 6.478-6.478 4.422 0 6.665 1.929 6.665 5.732.001 7.408-12.729 16.752-23.961 24.996zm17.298-45.73c-13.047 0-21.478 8.431-21.478 21.478 0 .551-2.027 3.124-7.782 3.124-1.395 0-3.228-.169-4.042-.975-.941-.933-1.504-3.408-1.504-6.621 0-18.371 17.837-28.283 34.62-28.283 17.852 0 35.924 10.676 35.924 31.079 0 20.592-18.397 33.186-34.629 44.297-12.32 8.433-22.959 15.717-22.959 26.337v1.678a7.5 7.5 0 0 0 7.5 7.5h48.367c.618.55 1.721 2.38 1.721 4.986 0 2.698-1.177 4.719-1.838 5.36h-65.769c-1.949 0-4.4-1.133-5.173-1.942V389.79c0-11.606 14.55-22.285 28.621-32.613 15.472-11.356 30.086-22.083 30.086-37.089-.001-9.986-6.78-20.734-21.665-20.734z"/><path d="M408.966 0H103.034C88.497 0 76.67 11.827 76.67 26.364v168.29c0 12.947 5.042 25.119 14.197 34.274l33.697 33.703c-17.605 25.628-27.926 56.633-27.926 90.007C96.639 440.511 168.128 512 256 512c34.693 0 67.675-10.956 95.379-31.683a7.5 7.5 0 0 0-8.987-12.011C317.303 487.078 287.429 497 256 497c-79.601 0-144.361-64.76-144.361-144.361 0-60.926 37.938-113.157 91.432-134.312 16.64-6.58 34.889-10.049 52.929-10.049 17.926 0 36.113 3.45 52.935 10.051 53.49 21.156 91.426 73.386 91.426 134.31 0 35.655-13.112 69.894-36.92 96.408a7.5 7.5 0 0 0 11.161 10.022c26.284-29.272 40.759-67.069 40.759-106.43 0-33.374-10.32-64.379-27.926-90.007l33.697-33.702c9.155-9.155 14.198-21.328 14.198-34.275V26.364C435.33 11.827 423.503 0 408.966 0zm-86.153 207.938c-20.869-9.632-43.832-14.66-66.813-14.66-22.97 0-45.956 5.032-66.813 14.66V15h133.626v192.938zM91.67 194.654V26.364C91.67 20.098 96.768 15 103.034 15h71.152v200.865c-15.442 9.242-29.035 20.862-40.531 34.645l-32.181-32.187c-6.23-6.231-9.804-14.858-9.804-23.669zm328.66 0c0 8.941-3.482 17.347-9.805 23.669l-32.181 32.187c-11.497-13.782-25.089-25.402-40.531-34.645V15h71.152c6.266 0 11.364 5.098 11.364 11.364v168.29z"/></svg>