<svg height="512pt" viewBox="-87 0 512 512" width="512pt" xmlns="http://www.w3.org/2000/svg"><path d="M290.3 150.29l-120.859 57.78-120.859-57.785a24.645 24.645 0 0 1-14.02-22.238V7.5h269.754v120.55a24.66 24.66 0 0 1-14.015 22.24zm0 0" fill="#fc5b8c"/><path d="M304.316 369.621c0 74.492-60.386 134.879-134.875 134.879-74.492 0-134.879-60.387-134.879-134.879 0-74.488 60.387-134.875 134.88-134.875 74.488 0 134.874 60.387 134.874 134.875zm0 0" fill="#ff8533"/><path d="M267.637 369.621c0 54.234-43.965 98.2-98.196 98.2-54.234 0-98.199-43.966-98.199-98.2 0-54.23 43.965-98.195 98.2-98.195 54.23 0 98.195 43.965 98.195 98.195zm0 0" fill="#fcdf6c"/><path d="M169.441 271.426a98.24 98.24 0 0 0-26.18 3.535c41.524 11.457 72.02 49.496 72.02 94.664 0 45.164-30.496 83.203-72.02 94.664a98.263 98.263 0 0 0 26.18 3.535c54.23 0 98.196-43.965 98.196-98.199s-43.965-98.2-98.196-98.2zm0 0" fill="#f4b425"/><path d="M114.938 182.012l54.503 26.058 54.504-26.058V7.5H114.938zm0 0" fill="#e4eaf7"/><path d="M223.945 7.5v174.512l66.356-31.723a24.657 24.657 0 0 0 14.015-22.238V7.5zm0 0" fill="#6bd"/><path d="M251.957 7.5v95.164c0 9.492-5.45 18.145-14.016 22.238l-13.996 6.692v50.418l66.356-31.723a24.657 24.657 0 0 0 14.015-22.238V7.5zm0 0" fill="#52a7c9"/><path d="M318.234 33.79H20.644C13.388 33.79 7.5 27.905 7.5 20.644 7.5 13.387 13.383 7.5 20.645 7.5h297.59c7.261 0 13.148 5.883 13.148 13.145-.004 7.261-5.887 13.144-13.149 13.144zm0 0" fill="#ff8533"/><path d="M117.082 182.684l-2.144-1.024v.352l54.503 26.058 54.504-26.058v-50.418zm0 0" fill="#c3c8d0"/><path d="M169.238 403.84c-10.781 0-15.707-5.727-15.707-11.582 0-3.598-1.465-5.328-7.324-5.328-4.793 0-6.523 1.332-6.523 5.992 0 10.52 8.656 23.433 29.421 23.433 16.778 0 30.356-7.855 30.356-29.023v-2.531c0-11.317-5.727-17.574-13.578-20.637 6.39-3.059 10.648-11.18 10.648-22.23 0-17.575-11.183-23.7-26.758-23.7-21.968 0-27.96 13.848-27.96 22.5 0 5.059 1.066 6.524 7.324 6.524 5.058 0 6.656-2.262 6.656-5.727 0-5.457 3.062-10.914 13.848-10.914 8.652 0 13.312 3.992 13.312 13.711 0 12.117-5.726 14.645-13.848 14.645-3.328 0-4.527 2.797-4.527 5.726 0 2.797 1.2 5.59 4.527 5.59 9.72 0 16.243 3.863 16.243 14.512v2.531c0 11.582-5.192 16.508-16.11 16.508zm0 0"/><path d="M100.266 289.703c-18.993 16.45-31.532 39.121-35.309 63.832a7.501 7.501 0 0 0 6.281 8.547c.383.059.766.09 1.145.09 3.64 0 6.836-2.66 7.402-6.371 3.238-21.192 14-40.64 30.3-54.762a90.659 90.659 0 0 1 59.356-22.113 90.67 90.67 0 0 1 59.297 22.066c16.29 14.086 27.063 33.5 30.332 54.656a7.495 7.495 0 0 0 8.559 6.266 7.496 7.496 0 0 0 6.266-8.555c-3.813-24.671-16.364-47.3-35.344-63.714a105.669 105.669 0 0 0-69.11-25.72 105.656 105.656 0 0 0-69.175 25.778zm167.374 87.461a7.501 7.501 0 0 0-8.546 6.281c-3.239 21.192-14 40.64-30.301 54.762a90.659 90.659 0 0 1-59.356 22.113 90.653 90.653 0 0 1-59.335-22.101c-16.297-14.11-27.063-33.547-30.313-54.735-.625-4.093-4.457-6.898-8.547-6.273a7.496 7.496 0 0 0-6.277 8.547c3.785 24.703 16.328 47.36 35.316 63.8a105.659 105.659 0 0 0 69.156 25.762c25.418 0 49.985-9.152 69.176-25.773 18.992-16.453 31.532-39.121 35.309-63.836a7.501 7.501 0 0 0-6.281-8.547zm0 0"/><path d="M318.234 0H20.644C9.263 0 0 9.262 0 20.645 0 32.03 9.262 41.293 20.645 41.293h6.417v86.758c0 12.308 7.18 23.695 18.286 29.004l93.718 44.808c-8.972 3.149-15.425 11.707-15.425 21.742v11.2c-56.11 19.11-96.579 72.328-96.579 134.82C27.062 448.129 90.934 512 169.442 512c78.503 0 142.374-63.871 142.374-142.375 0-62.492-40.468-115.71-96.574-134.82v-11.2c0-10.035-6.453-18.593-15.426-21.742l93.72-44.808c11.105-5.309 18.28-16.696 18.28-29.004V41.289h6.418c11.383 0 20.649-9.262 20.649-20.644C338.883 9.262 329.617 0 318.234 0zM42.063 128.047V41.289h65.374v18.875a7.5 7.5 0 1 0 15 0V41.29h94.008v135.996l-47.004 22.473-47.004-22.473V90.16a7.5 7.5 0 1 0-15 0v79.953l-55.62-26.593c-5.926-2.833-9.755-8.907-9.755-15.473zm254.753 241.578c0 70.234-57.14 127.375-127.375 127.375-70.238 0-127.378-57.14-127.378-127.375s57.14-127.379 127.378-127.379c70.235 0 127.375 57.14 127.375 127.379zm-96.574-139.023a142.457 142.457 0 0 0-30.8-3.356 142.43 142.43 0 0 0-30.801 3.356v-6.997c0-4.43 3.601-8.035 8.03-8.035h45.536c4.43 0 8.031 3.606 8.031 8.035v6.997zm96.574-102.555c0 6.566-3.828 12.64-9.753 15.473l-55.618 26.593V41.29h65.371zm21.418-101.758H20.644c-3.113 0-5.644-2.531-5.644-5.644S17.531 15 20.645 15h297.59c3.113 0 5.648 2.531 5.648 5.645s-2.535 5.644-5.649 5.644zm0 0"/></svg>