<svg height="512pt" viewBox="-11 0 512 512" width="512pt" xmlns="http://www.w3.org/2000/svg"><path d="M490 267c0 135.309-109.691 245-245 245S0 402.309 0 267 109.691 22 245 22s245 109.691 245 245zm0 0" fill="#69d173"/><path d="M129.637 428.469L111 460.75a72.885 72.885 0 0 1-5.246 7.84 244.572 244.572 0 0 0 27.625 16.562 73.848 73.848 0 0 1 4.379-8.957l18.637-32.277a295.99 295.99 0 0 1 45.02-59.258c-21.563-12.445-21.411-12.36-42.97-24.808a295.726 295.726 0 0 1-28.808 68.617zm0 0" fill="#a0391e"/><path d="M136.016 417.266c0-.168.023-.332.027-.504-5.207 10.039-7.996 14.304-25.043 43.988a72.885 72.885 0 0 1-5.246 7.84 244.623 244.623 0 0 0 27.629 16.562 73.25 73.25 0 0 1 4.375-8.957c17.406-29.992 19.562-34.277 25.566-43.672-11.855 7.305-27.308-1.187-27.308-15.257zm0 0" fill="#84260d"/><path d="M148.727 388.852l21.277 33.687a295.911 295.911 0 0 1 31.41-37.879c-21.559-12.45-21.41-12.36-42.969-24.808a296.12 296.12 0 0 1-9.718 29zm0 0" fill="#bc4c2e"/><path d="M111 460.75a72.292 72.292 0 0 1-5.25 7.836 245.978 245.978 0 0 0 17.484 11.059l12.614.101a73.957 73.957 0 0 1 1.91-3.55l18.297-31.692-35.512-.29zm0 0" fill="#a0391e"/><path d="M405.582 56.89l-7.195-49.48c-.805-5.52-6.543-8.848-11.735-6.8l-46.675 18.406a124.422 124.422 0 0 0-68.645 66.558L164.75 333.16l28.344 16.02 28.043 16.535L382.262 149.62a124.438 124.438 0 0 0 23.32-92.73zm0 0" fill="#ebeaec"/><path d="M213.758 313.387c-15.547-8.785-23.828-25.766-22.106-42.723l-26.902 62.492 28.344 16.02 28.047 16.535 40.668-54.543c-13.82 9.973-32.668 11.289-48.051 2.219zm0 0" fill="#dad9dd"/><path d="M394.172 1.176a8.609 8.609 0 0 0-7.52-.567L339.98 19.016a124.429 124.429 0 0 0-68.648 66.558L164.75 333.16l28.344 16.02.117.07zm0 0" fill="#dad9dd"/><path d="M193.125 349.195l.09.055 20.664-35.793c-.04-.023-.082-.043-.121-.07-15.547-8.785-23.828-25.766-22.102-42.723l-26.902 62.496 28.34 16.02zm0 0" fill="#ccccce"/><path d="M220.23 358.297c0 17.805-14.433 32.242-32.242 32.242-17.804 0-32.238-14.437-32.238-32.242 0-17.809 14.434-32.242 32.238-32.242 17.809 0 32.242 14.433 32.242 32.242zm0 0" fill="#ffcb37"/><path d="M160.066 342.176a32.064 32.064 0 0 1 11.809-11.801l-22.688-13.098c-7.71-4.453-17.57-1.808-22.023 5.903-4.45 7.71-1.809 17.57 5.902 22.02l22.688 13.097a32.08 32.08 0 0 1 4.312-16.121zm0 0" fill="#ff941f"/><path d="M242.914 371.39l-22.687-13.097a32.07 32.07 0 0 1-4.317 16.125 32.072 32.072 0 0 1-11.805 11.797l22.688 13.097c7.71 4.454 17.57 1.813 22.02-5.898 4.453-7.71 1.812-17.57-5.899-22.023zm0 0" fill="#fcac1f"/><path d="M223.414 378.96c.031-.054.063-.108.09-.16l.094-.16c3.703-6.492 11.05-9.617 17.937-8.046l-21.308-12.301a32.046 32.046 0 0 1-4.317 16.121 32.054 32.054 0 0 1-11.805 11.8l21.31 12.302c-4.806-5.176-5.774-13.106-2-19.555zm0 0" fill="#ff941f"/><path d="M189.965 368.969c-9.73 1.187-16.211-9.656-10.778-17.617-9.789 1.652-16.984-8.543-12.671-17.098-6.606 5.902-10.766 14.484-10.766 24.043 0 17.805 14.434 32.242 32.238 32.242a32.12 32.12 0 0 0 10.16-1.644c-10.05-.532-14.953-12.528-8.183-19.926zm0 0" fill="#fcac1f"/><path d="M187.988 370.234c-6.613 0-11.941-5.402-11.941-11.941 0-7.574 6.992-13.168 14.27-11.7 5.644 1.145 9.613 6.02 9.613 11.7 0 6.48-5.254 11.941-11.942 11.941zm0 0" fill="#5e73dd"/></svg>