<svg height="512pt" viewBox="-11 0 512 512" width="512pt" xmlns="http://www.w3.org/2000/svg"><path d="M490 267c0 135.309-109.691 245-245 245S0 402.309 0 267 109.691 22 245 22s245 109.691 245 245zm0 0" fill="#5e73dd"/><path d="M187.781 17.105L146.351.281c-2.343-.949-4.945.61-5.21 3.125l-4.614 43.742a49.249 49.249 0 0 0 6.328 29.786l168.38 291.644 68.593-39.601-167.93-290.868a49.266 49.266 0 0 0-24.117-21.004zm0 0" fill="#ebeaec"/><path d="M346.438 271.137c2.695 16.851-5 34.379-20.665 43.418-15.66 9.043-34.683 6.949-47.93-3.817l33.391 57.84 68.594-39.601zm0 0" fill="#dad9dd"/><path d="M144.219.09c-1.574.3-2.895 1.566-3.078 3.316l-4.614 43.742a49.249 49.249 0 0 0 6.328 29.786l168.383 291.644 34.297-19.8zm0 0" fill="#dad9dd"/><path d="M345.531 348.777l-19.758-34.222c-15.66 9.043-34.683 6.949-47.93-3.817l33.391 57.84zm0 0" fill="#bfbfbf"/><path d="M405.14 423.652a271.55 271.55 0 0 1-26.449-62.996c-19.793 11.43-19.656 11.348-39.449 22.774a271.666 271.666 0 0 1 41.332 54.406l13.582 23.523a246.088 246.088 0 0 0 21.832-18.918zm0 0" fill="#a0391e"/><path d="M357.836 404.473l36.55-1.453a271.676 271.676 0 0 1-15.695-42.364c-19.793 11.43-19.656 11.348-39.449 22.774a271.97 271.97 0 0 1 18.594 21.043zm0 0" fill="#bc4c2e"/><path d="M438.16 288.594l-67.383 38.902c-4.394 2.535-9.53 3.309-14.543 2.504-13.718-2.203-27.246 5.477-32.285 18.574-1.847 4.805-5.133 8.922-9.594 11.496l-67.257 38.832c-3.145 1.813-2.739 6.473.668 7.715l37.976 13.867c2.578.942 5.442-.312 6.48-2.851a67.824 67.824 0 0 1 28.883-33.094l.047-.031c4.653-2.684 10.438-2.781 15.028.004 19.996 12.117 45.476-2.551 44.972-25.977-.113-5.363 2.868-10.32 7.516-13.004l3.148-1.82c12.098-6.984 26.172-8.512 40.02-6.672 2.707.36 5.219-1.492 5.691-4.187l6.98-39.82c.63-3.575-3.202-6.255-6.347-4.438zm0 0" fill="#ffcb37"/><path d="M302.219 17.105L343.649.281c2.343-.949 4.945.61 5.21 3.125l4.614 43.742a49.249 49.249 0 0 1-6.328 29.786L178.762 368.578l-68.59-39.601 167.93-290.868a49.266 49.266 0 0 1 24.117-21.004zm0 0" fill="#dad9dd"/><path d="M345.781.09c1.574.3 2.895 1.566 3.078 3.316l4.614 43.742a49.249 49.249 0 0 1-6.328 29.786L178.762 368.578l-34.293-19.8zm0 0" fill="#ebeaec"/><path d="M212.156 310.738c-13.246 10.762-32.27 12.86-47.93 3.817-15.663-9.04-23.359-26.567-20.663-43.418l-33.391 57.84 68.59 39.601zm0 0" fill="#dad9dd"/><path d="M144.469 348.777l19.758-34.222c-15.665-9.04-23.36-26.567-20.665-43.418l-33.39 57.84zm0 0" fill="#bfbfbf"/><path d="M84.86 423.652l-10.848 18.79a246.644 246.644 0 0 0 21.832 18.917l13.582-23.523a271.666 271.666 0 0 1 41.332-54.406c-19.793-11.426-19.656-11.344-39.45-22.774a271.55 271.55 0 0 1-26.449 62.996zm0 0" fill="#a0391e"/><path d="M92.535 409.379c-5.465 10.922-9.074 16.562-18.531 33.055a245.873 245.873 0 0 0 21.851 18.933c12.23-21.066 15.09-26.648 21.758-36.805-11.394 5.31-24.492-2.66-25.078-15.183zm0 0" fill="#84260d"/><path d="M132.164 404.473l-36.55-1.453a271.676 271.676 0 0 0 15.695-42.364c19.793 11.43 19.656 11.348 39.449 22.774a271.97 271.97 0 0 0-18.594 21.043zm0 0" fill="#bc4c2e"/><path d="M74.012 442.441a246.644 246.644 0 0 0 21.832 18.918l5.234-9.066-16.527-28.102zm0 0" fill="#a0391e"/><path d="M242.902 398.902L175.52 360c-4.395-2.54-7.633-6.602-9.442-11.344-4.95-12.98-18.363-20.855-32.226-18.672-5.086.805-10.293.016-14.754-2.558L51.84 288.594c-3.145-1.817-6.977.863-6.348 4.437l6.98 39.82a5.106 5.106 0 0 0 5.708 4.188 67.841 67.841 0 0 1 43.101 8.465l.047.027c4.652 2.688 7.629 7.649 7.516 13.016-.5 23.375 24.949 38.11 44.98 25.96 4.586-2.78 10.371-2.679 15.02.005l3.152 1.82c12.094 6.98 20.453 18.41 25.785 31.316a5.103 5.103 0 0 0 6.473 2.836l37.976-13.863c3.41-1.246 3.813-5.902.672-7.719zm0 0" fill="#ffcb37"/><path d="M142.02 368.492c-9.133-1.988-12.079-13.496-5.122-19.629-5.582-4.847-6.535-12.953-2.496-18.949-.183.023-.367.043-.55.07-5.086.805-10.293.016-14.75-2.558L51.84 288.594c-3.145-1.817-6.973.863-6.348 4.437l6.98 39.824c.473 2.7 2.993 4.555 5.712 4.184a67.835 67.835 0 0 1 43.097 8.465l.051.027c4.648 2.688 7.625 7.649 7.512 13.016-.485 22.758 23.62 37.316 43.383 26.86a14.39 14.39 0 0 1-10.207-16.915zm0 0" fill="#fcac1f"/><path d="M138.441 370.184c6.086 0 10.961-4.973 10.961-10.961 0-6.942-6.406-12.11-13.109-10.754-5.117 1.039-8.816 5.508-8.816 10.754 0 6.047 4.91 10.96 10.964 10.96zm0 0" fill="#5e73dd"/><path d="M361.383 360.754c-6.29 6.918-17.727 3.71-19.563-5.379-6.988 2.41-14.48-.816-17.66-7.313-.066.172-.14.34-.207.512-1.851 4.805-5.137 8.922-9.594 11.496l-67.261 38.832c-3.145 1.813-2.739 6.473.672 7.715l37.976 13.867c2.574.942 5.442-.312 6.477-2.851a67.824 67.824 0 0 1 28.882-33.094l.047-.031c4.653-2.684 10.438-2.781 15.032.004 19.464 11.797 44.125-1.801 44.949-24.14a14.388 14.388 0 0 1-19.75.382zm0 0" fill="#fcac1f"/><path d="M351.559 370.184c-6.086 0-10.961-4.973-10.961-10.961 0-6.942 6.406-12.11 13.113-10.754 5.117 1.039 8.812 5.508 8.812 10.754 0 6.047-4.91 10.96-10.964 10.96zm0 0" fill="#5e73dd"/><path d="M397.465 409.379c-.582 12.504-13.668 20.5-25.078 15.183 6.664 10.153 9.453 15.61 21.758 36.801a245.83 245.83 0 0 0 21.851-18.93c-9.246-16.12-13.027-22.054-18.531-33.054zm0 0" fill="#84260d"/><path d="M405.45 424.191l-16.528 28.102 5.234 9.066a246.088 246.088 0 0 0 21.832-18.918zm0 0" fill="#a0391e"/></svg>