<svg xmlns="http://www.w3.org/2000/svg" viewBox="0 0 512.003 512.003" width="512" height="512"><path d="M324.634 444.414H187.366c-31.805 0-57.588 25.783-57.588 57.588h252.444c0-31.805-25.783-57.588-57.588-57.588zM236 76.038v368.376h40V76.038" fill="#72d8ff"/><circle cx="256.133" cy="43.02" r="33.018" fill="#72d8ff"/><path d="M502.003 269.759c0 37.555-30.445 68-68 68s-68-30.445-68-68h136z" fill="#72d8ff"/><path fill="#a54e31" d="M434.003 89.559v180.2"/><path d="M146 269.759c0 37.555-30.445 68-68 68s-68-30.445-68-68h136z" fill="#72d8ff"/><path fill="#a54e31" d="M78 89.559v180.2"/><path d="M511.351 266.233l.009-.004-62.894-166.67h33.82c16.385 0 29.715-13.33 29.715-29.715S498.67 40.13 482.285 40.13c-5.522 0-10 4.478-10 10s4.478 10 10 10c5.356 0 9.715 4.357 9.715 9.714s-4.358 9.715-9.715 9.715H286v-3.521c0-.658-.067-1.299-.189-1.921 8.21-7.839 13.34-18.876 13.34-31.096 0-23.721-19.298-43.019-43.019-43.019-23.72 0-43.018 19.298-43.018 43.019 0 12.11 5.038 23.059 13.118 30.885-.149.688-.233 1.4-.233 2.133v3.521H29.712c-5.355 0-9.712-4.356-9.712-9.712s4.356-9.713 9.712-9.713c5.522 0 10-4.478 10-10s-4.478-10-10-10C13.329 40.134 0 53.463 0 69.847 0 86.23 13.329 99.559 29.712 99.559h33.826L.644 266.229l.009.002A9.938 9.938 0 0 0 0 269.759c0 43.01 34.99 78 78 78s78-34.99 78-78a9.945 9.945 0 0 0-.652-3.526l.008-.004-62.894-166.67H226v34.074c0 5.522 4.478 10 10 10s10-4.478 10-10V84.821a42.965 42.965 0 0 0 10.133 1.217A42.97 42.97 0 0 0 266 84.883v239.531c0 5.522 4.478 10 10 10s10-4.478 10-10V99.559h133.541l-62.894 166.67.009.002a9.956 9.956 0 0 0-.652 3.528c0 43.01 34.99 78 78 78s78-34.99 78-78a9.968 9.968 0 0 0-.653-3.526zm-486.889-6.474L68 144.383v115.376H24.462zM88 144.383l43.538 115.376H88V144.383zM78 327.759c-28.571 0-52.384-20.769-57.138-48h114.275c-4.753 27.232-28.566 48-57.137 48zM233.115 43.02c0-12.692 10.325-23.019 23.018-23.019s23.019 10.326 23.019 23.019-10.326 23.018-23.019 23.018-23.018-10.326-23.018-23.018zm147.35 216.739l43.538-115.376v115.376h-43.538zm63.538-115.376l43.538 115.376h-43.538V144.383zm-10 183.376c-28.571 0-52.384-20.769-57.138-48H491.14c-4.753 27.232-28.566 48-57.137 48z"/><path d="M324.635 434.414H286v-30c0-5.522-4.478-10-10-10s-10 4.478-10 10v30h-20v-220.78c0-5.522-4.478-10-10-10s-10 4.478-10 10v220.78h-38.635c-37.268 0-67.587 30.319-67.587 67.588 0 5.522 4.478 10 10 10h252.443c5.522 0 10-4.478 10-10 .001-37.269-30.319-67.588-67.586-67.588zm-183.8 57.587c4.606-21.455 23.72-37.588 46.53-37.588h137.27c22.811 0 41.924 16.133 46.53 37.588h-230.33z"/><path d="M276 374.414c2.63 0 5.21-1.07 7.069-2.93 1.86-1.86 2.931-4.44 2.931-7.07s-1.07-5.21-2.931-7.07c-1.859-1.859-4.439-2.93-7.069-2.93s-5.21 1.07-7.07 2.93a10.076 10.076 0 0 0-2.93 7.07c0 2.64 1.069 5.21 2.93 7.07a10.08 10.08 0 0 0 7.07 2.93zm-40-190.781c2.63 0 5.21-1.07 7.069-2.93 1.86-1.86 2.931-4.44 2.931-7.07s-1.07-5.21-2.931-7.07c-1.859-1.859-4.439-2.93-7.069-2.93s-5.21 1.07-7.07 2.93c-1.86 1.86-2.93 4.44-2.93 7.07s1.069 5.21 2.93 7.07c1.86 1.86 4.44 2.93 7.07 2.93z"/></svg>