<svg class="ldi-nukc1k" width="200" height="200" xmlns="http://www.w3.org/2000/svg" xmlns:xlink="http://www.w3.org/1999/xlink" viewBox="0 0 100 100" preserveAspectRatio="xMidYMid" style="background:0 0"><svg version="1.1" id="圖層_1" xmlns="http://www.w3.org/2000/svg" x="0" y="0" viewBox="0 0 100 100" style="transform-origin:50px 50px 0" xml:space="preserve"><g transform="scale(.6)"><style>.st19{fill:none;stroke-linecap:round;stroke:#333;stroke-width:3.5;stroke-miterlimit:10}</style><g class="ld ld-fade" style="transform-origin:50px 50px 0;animation-duration:1s;animation-delay:-.966667s;animation-direction:normal"><path class="st19" d="M70.504 49.318c.315-1.444.48-2.944.48-4.483 0-12.033-10.129-21.701-22.326-20.942-10.465.651-18.974 9.18-19.603 19.646a20.91 20.91 0 0 0 5.415 15.402c2.591 2.849 4.631 6.116 5.983 9.639" stroke="#000"/></g><g class="ld ld-fade" style="transform-origin:50px 50px 0;animation-duration:1s;animation-delay:-.933333s;animation-direction:normal"><path class="st19" d="M69.078 53.583c.106-.231.209-.465.307-.701" stroke="#000"/></g><g class="ld ld-fade" style="transform-origin:50px 50px 0;animation-duration:1s;animation-delay:-.9s;animation-direction:normal"><path class="st19" d="M59.541 68.587c1.278-3.465 3.206-6.675 5.768-9.407a20.97 20.97 0 0 0 1.84-2.255" stroke="#000"/></g><g class="ld ld-fade" style="transform-origin:50px 50px 0;animation-duration:1s;animation-delay:-.866667s;animation-direction:normal"><path class="st19" stroke="#000" d="M38.822 72.994h22.356"/></g><g class="ld ld-fade" style="transform-origin:50px 50px 0;animation-duration:1s;animation-delay:-.833333s;animation-direction:normal"><path class="st19" stroke="#000" d="M50 77.902h11.178"/></g><g class="ld ld-fade" style="transform-origin:50px 50px 0;animation-duration:1s;animation-delay:-.8s;animation-direction:normal"><path class="st19" stroke="#000" d="M45.16 77.902h.614"/></g><g class="ld ld-fade" style="transform-origin:50px 50px 0;animation-duration:1s;animation-delay:-.766667s;animation-direction:normal"><path class="st19" stroke="#000" d="M38.822 77.902h2.317"/></g><g class="ld ld-fade" style="transform-origin:50px 50px 0;animation-duration:1s;animation-delay:-.733333s;animation-direction:normal"><path class="st19" stroke="#000" d="M38.822 82.809h22.356"/></g><g class="ld ld-fade" style="transform-origin:50px 50px 0;animation-duration:1s;animation-delay:-.7s;animation-direction:normal"><path class="st19" d="M57.106 87.035h0A2.965 2.965 0 0 1 54.141 90h-8.282a2.965 2.965 0 0 1-2.965-2.965h0" stroke="#000"/></g><g class="ld ld-fade" style="transform-origin:50px 50px 0;animation-duration:1s;animation-delay:-.666667s;animation-direction:normal"><path class="st19" d="M37.417 40.372c-.095.264-.181.531-.259.801" stroke="#000"/></g><g class="ld ld-fade" style="transform-origin:50px 50px 0;animation-duration:1s;animation-delay:-.633333s;animation-direction:normal"><path class="st19" d="M45.531 32.217a13.647 13.647 0 0 0-6.088 4.471" stroke="#000"/></g><g class="ld ld-fade" style="transform-origin:50px 50px 0;animation-duration:1s;animation-delay:-.6s;animation-direction:normal"><path class="st19" stroke="#000" d="M50 10v7.052"/></g><g class="ld ld-fade" style="transform-origin:50px 50px 0;animation-duration:1s;animation-delay:-.566667s;animation-direction:normal"><path class="st19" stroke="#000" d="M32.619 14.657l3.526 6.107"/></g><g class="ld ld-fade" style="transform-origin:50px 50px 0;animation-duration:1s;animation-delay:-.533333s;animation-direction:normal"><path class="st19" stroke="#000" d="M19.895 27.381l6.107 3.526"/></g><g class="ld ld-fade" style="transform-origin:50px 50px 0;animation-duration:1s;animation-delay:-.5s;animation-direction:normal"><path class="st19" stroke="#000" d="M15.238 44.762h7.052"/></g><g class="ld ld-fade" style="transform-origin:50px 50px 0;animation-duration:1s;animation-delay:-.466667s;animation-direction:normal"><path class="st19" stroke="#000" d="M19.895 62.142l6.107-3.525"/></g><g class="ld ld-fade" style="transform-origin:50px 50px 0;animation-duration:1s;animation-delay:-.433333s;animation-direction:normal"><path class="st19" stroke="#000" d="M80.104 62.142l-6.107-3.525"/></g><g class="ld ld-fade" style="transform-origin:50px 50px 0;animation-duration:1s;animation-delay:-.4s;animation-direction:normal"><path class="st19" stroke="#000" d="M84.761 44.762h-7.052"/></g><g class="ld ld-fade" style="transform-origin:50px 50px 0;animation-duration:1s;animation-delay:-.366667s;animation-direction:normal"><path class="st19" stroke="#000" d="M80.104 27.381l-6.107 3.526"/></g><g class="ld ld-fade" style="transform-origin:50px 50px 0;animation-duration:1s;animation-delay:-.333333s;animation-direction:normal"><path class="st19" stroke="#000" d="M67.38 14.657l-3.525 6.107"/></g></g><style>@keyframes ld-fade{0%{opacity:1}}@-webkit-keyframes ld-fade{0%{opacity:1}}.ld.ld-fade{-webkit-animation:ld-fade 1s infinite linear;animation:ld-fade 1s infinite linear}</style></svg></svg>