<svg xmlns="http://www.w3.org/2000/svg" viewBox="0 0 511.999 511.999"><path d="M377.862 307.744H93.928c-26.374 0-47.754 21.38-47.754 47.754s21.38 47.754 47.754 47.754h62.022l20.17-16.385 6.66 16.385h195.082v-95.508z" fill="#e5eaed"/><path d="M418.07 403.252c26.374 0 47.754-21.38 47.754-47.754s-21.38-47.754-47.754-47.754h-40.208v95.509h40.208v-.001z" fill="#93ca66"/><path d="M232.785 270.99zm-5.97-1.188c-.442-.098-.885-.195-1.326-.298.44.103.883.2 1.326.298zm2.988.631zm-6.1-1.364zm12.08 2.41c-.388-.059-.773-.123-1.16-.185.386.062.772.127 1.16.185zm3.289.453l-.524-.066.524.066zm-50.911-17.531zm9.013 4.918zm130.123-7.675c-.4.261-.798.524-1.201.781.403-.257.801-.52 1.201-.781zm-127.699 8.848zm2.565 1.175zm-18.537-10.106zm32.344-99.468c-10.247-10.246-16.585-24.4-16.585-40.035 0-31.267 25.347-56.614 56.614-56.614s56.614 25.347 56.614 56.614c0 15.635-6.338 29.79-16.585 40.035 24.38 13.924 40.825 40.153 40.825 70.239v22.455c30.54-24.076 50.148-61.402 50.148-103.309C387.002 68.865 328.137 10 255.524 10S124.047 68.865 124.047 141.478c0 42.338 20.017 79.996 51.098 104.043v-23.189c0-30.086 16.445-56.315 40.825-70.239zM204.804 262.81zm-19-9.853zm34.091 15.109c-.508-.143-1.014-.293-1.52-.442.505.148 1.01.299 1.52.442zm114.64-21.496c-.392.295-.788.585-1.183.876.395-.291.791-.581 1.183-.876zm-2.36 1.734zm4.675-3.515c-.367.289-.739.571-1.109.856.37-.285.742-.567 1.109-.856zm-127.644 19.765zm120.563-14.562zm-118.188 15.43c-.572-.203-1.144-.405-1.712-.616.569.211 1.14.413 1.712.616zm2.702.926zm2.782.886zm59.172 4.092c-.273.043-.545.091-.819.132.274-.041.546-.089.819-.132zm15.687-3.48l-.661.19c.221-.062.441-.126.661-.19zm3.548-1.078c-.371.118-.741.239-1.113.354.373-.115.742-.236 1.113-.354zm2.966-.984c-.408.141-.816.281-1.225.418.41-.136.817-.277 1.225-.418zm-12.772 3.695c-.393.092-.788.181-1.183.269.395-.089.79-.177 1.183-.269zm15.626-4.716zm-12.671 3.988c-.35.091-.703.176-1.054.264.352-.088.704-.173 1.054-.264zm36.02-15.418zm-41.977 16.811zm30.705-10.574c-.412.202-.823.405-1.237.603.414-.198.826-.401 1.237-.603zm7.861-4.19c-.396.229-.796.451-1.194.676.399-.224.799-.447 1.194-.676zm-14.38 7.178c-.337.143-.677.279-1.015.419.338-.14.678-.276 1.015-.419zm9.192-4.336zm2.616-1.395c-.412.226-.828.448-1.243.67.416-.222.831-.444 1.243-.67zm-8.113 4.087c-.363.167-.724.339-1.089.503.365-.164.726-.335 1.089-.503zm-61.305 11.888c-.388-.018-.776-.04-1.164-.062.388.022.776.044 1.164.062zm3.138.113c-.333-.008-.664-.021-.996-.031.332.01.664.023.996.031zm-6.286-.3c-.393-.028-.787-.056-1.179-.087.392.031.786.059 1.179.087zm33.484-1.863c-.376.07-.752.141-1.13.207.378-.066.754-.137 1.13-.207zm-36.705 1.594c-.353-.034-.707-.064-1.059-.101.352.037.706.068 1.059.101zm16.818.537c-.334.01-.668.024-1.003.032.335-.008.668-.022 1.003-.032zm12.696-1c-.253.032-.507.059-.76.09.253-.032.508-.058.76-.09zm31.707-8.194c-.397.158-.796.31-1.194.464.398-.154.798-.307 1.194-.464zm-37.904 8.834zm-3.178.215c-.39.022-.781.044-1.172.063.392-.018.782-.041 1.172-.063zm6.295-.5c-.368.038-.737.072-1.106.107.369-.036.738-.069 1.106-.107zM155.951 403.252l-26.233 21.311c-4.502 3.657-2.92 10.881 2.697 12.323l10.71 2.749c.687.177 1.101.876.925 1.564l-13.366 52.073 34.01 8.729 13.366-52.073a1.285 1.285 0 0 1 1.564-.925l10.71 2.749c5.618 1.442 10.483-4.127 8.299-9.5l-15.852-38.999-6.66-16.385-20.17 16.384z" fill="#4cc1eb"/><path d="M175.16 245.532a132.18 132.18 0 0 0 8.465 6.029l.167.11c.666.435 1.337.863 2.012 1.285l.337.211c.67.417 1.342.829 2.02 1.234l.216.128a131.106 131.106 0 0 0 8.796 4.79c.179.089.357.179.537.267a142.113 142.113 0 0 0 4.452 2.081c.236.105.473.207.71.311.642.281 1.284.561 1.932.832l.108.044c1.418.592 2.851 1.157 4.294 1.7.221.083.441.17.663.252.568.21 1.14.413 1.712.616.359.127.718.255 1.078.38a128.758 128.758 0 0 0 2.831.938c.524.167 1.048.333 1.575.494.435.133.872.261 1.309.39.506.149 1.011.299 1.52.442.536.151 1.076.293 1.614.437.729.195 1.461.384 2.196.566.594.148 1.188.296 1.785.436.441.103.884.199 1.326.298.545.122 1.091.242 1.639.357a154.475 154.475 0 0 0 4.332.831c.611.106 1.224.206 1.838.304.387.062.772.126 1.16.185a132.246 132.246 0 0 0 6.029.766c.352.037.706.067 1.059.101a124.71 124.71 0 0 0 5.205.394c.388.022.775.043 1.164.062.712.033 1.426.059 2.142.081.332.01.663.024.996.031a131.6 131.6 0 0 0 3.146.04c1.057 0 2.111-.015 3.162-.04.335-.008.668-.022 1.003-.032a127.47 127.47 0 0 0 2.15-.082c.391-.018.782-.041 1.172-.063a130.612 130.612 0 0 0 5.189-.394c.369-.035.738-.068 1.106-.107.776-.081 1.548-.171 2.32-.265.253-.031.507-.057.76-.09 1.015-.13 2.026-.272 3.033-.425.274-.042.546-.089.819-.132a133.78 133.78 0 0 0 2.209-.366c.377-.066.753-.138 1.13-.207.63-.117 1.259-.236 1.886-.361a136.629 136.629 0 0 0 3.021-.643c.395-.089.789-.177 1.183-.269.636-.149 1.269-.306 1.901-.464.351-.088.704-.173 1.054-.264.885-.229 1.765-.468 2.643-.715.221-.062.44-.126.661-.19.815-.234 1.627-.475 2.435-.724.372-.115.742-.236 1.113-.354.582-.185 1.163-.372 1.741-.565.41-.137.818-.278 1.225-.418a123.54 123.54 0 0 0 4.46-1.632c.398-.154.798-.306 1.194-.464.583-.232 1.163-.472 1.742-.712.338-.14.678-.276 1.015-.419.874-.371 1.743-.751 2.607-1.14.365-.164.726-.336 1.089-.503.53-.245 1.061-.49 1.587-.741.414-.198.825-.401 1.237-.603a124.05 124.05 0 0 0 2.673-1.349c.459-.239.917-.48 1.373-.725.415-.222.83-.444 1.243-.67.462-.253.92-.512 1.378-.77.398-.225.798-.447 1.194-.676.541-.313 1.077-.633 1.613-.953.602-.36 1.201-.725 1.797-1.094.486-.301.973-.601 1.455-.908.403-.257.801-.52 1.201-.781.418-.273.835-.545 1.25-.823a145.64 145.64 0 0 0 3.628-2.517c.394-.284.786-.571 1.177-.858.395-.291.791-.581 1.183-.876.405-.305.805-.615 1.206-.925.37-.285.742-.567 1.109-.856l.003-.002v-22.455c0-30.086-16.445-56.314-40.825-70.239-10.245 10.243-24.397 16.579-40.029 16.579s-29.785-6.336-40.029-16.579c-24.38 13.924-40.825 40.153-40.825 70.239v23.189l.013.01z" fill="#abb0b7"/><path d="M312.613 112.058c0-31.267-25.347-56.614-56.614-56.614s-56.614 25.347-56.614 56.614c0 15.635 6.338 29.79 16.585 40.035 10.245 10.243 24.397 16.579 40.029 16.579s29.785-6.336 40.029-16.579c10.247-10.246 16.585-24.4 16.585-40.035z" fill="#e5eaed"/><path d="M418.07 413.252c31.846 0 57.754-25.908 57.754-57.754s-25.909-57.755-57.754-57.755H93.928c-31.846 0-57.754 25.909-57.754 57.755s25.909 57.754 57.754 57.754h33.852l-4.369 3.549a16.979 16.979 0 0 0-5.909 16.892 16.976 16.976 0 0 0 12.426 12.879l2.269.583-11.198 43.629c-1.373 5.35 1.851 10.799 7.2 12.172l34.009 8.729a10.004 10.004 0 0 0 12.172-7.2l11.199-43.631 2.269.583a16.976 16.976 0 0 0 17.092-5.304 16.978 16.978 0 0 0 2.956-17.649l-10.257-25.233H418.07v.001zm-30.208-95.509h30.208c20.818 0 37.754 16.937 37.754 37.755 0 20.817-16.937 37.754-37.754 37.754h-30.208v-75.509zM134.365 438.712l-.004.015.005-.019-.001.004zm47.75.606a11.206 11.206 0 0 0-8.556 1.216 11.206 11.206 0 0 0-5.186 6.907l-10.879 42.387-14.638-3.758 10.878-42.382a11.211 11.211 0 0 0-1.218-8.558 11.2 11.2 0 0 0-6.906-5.182l-5.064-1.301 18.953-15.396 12.441-10.106 4.108 10.106 11.123 27.364-5.056-1.297zm7.395-46.066l-4.126-10.15a9.998 9.998 0 0 0-15.57-3.996L152.4 393.252H93.928c-20.818 0-37.754-16.937-37.754-37.754 0-20.818 16.937-37.755 37.754-37.755h273.934v75.509H189.51z"/><path d="M423.868 374.435l11.64-14.721a9.997 9.997 0 0 0 0-12.404l-11.64-14.721c-3.425-4.332-9.714-5.069-14.046-1.642-4.333 3.425-5.067 9.714-1.642 14.046l6.735 8.519-6.735 8.519c-3.425 4.332-2.69 10.621 1.642 14.046a9.954 9.954 0 0 0 6.195 2.156 9.986 9.986 0 0 0 7.851-3.798zM115.449 351.67c-.25-.601-.56-1.18-.92-1.72-.36-.551-.78-1.061-1.24-1.521s-.98-.88-1.52-1.25a10.098 10.098 0 0 0-3.6-1.49c-3.25-.649-6.7.41-9.02 2.74-.46.46-.88.97-1.25 1.521-.36.54-.67 1.119-.92 1.72-.25.61-.44 1.24-.57 1.87-.13.649-.19 1.31-.19 1.96a9.847 9.847 0 0 0 .76 3.819 9.87 9.87 0 0 0 2.17 3.25c.46.461.97.881 1.52 1.24.54.36 1.12.67 1.72.92.61.25 1.23.44 1.87.57.65.13 1.3.2 1.96.2a10.098 10.098 0 0 0 5.55-1.69 9.92 9.92 0 0 0 1.52-1.24c.46-.46.88-.97 1.24-1.52.36-.54.67-1.12.92-1.73a10.089 10.089 0 0 0 .77-3.819c0-.65-.07-1.311-.2-1.96-.13-.63-.32-1.26-.57-1.87zm53.181 0c-.25-.601-.56-1.18-.92-1.72a9.533 9.533 0 0 0-1.24-1.521c-2.32-2.33-5.77-3.39-9.03-2.74-.63.13-1.26.32-1.87.57-.6.25-1.18.56-1.72.92a10.172 10.172 0 0 0-2.77 2.771c-.36.54-.67 1.119-.92 1.72-.25.61-.44 1.24-.57 1.87-.13.649-.19 1.31-.19 1.96a9.847 9.847 0 0 0 .76 3.819 9.87 9.87 0 0 0 2.17 3.25c.46.461.97.881 1.52 1.24.54.36 1.12.67 1.72.92.61.25 1.24.44 1.87.57.65.13 1.31.2 1.96.2s1.31-.07 1.95-.2 1.27-.32 1.87-.57a9.87 9.87 0 0 0 1.73-.92 9.462 9.462 0 0 0 1.52-1.24c.46-.46.88-.97 1.24-1.52.36-.54.67-1.12.92-1.73a10.089 10.089 0 0 0 .77-3.819c0-.65-.07-1.311-.2-1.96-.13-.63-.32-1.26-.57-1.87zm53.179 0c-.25-.601-.56-1.18-.92-1.72a9.533 9.533 0 0 0-1.24-1.521c-2.32-2.33-5.78-3.39-9.02-2.74-.64.13-1.27.32-1.88.57-.6.25-1.18.56-1.72.92-.55.37-1.06.79-1.52 1.25s-.88.97-1.24 1.521c-.36.54-.67 1.119-.92 1.72a9.81 9.81 0 0 0-.57 1.87c-.13.649-.2 1.31-.2 1.96 0 .649.07 1.31.2 1.95.12.64.32 1.27.57 1.869.25.61.56 1.19.92 1.73.36.55.78 1.06 1.24 1.52.46.461.97.881 1.52 1.24.54.36 1.12.67 1.73.92a10.098 10.098 0 0 0 3.82.77 10.098 10.098 0 0 0 3.82-.77 9.87 9.87 0 0 0 1.73-.92 9.462 9.462 0 0 0 1.52-1.24c.46-.46.88-.97 1.24-1.52.36-.54.67-1.12.92-1.73a10.089 10.089 0 0 0 .77-3.819c0-.65-.07-1.311-.2-1.96a9.81 9.81 0 0 0-.57-1.87zm53.18 0c-.25-.601-.56-1.18-.92-1.72a9.533 9.533 0 0 0-1.24-1.521c-2.32-2.33-5.78-3.39-9.02-2.74-.64.13-1.27.32-1.87.57a9.87 9.87 0 0 0-4.49 3.691c-.36.54-.67 1.119-.92 1.72-.25.61-.44 1.24-.57 1.87-.13.649-.2 1.31-.2 1.96 0 .649.07 1.31.2 1.95s.32 1.27.57 1.869c.25.61.56 1.19.92 1.73.36.55.78 1.06 1.24 1.52.46.461.97.881 1.52 1.24.54.36 1.12.67 1.73.92a10.098 10.098 0 0 0 3.82.77 10.098 10.098 0 0 0 3.82-.77 9.87 9.87 0 0 0 1.73-.92 9.462 9.462 0 0 0 1.52-1.24c.46-.46.88-.97 1.24-1.52.36-.54.67-1.12.92-1.73.25-.6.45-1.229.57-1.869.13-.641.2-1.301.2-1.95 0-.65-.07-1.311-.2-1.96a9.81 9.81 0 0 0-.57-1.87zm53.19 0c-.25-.601-.56-1.18-.92-1.72a10.172 10.172 0 0 0-2.77-2.771c-.54-.36-1.12-.67-1.72-.92-.61-.25-1.24-.44-1.87-.57a9.898 9.898 0 0 0-3.91 0c-.64.13-1.27.32-1.87.57a9.87 9.87 0 0 0-4.49 3.691c-.36.54-.67 1.119-.92 1.72-.25.61-.44 1.24-.57 1.87-.13.649-.2 1.31-.2 1.96 0 .649.07 1.31.2 1.95s.32 1.27.57 1.869c.25.61.56 1.19.92 1.73.36.55.78 1.06 1.24 1.52.46.461.97.881 1.52 1.24.54.36 1.12.67 1.73.92a10.098 10.098 0 0 0 3.82.77c.65 0 1.31-.07 1.96-.2.63-.13 1.26-.32 1.87-.57.6-.25 1.18-.56 1.72-.92a9.462 9.462 0 0 0 1.52-1.24 9.87 9.87 0 0 0 2.17-3.25 9.855 9.855 0 0 0 .76-3.819c0-.65-.06-1.311-.19-1.96-.13-.63-.32-1.26-.57-1.87zm-159.153-98.239c22.963 17.766 50.111 27.821 78.925 29.321l.616.031c.914.044 1.831.078 2.748.105.27.008.54.018.81.025 1.131.026 2.263.043 3.399.043 1.142 0 2.281-.017 3.419-.043.26-.006.518-.016.777-.024a145.627 145.627 0 0 0 3.351-.135c29.286-1.515 56.797-11.843 79.972-30.112.318-.251.617-.522.899-.806C376.267 225.885 397 186.061 397 141.479 397.001 63.467 333.535 0 255.524 0S114.046 63.467 114.046 141.478c0 45.113 21.224 85.361 54.212 111.285.245.233.499.459.768.668zm157.827-13.687c-16.741 12.185-36.697 20.204-58.338 22.515-.62.065-1.241.125-1.863.181-.688.063-1.375.126-2.066.177a123.113 123.113 0 0 1-4.847.256c-1.401.047-2.805.081-4.215.081-1.392 0-2.778-.033-4.162-.079a126.694 126.694 0 0 1-4.664-.243c-.666-.048-1.33-.106-1.993-.165a128.25 128.25 0 0 1-4.543-.48c-.141-.018-.281-.039-.422-.057-20.159-2.627-38.78-10.213-54.596-21.493v-18.105c0-23.827 11.834-44.928 29.92-57.779 11.304 8.834 25.509 14.119 40.934 14.119 15.425 0 29.631-5.284 40.934-14.119 18.086 12.851 29.92 33.952 29.92 57.779l.001 17.412zm-192.807-98.266C134.046 74.494 188.542 20 255.524 20s121.478 54.494 121.478 121.478c0 30.622-11.394 58.63-30.159 80.018-.265-29.199-14.371-55.15-36.064-71.597 7.453-10.756 11.835-23.793 11.835-37.841 0-3.305-.245-6.629-.729-9.88-.813-5.462-5.897-9.231-11.363-8.419-5.463.813-9.232 5.899-8.419 11.362.339 2.279.511 4.613.511 6.937 0 10.303-3.366 19.832-9.048 27.557a46.895 46.895 0 0 1-17.859 14.673A46.322 46.322 0 0 1 256 158.673a46.322 46.322 0 0 1-19.707-4.385 46.895 46.895 0 0 1-17.859-14.673c-5.682-7.725-9.048-17.253-9.048-27.557 0-25.703 20.911-46.614 46.614-46.614 3.538 0 7.061.396 10.473 1.179 5.389 1.239 10.749-2.129 11.982-7.513 1.234-5.383-2.129-10.747-7.512-11.981a66.948 66.948 0 0 0-14.942-1.685c-36.731 0-66.614 29.883-66.614 66.614 0 14.048 4.382 27.085 11.835 37.841-21.901 16.604-36.075 42.893-36.075 72.433v.222c-19.325-21.518-31.101-49.946-31.101-81.076z"/><path d="M288.259 77.37c.25.6.56 1.18.92 1.72.36.55.78 1.06 1.24 1.52.46.471.97.881 1.52 1.25a10.096 10.096 0 0 0 3.6 1.49c.64.13 1.3.19 1.95.19s1.31-.061 1.95-.19c.64-.13 1.27-.319 1.88-.569.6-.25 1.18-.561 1.72-.921a9.522 9.522 0 0 0 1.52-1.25c.46-.46.88-.97 1.24-1.52.36-.54.67-1.12.92-1.72.25-.61.45-1.23.57-1.87.13-.65.2-1.3.2-1.96 0-.65-.07-1.311-.2-1.95-.12-.64-.32-1.271-.57-1.87s-.56-1.189-.92-1.729a9.533 9.533 0 0 0-1.24-1.521 9.57 9.57 0 0 0-1.52-1.24c-.54-.359-1.12-.67-1.72-.92-.61-.25-1.24-.439-1.88-.569a9.81 9.81 0 0 0-3.9 0 10.096 10.096 0 0 0-3.6 1.489c-.55.36-1.06.78-1.52 1.24s-.88.97-1.24 1.521c-.36.54-.67 1.13-.92 1.729s-.44 1.23-.57 1.87-.2 1.3-.2 1.95c0 .66.07 1.31.2 1.96.13.64.32 1.26.57 1.87z"/></svg>