<svg xmlns="http://www.w3.org/2000/svg" viewBox="0 0 116.001 116.001"><path d="M102.851 90.05c-.964-1.113-2.024-2.112-3.316-2.869a404.766 404.766 0 0 1-8.729-5.225c-1.337-.827-2.748-1.638-3.829-2.746a9.72 9.72 0 0 0-3.319-2.249c-3.336-1.396-6.644-2.863-10.007-4.192-1.104-.437-2.01-.946-2.573-2.021-.261-.496-.717-.891-.97-1.389-1.934-3.806-2.145-7.631.447-11.186 3.683-5.051 6.688-10.48 9.444-16.063.61-2.75 2.247-4.011 5.097-3.522.108.019.225-.022.336-.027 1.103-.051 1.946-.593 2.558-1.462.389-.55.768-1.147.965-1.782.729-2.371 1.507-4.737 2.021-7.158.349-1.65.38-3.414-.863-4.843-.645-.741-.424-1.396-.03-2.159 1.772-3.433 2.94-7.088 3.915-10.813.412-1.572.387-3.108.056-4.688-.439-2.085-1.673-3.442-3.646-4.087-1.712-.561-3.462-1.014-5.212-1.452a4.324 4.324 0 0 0-1.681-.062c-2.008.315-4.041.562-5.992 1.103-1.256.349-2.243.488-3.461-.227-.804-.472-1.963-.427-2.966-.453a85.155 85.155 0 0 0-16.877 1.259c-5.417.947-10.479 2.733-15.204 5.508-.573.337-1.215.713-1.569 1.242-.729 1.091-1.656 1.05-2.682.722-2.893-.926-5.777-.664-8.693-.101-3.294.636-6.058 2.473-8.987 3.904-1.408.688-2.488 2.005-3.037 3.544-1.327 3.73-1.744 7.572-.016 11.23 1.741 3.688 4.028 7.07 7.366 9.578.645.484 1.304.953 1.533 1.75.446 1.561 1.61 2.376 2.937 3.101 1.09.593 2.204 1.195 3.145 1.986.963.808 1.829 1.634 3.133 1.907.489.103.962.596 1.305 1.021.632.789 1.188 1.646 1.732 2.502 1.515 2.383 2.933 4.832 4.534 7.156 1.407 2.046 2.914 4.041 4.548 5.908 2.342 2.674 3.058 5.988 3.979 9.237.193.688-.024 1.322-.594 1.829-1.691 1.508-3.413 2.979-5.434 4.038-2.012 1.056-3.89 2.291-5.622 3.77-1.285 1.097-2.722 1.97-4.293 2.661-3.427 1.507-6.517 3.619-9.683 5.596-1.19.742-1.718 1.729-1.623 3.104.055.788.027 1.585.106 2.372a6.6 6.6 0 0 0 1.389 3.409c.506.652 1.147 1.125 2.037.939.931-.194 1.203-.926 1.315-1.757.01-.073.023-.147.035-.22-.023-.009-.046-.019-.07-.027l-.72-.69c0-.054.004-.108.007-.163-.144-.104-.306-.2-.37-.34-.062-.141.045-.357.077-.541.096.138.241.264.279.416.034.147.023.307.014.465.029.021.06.041.086.062l.715.704-.018.114c1.182.45 2.38 1.42 3.461-.238.257-.395.592.05.894.099.33.053.665.13.991.11.732-.044 1.25-.864.917-1.444-.62-1.078-1.283-2.131-1.898-3.212-.161-.283-.225-.626-.299-.951-.016-.071.099-.194.182-.258.06-.047.214-.075.245-.04.301.329.578.678.873 1.012.518.587 1.028 1.184 1.58 1.737.131.132.494.219.612.135.245-.176.543-.476.552-.734.021-.55-.106-1.11-.218-1.657-.088-.437-.256-.856-.363-1.29-.021-.086.052-.213.116-.295.027-.034.177-.03.212.008.225.251.423.524.647.776.679.763 1.438 1.118 2.345.366.433-.358.624.048.77.271.495.755.909 1.563 1.398 2.324.782 1.222 1.124 2.729 2.362 3.657-.712 1.27-1.438 2.528-2.126 3.808-.668 1.238-.515 2.106.517 3.024 2.279 2.029 4.543 4.077 6.859 6.063 2.062 1.767 4.201 3.445 6.634 4.689 1.18.602 2.313.432 2.754-.323.348-.596.022-1.468-.955-2.31-1.802-1.549-3.666-3.022-5.439-4.603-1.772-1.578-3.536-3.179-5.171-4.896-1.66-1.744-1.64-1.517-.487-3.418.762-1.255 1.538-2.5 2.321-3.74.362-.574.788-1.109 1.122-1.697.735-1.29-.032-2.543-1.566-2.501-.778.021-1.555.216-2.328.356-.521.093-.891-.121-1.089-.562-1.104-2.478-2.181-4.965-3.275-7.446-.21-.477-.13-.922.243-1.226.787-.638 1.586-1.275 2.444-1.809 2.209-1.373 4.461-2.677 6.413-4.425.142-.126.447-.231.581-.162.159.081.295.36.301.56.024.677.025 1.358-.035 2.032-.189 2.137-.514 4.268-.598 6.407-.181 4.521-.22 9.039.807 13.498.38 1.656.708 3.288 1.661 4.76.608.938.943 2.051 1.446 3.062.451.911.932 1.81 1.454 2.682.613 1.026 1.602 1.562 2.717 1.888.894.26 1.926-.447 1.891-1.396-.027-.774-.25-1.543-.387-2.313-.093-.533.14-.842.686-.911.773-.098 1.58-.102 2.312-.339.312-.1.646-.692.641-1.056-.007-.363-.344-.869-.677-1.044-.476-.25-1.102-.192-1.623-.38-.622-.223-1.219-.538-1.79-.871-.139-.081-.24-.424-.182-.585.053-.149.378-.34.517-.298 1.094.335 2.195.522 3.34.382.821-.104 1.639-.881 1.382-1.605-.373-1.054-.533-1.81.742-2.271.249-.089.514-.527.513-.803-.003-.4-.131-.93-.409-1.161-.301-.251-.847-.185-1.264-.325a33.359 33.359 0 0 1-2.492-.941c-.166-.071-.237-.366-.352-.557.207-.06.428-.199.616-.163.771.149 1.503.424 2.325.148.812-.271 1.135-1.269.503-1.869-.321-.305-.735-.509-1.093-.776-.225-.17-.138-.283.184-.402.73-.272 1.534-.144 1.81.41 1.105 2.228 1.943 4.631 3.339 6.655 1.091 1.583 1.154 2.803.188 4.287-.18.278-.347.6-.396.921-.049.314-.002.679.118.975.228.57.722.938 1.319.844.393-.06.759-.4 1.094-.667.165-.132.27-.369.343-.578 1.36-3.959 2.587-7.985 2.972-12.146.341-3.703.167-7.459.155-11.191-.005-1.578-.07-3.164-.621-4.69-.138-.381-.134-.953.064-1.282.33-.549.801-.019 1.142.129 2.486 1.084 4.952 2.215 7.425 3.331.516.232 1.038.45 1.543.702.453.225.679.646.547 1.107-.248.86-.447 1.785-.919 2.518-.995 1.544-1.753 3.184-2.21 4.934-.335 1.275-1.088 1.903-2.27 2.209-.872.225-1.775.384-2.602.723-1.839.749-2.133 2.495-.646 3.715 1.317 1.08 2.742 1.992 4.415 2.455.539.148 1.068.343 1.588.553.434.176.601.726.366 1.129-1.257 2.167-2.771 4.132-4.656 5.796-1.188 1.049-2.459 2.012-3.575 3.13-1.671 1.677-3.253 3.444-4.843 5.201-.437.483-.339 1.352.103 1.885.521.629 1.544.831 2.126.323.677-.591 1.358-1.212 1.885-1.933 1.483-2.031 3.334-3.67 5.229-5.296 1.366-1.171 2.68-2.452 3.79-3.861 1.396-1.771 2.581-3.712 3.818-5.604.645-.986.328-1.972-.804-2.501-1.527-.714-3.086-1.359-4.623-2.051-.194-.088-.342-.28-.51-.425.135-.126.249-.326.405-.368 2.011-.553 2.996-1.916 3.119-3.943.043-.709.317-1.286.696-1.871.444-.683.399-.712.96.024 1.02 1.34 2.002 1.36 2.898.016.5-.751.908-1.563 1.377-2.336.312-.517.811-.676 1.07-.319.165.224.271.622.186.869-.253.744-.667 1.435-.908 2.183-.131.407-.056.888-.027 1.334.023.373.788.694 1.091.456.345-.271.711-.547.972-.893.476-.63.835-1.351 1.331-1.959.313-.383.778-.321 1.211-.045.534.338.694.81.737 1.412.036.531.418.828.919.56 1.165-.623 1.927.09 2.714.731.499.405.605.885.222 1.468-.304.46-.68 1.046-.008 1.438.314.184.91.148 1.249-.032.737-.397 1.45-.559 2.273-.396.318.064.676.004 1.005-.06.913-.175 1.414-1.456.812-2.15zM87.519 33.318c-.321 1.124-1.098 1.944-2.313 2.268-1.433.381-1.818.105-1.918-1.488-.163-2.618.419-5.138 1.121-7.621.302-1.074 1.677-1.477 2.823-1.037.573.221.979.569 1.033 1.198.059.675.068 1.354.124 2.644-.202.963-.438 2.529-.87 4.036zm-3.407-13.36c.037-.681.142-.834 1.241-1.147a27.752 27.752 0 0 1 2.289-.558c.111-.021.424.323.398.37-.571 1.091-1.146 2.183-1.801 3.222-.142.227-.591.277-.91.37-.615.18-1.176-.17-1.213-.747-.022-.337-.004-.676-.004-1.51zm5.777-5.438c-.234.988-.66 1.5-1.855 1.498-1.081-.002-2.162.501-3.247.782-.089-.055-.244-.099-.262-.175-.043-.182-.098-.488-.011-.552a407.301 407.301 0 0 1 5.261-3.655c.083-.059.277-.117.287-.098.109.187.292.406.259.581-.101.548-.303 1.075-.432 1.619zm-8.236-6.685c.165-.401.386-.802.675-1.124.907-1.012 1.774-2.021 2.062-3.424.105-.512.573-.545 1.078-.373 1.061.361 2.135.688 3.218.978 2.212.59 2.82 1.29 2.926 3.484.011.226.001.452.001.899-.006.115-.018.453-.044.789-.052.66-.453 1.036-1.099.726-.875-.421-1.575-.13-2.221.275-1.237.773-2.391 1.679-3.604 2.495-.267.181-.688.276-.845-.154-.103-.277-.169-.735-.017-.907.963-1.095 2.04-2.094 2.982-3.208.411-.487.651-1.151.845-1.775.077-.247-.107-.694-.32-.877-.2-.172-.695-.259-.887-.128-.831.562-1.604 1.208-2.384 1.841-.521.423-1.002.895-1.541 1.293-.086.063-.419-.104-.561-.242-.146-.143-.318-.432-.264-.568zm-1.906-4.653c.209-.057.44-.037.661-.053.208.053.418.096.622.162.306.097.36.291.129.509-.311.292-.607.643-.979.815-.491.229-1.155-.151-1.271-.71-.137-.65.45-.618.838-.723zm-44.791 12.8c3.47-3.33 7.537-5.712 11.987-7.458a41.373 41.373 0 0 1 11.136-2.668c2.8-.273 5.599-.569 8.397-.855l.021.18c1.241 0 2.488.067 3.724-.016 2.056-.139 3.729.668 5.257 1.924 3.866 3.184 5.409 7.364 5.262 12.268-.025.789-.38 1.215-1.17 1.44-.867.246-1.781.366-2.606.704-1.609.661-2.892.674-4.117-.88-.916-1.162-2.399-1.623-3.906-1.812-.893-.111-1.771-.333-2.663-.444-2.51-.311-4.733.151-6.172 2.489-.553.902-1.197 1.057-2.257.799-2.199-.533-4.244.112-6.064 1.389-.673.473-1.19.449-1.805-.041-1.962-1.565-4.376-1.681-6.71-1.99-1.542-.204-2.885.346-3.973 1.475a67.61 67.61 0 0 1-1.187 1.208c-.667.66-1.462 1.066-2.408 1.088-1.467.035-2.935.042-4.4.047-.415.002-.824-.556-.708-.952.862-2.959 2.092-5.717 4.362-7.895zm37.371 10.464c-.291 1.426-.5 2.875-.897 4.271-.347 1.209-1.312 1.837-2.566 1.837-1.127 0-2.277 0-3.373-.221-2.149-.433-3.527-2.068-3.783-4.243-.395-3.346.824-5.115 4.085-5.941 1.108-.281 2.228-.292 3.355-.141 1.938.259 2.987 1.431 3.017 3.385.006.339.002.678.002 1.018l.16.035zm-20.1 5.631c0-1.581-.017-3.165.005-4.746.019-1.331.996-2.626 2.29-3.001a7.113 7.113 0 0 1 1.669-.244c1.149-.041 2.013.537 2.271 1.632 1.034 4.389 2.158 8.766 2.039 13.333-.047 1.803-.208 2.139-2.072 2.479-5.157.943-5.451.476-6.002-4.369-.191-1.674-.03-3.388-.03-5.084h-.17zm-6.4-7.78c2.602.36 3.965 2.063 3.641 4.684-.223 1.793-.743 3.521-1.869 4.992-.831 1.088-1.984 1.456-3.291 1.108-2.353-.626-3.924-2.169-4.812-4.353-1.206-2.966 1.082-6.336 4.308-6.484.225-.011.45-.001.675-.001v.045c.448 0 .906-.054 1.348.009zM26.861 13.399c.85-.487 1.725-.93 2.647-1.414.541.362 1.042.599 1.406.969.415.418.526 1.07.187 1.526-.446.597-1.044 1.099-1.65 1.542-.179.131-.703.042-.894-.135-.64-.598-1.217-1.27-1.78-1.944-.082-.099-.021-.484.084-.544zm-5.679 2.405c.062-.075.438-.05.488.038 1.13 1.956 2.275 3.894 4.043 5.375.132.11.104.409.151.619-.176.12-.343.322-.527.34a.892.892 0 0 1-.615-.221c-1.674-1.557-2.967-3.377-3.72-5.551-.057-.167.056-.446.18-.6zm3.8 14.804c-.193.234-.44.6-.754.893-.128.117-.479.182-.597.095-1.365-1.013-2.319-2.362-3.042-3.883-.031-.063.041-.205.104-.277.037-.044.185-.062.222-.028 1.125 1.072 2.186 2.238 3.838 2.508a.397.397 0 0 1 .252.205c.039.088-.006.217-.023.487zm-.483-3.89c-.858-.613-1.592-1.338-1.949-2.361l-.146-.039c-.029-.087-.048-.178-.09-.258-.027-.053-.087-.087-.134-.129l.313.297c.014.046.04.083.056.129.887.24 1.784.453 2.647.762.189.067.34.541.317.812-.024.283-.243.582-.452.801-.09.095-.429.081-.562-.014zm6.756 15.778c-.082.1-.477.078-.626-.03-1.446-1.051-2.919-2.073-4.283-3.226-.806-.68-1.019-1.717-.986-2.915.169-.624.343-1.393.592-2.136.195-.586 1.047-1.181 1.563-1.116.617.079.982.503 1.19 1.06.946 2.525 1.895 5.047 2.804 7.586.075.211-.091.574-.254.777zm14.201 14.793c-1.019-1.609-2.436-2.961-3.624-4.469-.696-.883-1.428-1.782-1.904-2.789-.873-1.848-1.939-3.565-3.128-5.213-2.139-2.966-3.604-6.242-4.56-9.76-.237-.87-.55-1.72-.798-2.586-.256-.89.008-1.271.91-1.365.338-.036.677-.045.967-.064.681-.09 1.141.133 1.37.754.039.105.1.202.143.307 1.996 4.64 6.552 6.275 11.549 5.738 1.185-.129 2.066-.845 2.975-1.516.16-.118.377-.154.569-.229.033.212.119.432.091.636-.186 1.337-.424 2.668-.588 4.007a3.472 3.472 0 0 0 .496 2.272c.273.454.641 1.027.559 1.47-.091.482-.627.901-1.016 1.303-.867.892-1.764 1.751-2.644 2.63-.317.319-.646.634-.916.992-.618.816-.173 2.18.811 2.53 1.014.361 1.982.222 2.954-.213 2.268-1.01 4.578-1.93 6.814-3.002.977-.469 1.837-.442 2.891-.356 3.047.25 6.035.695 8.98 1.511.897.248 1.701-.104 2.077-.741.494-.837.281-2.177-.543-2.754-.642-.447-1.36-.805-2.086-1.1-1.672-.677-3.373-1.28-5.053-1.938-.271-.105-.733-.271-.403-.686 1.861-2.335 1.557-4.818.568-7.363-.081-.207-.176-.412-.234-.627-.024-.094 0-.283.048-.299a1.68 1.68 0 0 1 .549-.082c.106 0 .217.062.316.111 1.898.965 3.942.853 5.976.799 1.082-.027 1.918-.555 2.683-1.279 1.204-1.143 1.755-2.604 2.102-4.166.146-.658.292-1.328.323-1.998.155-3.254-.049-2.35 3.071-3.382.629-.207 1.338-.185 2.011-.238.435-.035.906.45.833.853-.639 3.433-1.286 6.863-1.938 10.294-.043.219-.14.431-.23.637-2.135 4.854-4.129 9.773-7.09 14.221-1.375 2.065-2.655 4.196-3.933 6.325a26.528 26.528 0 0 1-4.182 5.302c-.209.204-.659.384-.877.291-.215-.091-.315-.532-.396-.839-.114-.434-.11-.902-.258-1.319-.106-.297-.383-.76-.579-.759-1.12.008-2.047-1.068-3.189-.617-.832.329-1.257.065-1.596-.667-.2-.433-.596-.729-1.069-.55-.274.104-.582.435-.646.715-.25 1.093-.442 2.146-1.256 3.055-.393.44-.29 1.293-.53 1.916-.08.207-.547.416-.796.374-.431-.069-.96-.226-1.221-.536-1.654-1.972-3.935-3.302-5.353-5.541zm11.153 32.549c-.981 2.875-1.97 5.748-2.976 8.613-.048.138-.337.311-.461.276-.188-.052-.445-.25-.477-.423-.419-2.201-.804-4.411-1.106-6.1 0-.997.009-1.447-.001-1.896-.017-.734.254-1.297.889-1.697.381-.238.727-.533 1.087-.805 1.081-.811 1.081-.812 2.214-.015 1.223.86 1.234.863.831 2.047zM52.995 76.73c.61-.179 2.05.877 2.114 1.416.09.777.085 1.565.121 2.349l-.104.003c0 .562-.021 1.127.003 1.69.069 1.686-1.228 2.259-2.393 2.926-.069.041-.444-.211-.442-.321.034-1.683.083-3.366.186-5.045.034-.553.209-1.103.364-1.641.133-.468-.679-1.134.151-1.377zm6.483 22.428c.045.033.074.176.043.216-.06.08-.165.17-.257.174-.599.033-1.148-.319-1.232-.769.136-.104.332-.321.4-.286.367.185.708.427 1.046.665zm-.781-20.956l.181.021-.109.176-.072-.197zm2.748 5.546c-.28.139-.61.172-.803.22-.345-.034-.564-.044-.776-.083a.54.54 0 0 1-.281-.155c-.025-.029.039-.212.091-.227a35.63 35.63 0 0 1 1.818-.469c.06-.014.234.163.22.209-.06.184-.128.435-.269.505zm.513-10.047c-1.052.656-2.158 1.226-3.241 1.831-1.135-.496-2.268-.995-3.405-1.487-.826-.357-1.628-.865-2.491-1.016-1.116-.194-1.498-.873-1.719-1.801-.105-.438-.177-.887-.265-1.331-.136-.427-.319-.848-.393-1.288-.062-.361.087-.621.559-.525 2.908.58 5.853.264 8.783.364.923.033 1.784-.262 2.541-.812.729-.531 1.449-1.078 2.181-1.605.341-.246.648-.106.754.239.195.645.411 1.311.445 1.976.079 1.505-.172 2.91-1.562 3.853-.747.506-1.421 1.126-2.187 1.602zm1.527 5.41c-.27-.095-.446-.48-.645-.747-.306-.409-.333-.897.036-1.214.679-.584 1.421-1.099 2.169-1.591.443-.29 1.051-.773 1.406-.652.574.198 1.146.742 1.449 1.289.37.667.481 1.482.666 2.243.079.324.083.67.089 1.007.013.675.003 1.35.003 2.024.037 0 .074.002.11.003-.054.668-.101 1.337-.166 2.004-.011.102-.111.28-.163.277-.192-.009-.455-.014-.562-.135a20.28 20.28 0 0 1-1.256-1.58c-.857-1.18-1.646-2.408-3.136-2.928zm6.106 16.456c-.028.183-.296.482-.409.464-.263-.042-.617-.187-.729-.397-1.201-2.275-2.327-4.592-3.55-6.854-.708-1.313-.225-2.631-.201-3.949.001-.112.225-.222.342-.328.198.164.402.279.532.45.547.709 1.042 1.457 1.607 2.148.713.87 1.47 1.685 2.707 1.832.221.026.586.472.56.685a159.79 159.79 0 0 1-.859 5.949z" fill-rule="evenodd" clip-rule="evenodd"/></svg>