<svg xmlns="http://www.w3.org/2000/svg" width="512" height="512" viewBox="0 0 102.519 102.519"><circle cx="27.863" cy="17.12" r="14.227" data-original="#000000" class="active-path" data-old_color="#CD0505" fill="#C50505"/><path d="M100.878 68.305c-6.896-10.631-16.937-18.316-28.565-22.96-1.611-2.756-3.27-5.138-5.074-7.263l6.174-11.405a.386.386 0 0 0-.623-.447l-8.29 8.94c-2.721-2.61-5.825-4.826-9.606-6.917 4.622-6.726 10.187-11.979 17.101-16.838 6.404-4.503-.092-14.823-6.545-10.288-9.871 6.939-17.54 14.66-23.676 25.066a6.862 6.862 0 0 0-.441.902 9.546 9.546 0 0 0-3.085 3.654 9.753 9.753 0 0 0-.48 1.226c-7.713 2.11-15.603 2.702-23.647 2.595-7.87-.106-7.372 12.077.459 12.182 9.373.125 18.751-.755 27.747-3.412.133.072.261.151.398.218 4.01 1.933 6.701 3.625 8.933 5.896l-8.62 9.382-4.882-2.229-2.251-9.831a.807.807 0 0 0-1.503-.192c-.226.437-1.87 3.605-4.227 8.113-3.159.429-8.797 2.168-14.04 8.814-3.247 4.117-4.529 8.791-6.016 14.204-1 3.64-2.132 7.763-4.035 12.353C4.825 93.103 1.99 97.627.505 99.76c.287.039.574.077.859.107l13.034 1.088c4.759.131 9.679.268 14.475.906 1.874.249 3.622.437 5.341.573.422.033.844.06 1.266.081a.8.8 0 0 0 .848-.776c.357-10.899.726-20.12 1.097-24.472l.77.021 10.792.352 1.787.087c2.754.146 5.135.271 6.615-.37.062-.026.123-.056.181-.086 2.521-1.262 3.01-2.803 3.521-6.018.177-1.108.1-1.995-.247-2.789-.572-1.32-1.832-2.328-4.349-3.479l-4.666-2.132 4.271-7.219c.386.687.776 1.403 1.181 2.183a9.534 9.534 0 0 0 2.746 3.242c.086.187.174.371.278.558 4.332 7.667 6.089 16.493 4.03 25.124-2.032 8.512 11.162 11.589 13.188 3.105 2.271-9.519 1.184-19.197-2.293-28.126 5.674 3.517 10.58 8.248 14.219 13.858 4.746 7.319 16.193.075 11.429-7.273zm-45.054-1.853c2.088.956 3.146 1.749 3.539 2.652.217.502.26 1.103.133 1.895-.508 3.201-.93 3.968-2.649 4.83a1.182 1.182 0 0 1-.101.047c-1.131.49-3.443.369-5.891.239l-1.803-.087-12.343-.395a.806.806 0 0 0-.824.729l-.007.069c-.386 4.133-.768 11.841-1.136 22.922l-.402-.028a99.459 99.459 0 0 1-5.256-.564c-4.878-.649-9.843-.787-14.642-.92a299.835 299.835 0 0 1-6.735-.237c1.759-1.818 2.755-3.262 3.144-3.871 4.348-6.819 19.567-35.985 23.97-44.457l1.849 8.076a.809.809 0 0 0 .451.554l18.703 8.546z" data-original="#000000" class="active-path" data-old_color="#CD0505" fill="#C50505"/></svg>