<svg height="652" viewBox="-18 0 489 489.348" width="652" xmlns="http://www.w3.org/2000/svg"><path d="M397.176 175.082c0-94.394-76.563-170.918-171-170.918-94.442 0-171 76.523-171 170.918S131.734 346 226.176 346c94.437 0 171-76.523 171-170.918zm0 0" fill="#6bdddd"/><g fill="#3762cc"><path d="M226.176 350c-27.149 0-52.492-18.504-71.363-52.102-18.458-32.87-28.625-76.488-28.625-122.816s10.167-89.945 28.624-122.816C173.685 18.668 199.028.164 226.177.164c27.144 0 52.488 18.504 71.36 52.102 18.456 32.87 28.624 76.488 28.624 122.816s-10.168 89.945-28.625 122.816C278.665 331.496 253.32 350 226.175 350zm0-341.836c-50.723 0-91.985 74.879-91.985 166.918 0 92.04 41.262 166.918 91.985 166.918 50.719 0 91.98-74.879 91.98-166.918S276.895 8.164 226.176 8.164zm0 0"/><path d="M223.383 110.715c-46.746 0-90.692-18.195-123.746-51.235a4 4 0 0 1-.059-5.597C132.91 19.137 177.781 0 225.922 0c46.742 0 90.691 18.195 123.742 51.23a3.996 3.996 0 0 1 .059 5.598c-33.328 34.75-78.196 53.887-126.34 53.887zM108.129 56.594c31.2 29.773 71.969 46.12 115.254 46.12 44.62 0 86.293-17.226 117.793-48.593C309.973 24.348 269.207 8 225.922 8 181.3 8 139.629 25.223 108.129 56.594zM226.637 350c-46.742 0-90.688-18.195-123.742-51.23a4 4 0 0 1-.06-5.598c33.325-34.75 78.196-53.887 126.345-53.887 46.742 0 90.687 18.195 123.742 51.235a4 4 0 0 1 .055 5.597C319.652 330.863 274.785 350 226.637 350zm-115.254-54.121c31.203 29.773 71.969 46.125 115.254 46.125 44.625 0 86.293-17.227 117.793-48.594-31.203-29.773-71.97-46.12-115.254-46.12-44.621-.005-86.293 17.222-117.793 48.589zm285.793-111.664h-342a4 4 0 0 1 0-8h342c2.207 0 4 1.793 4 4s-1.793 4-4 4zm0 0"/><path d="M226.176 350c-96.496 0-175-78.469-175-174.918S129.68.164 226.176.164s175 78.469 175 174.918S322.672 350 226.176 350zm0-341.836c-92.086 0-167 74.879-167 166.918 0 92.04 74.914 166.918 167 166.918 92.082 0 167-74.879 167-166.918s-74.918-166.918-167-166.918zm0 0"/></g><path d="M152.176 485.348h-148v-117.73c0-5.524 4.476-10 10-10h128c5.52 0 10 4.476 10 10zm0 0" fill="#f9cfcf"/><path d="M300.176 485.348h-148v-198.63c0-5.519 4.476-10 10-10h128c5.52 0 10 4.481 10 10zm0 0" fill="#f9a7a7"/><path d="M448.176 485.348h-148V329.766c0-5.524 4.476-10 10-10h128c5.52 0 10 4.476 10 10zm0 0" fill="#f9cfcf"/><path d="M224.984 347.527h-11.718v-13.105h26.207v91.863H224.98v-78.758zm115.059 96.196c21.676-19.028 44.484-35.664 44.484-53.684 0-9.574-4.156-16.129-14.87-16.129-10.083 0-15.5 7.055-15.876 17.39h-13.863c.504-19.91 13.36-29.613 29.613-29.613 18.653 0 29.235 11.215 29.235 27.723 0 22.305-22.68 39.317-37.426 52.8h39.945v11.97h-61.242zM79.676 376.188c18.27 0 28.222 10.585 28.222 23.94 0 10.966-6.93 18.4-14.113 20.794v.504c9.578 2.894 15.754 10.836 15.754 23.562 0 14.617-10.332 25.707-29.488 25.707-17.39 0-30.871-9.074-31.754-27.093h13.86c.632 8.57 6.933 15.12 17.769 15.12 10.71 0 16.004-6.55 16.004-15.12 0-12.098-7.813-16.254-22.809-16.254h-3.273V415.5h3.398c12.98-.125 20.918-3.906 20.918-13.734 0-7.942-5.164-13.235-14.992-13.235-10.082 0-14.742 6.047-15.629 12.477H49.559c1.004-15.875 13.355-24.82 30.117-24.82zm0 0" fill="#e0ebfc"/><path d="M222.75 250.86a25.494 25.494 0 0 1-2.012-.387c-4.816-1.13-9.078-3.953-12.144-7.86l-3.082-3.918a4.763 4.763 0 0 1-.914-1.98c-9.422.836-17.715 5.629-23.23 12.71h-.005a.717.717 0 0 0-.062.083c-.18.23-.352.469-.528.707a31.349 31.349 0 0 0-.808 1.148 40.907 40.907 0 0 0-.762 1.192 34.965 34.965 0 0 0-.718 1.235c-.102.179-.196.362-.294.546-.129.238-.254.476-.375.719-.097.195-.187.394-.28.59-.114.234-.231.472-.337.71-.101.235-.199.473-.3.711a36.68 36.68 0 0 0-.454 1.145c-.097.262-.199.523-.293.793-.074.207-.136.422-.207.633-.082.258-.168.515-.246.773-.062.215-.12.434-.18.649-.074.261-.144.527-.21.789-.055.215-.106.437-.157.656l-.175.812c-.043.215-.086.43-.125.649-.051.281-.098.566-.141.851-.031.211-.066.422-.094.637-.043.3-.078.602-.11.906-.023.2-.046.399-.062.602-.03.336-.054.676-.074 1.016-.008.168-.023.34-.031.511a33.761 33.761 0 0 0-.035 1.543v6.696h105.34v-6.696c0-.527-.016-1.05-.04-1.57a11.73 11.73 0 0 0-.035-.531 30.03 30.03 0 0 0-.074-1.024 32.887 32.887 0 0 0-.18-1.523 29.99 29.99 0 0 0-.242-1.5c-.043-.238-.09-.473-.136-.707-.051-.25-.11-.496-.165-.746-.058-.25-.117-.5-.18-.75-.05-.203-.109-.403-.163-.606a32.753 32.753 0 0 0-1.063-3.199c-.031-.09-.066-.176-.097-.266a54.051 54.051 0 0 0-.434-1.023c-.043-.098-.082-.191-.125-.285a27.386 27.386 0 0 0-.484-1.024c-.036-.078-.075-.152-.11-.226a34.403 34.403 0 0 0-.605-1.16c-5.457-9.93-15.782-16.778-27.739-17.27l-4.503 5.809c-4.868 6.27-12.696 9.601-20.52 8.43zm0 0" fill="#4671c6"/><path d="M247.773 236.613l-4.503 5.809c-4.868 6.277-12.692 9.61-20.516 8.437a25.596 25.596 0 0 1-2.016-.386c-4.816-1.13-9.074-3.957-12.144-7.86l-3.082-3.918a4.862 4.862 0 0 1-.914-1.98 33.706 33.706 0 0 0-4.942.824l2.297 4.414 2.86 3.637c3.789 4.816 9.054 8.215 14.828 9.566.797.188 1.601.34 2.394.461a26.29 26.29 0 0 0 3.836.285c8.164 0 16.086-3.937 21.2-10.53l2.902-3.747 2.914-4.387zm0 0" fill="#e0ebfc"/><path d="M204.598 236.715c.066.332.175.652.308.965.02.039.035.082.055.12.062.126.129.25.195.372.07.117.149.226.227.34.043.058.082.125.129.183l3.082 3.918c3.066 3.903 7.328 6.73 12.144 7.86.645.152 1.317.28 2.012.386 7.824 1.172 15.652-2.16 20.52-8.437l4.492-5.797a4.87 4.87 0 0 0 .101-.945v-13.532a46.63 46.63 0 0 1-21.691 5.329 46.58 46.58 0 0 1-21.703-5.336v13.566c0 .344.047.68.12 1.012.005-.004.005-.004.009-.004zm0 0" fill="#f9cfcf"/><path d="M273.555 162.09c-.098 0-.196.012-.297.015v-4.476c0-26.16-21.078-47.367-47.082-47.367s-47.086 21.207-47.086 47.367v4.476c-.102-.003-.2-.015-.297-.015-7.934 0-14.363 6.469-14.363 14.45 0 7.983 6.43 14.452 14.363 14.452.52 0 1.031-.031 1.543-.086 4.855 20.957 23.527 36.57 45.84 36.57 22.308 0 40.98-15.617 45.84-36.57.504.055 1.02.086 1.539.086 7.933 0 14.367-6.469 14.367-14.453 0-7.98-6.434-14.45-14.367-14.45zm0 0" fill="#f9cfcf"/><path d="M201.46 178.402a4.79 4.79 0 0 1-4.788-4.789v-8.086a4.786 4.786 0 1 1 9.574 0v8.086a4.784 4.784 0 0 1-4.785 4.79zm49.712 0a4.79 4.79 0 0 1-4.79-4.789v-8.086a4.79 4.79 0 0 1 9.579 0v8.086a4.79 4.79 0 0 1-4.79 4.79zM226.316 205.3c-8.066 0-14.629-5.452-14.629-12.16 0-2.206 1.793-4 4-4s4 1.794 4 4c0 1.965 2.723 4.16 6.63 4.16s6.628-2.19 6.628-4.16c0-2.206 1.793-4 4-4s4 1.794 4 4c.004 6.704-6.562 12.16-14.629 12.16zm0 0" fill="#3762cc"/><path d="M226.176 231.473c-22.793 0-42.469-14.871-48.914-36.547-9.414-.785-16.832-8.73-16.832-18.387 0-8.902 6.3-16.348 14.66-18.074v-.836c0-28.324 22.918-51.367 51.086-51.367s51.082 23.043 51.082 51.367v.836c8.36 1.726 14.664 9.172 14.664 18.074 0 9.656-7.422 17.602-16.836 18.387-6.445 21.676-26.121 36.547-48.91 36.547zm-45.836-44.57a4 4 0 0 1 3.89 3.097c4.567 19.707 21.817 33.473 41.946 33.473 20.125 0 37.375-13.762 41.941-33.473.457-1.969 2.32-3.3 4.324-3.074.368.039.739.062 1.114.062 5.715 0 10.367-4.687 10.367-10.453 0-5.734-4.61-10.406-10.29-10.45a4 4 0 0 1-4.375-3.984v-4.476c0-23.914-19.327-43.367-43.081-43.367-23.758 0-43.086 19.453-43.086 43.367v4.477a4.008 4.008 0 0 1-1.2 2.855c-.765.75-1.785 1.191-2.878 1.14-.075 0-.285-.011-.36-.019-5.574.004-10.222 4.695-10.222 10.457 0 5.762 4.648 10.45 10.363 10.45.379 0 .746-.024 1.113-.06.145-.015.29-.023.434-.023zm0 0" fill="#3762cc"/><path d="M279.64 280.719H174.3a4 4 0 0 1-4-4v-6.692c0-.582.016-1.156.044-1.726l.023-.399c.035-.547.059-.933.094-1.316l.05-.488c.055-.52.094-.86.141-1.192l.106-.691c.047-.332.101-.66.164-.988.043-.227.09-.48.14-.73.055-.282.125-.595.196-.9l.172-.73c.074-.293.156-.582.234-.875.063-.234.129-.484.207-.738l.211-.668.066-.211.543-1.555c.172-.449.34-.875.52-1.3.16-.391.25-.598.34-.805l.676-1.426c.14-.277.273-.531.406-.785l.344-.64c.168-.301.32-.567.476-.833l.328-.547c.176-.289.34-.55.512-.812l.352-.535c.187-.278.367-.543.55-.801l.297-.41c.246-.34.446-.606.645-.863l.125-.165c5.484-7.039 13.468-11.914 22.207-13.617v-11.136a3.996 3.996 0 0 1 5.855-3.54c6.176 3.235 12.852 4.875 19.848 4.875 6.988 0 13.664-1.636 19.836-4.87a4.006 4.006 0 0 1 3.926.12 4.009 4.009 0 0 1 1.93 3.422v10.844c11.359 1.715 21.53 8.734 27.152 18.965.273.504.476.898.675 1.293l.13.27a25.506 25.506 0 0 1 .628 1.343c.211.488.375.867.528 1.25.015.035.093.235.105.274a37.156 37.156 0 0 1 1.203 3.625l.34 1.328.047.199.18.805c.058.289.109.554.16.828.05.281.105.582.152.883l.117.78c.043.333.086.665.125 1l.07.704c.04.379.063.758.087 1.14l-3.973.477 3.988-.277.024.398v.004c.027.578.043 1.16.043 1.746v6.696a4.002 4.002 0 0 1-4.004 3.992zm-101.34-8h97.34v-2.692c0-.468-.011-.93-.035-1.394l-.03-.488c-.02-.27-.04-.575-.063-.875l-.059-.54a21.5 21.5 0 0 0-.101-.804l-.786-3.805a29.838 29.838 0 0 0-.93-2.805s-.081-.218-.085-.222a37.18 37.18 0 0 0-.38-.91l3.54-1.891-3.652 1.633a28.205 28.205 0 0 0-.422-.899l-.11-.214a33.972 33.972 0 0 0-.484-.934c-4.934-8.977-14.2-14.785-24.258-15.262a4.162 4.162 0 0 1-1.746-.394 3.987 3.987 0 0 1-2.2-4.387l.013-7.54c-11.286 4.18-24.106 4.177-35.383-.007v7.414c.234 1.098.011 2.328-.637 3.242-.648.914-1.637 1.602-2.754 1.739l-.617.074c-7.844.847-15.09 4.898-19.938 11.125-.027.027-.046.058-.07.086l-.457.605-2.281 3.645-1.13 2.394c-.136.328-.272.664-.397 1l-1.102 3.625c-.09.395-.14.63-.188.864l-.109.57c-.05.262-.09.5-.129.738l-.086.582c-.035.266-.062.531-.094.797-.003.004-.023.207-.027.215l-.031.297a19.81 19.81 0 0 0-.063.898l-.02.278c-.034.636-.042 1.09-.042 1.546v2.696zm0 0" fill="#3762cc"/><path d="M260.441 148.8h24.493a3.28 3.28 0 0 0 3.277-3.28v-18.73c0-20.83-16.887-37.716-37.715-37.716h-1.168c-5.433 0-9.84 4.403-9.84 9.836v28.934c-.004 11.574 9.38 20.957 20.953 20.957zm0 0" fill="#4671c6"/><path d="M229.754 89.074h-24.676c-22.61 0-40.941 18.328-40.941 40.942v15.492a3.293 3.293 0 0 0 3.293 3.289h22.03c3.403 0 6.77-.602 9.95-1.805 5.942-2.246 14.797-7.004 20.125-16.449 0 0-4.305 12.633-7.597 16.879a.787.787 0 0 0 .695 1.27c15.094-1.286 26.949-13.946 26.949-29.376V98.898c0-5.425-4.398-9.824-9.828-9.824zm0 0" fill="#4671c6"/><path d="M284.93 152.8h-24.49c-13.757 0-24.957-11.195-24.957-24.952V98.914c0-7.629 6.211-13.84 13.84-13.84h1.168c23.004 0 41.715 18.715 41.715 41.715v18.73c.004 4.016-3.262 7.282-7.277 7.282zm-35.606-59.726a5.848 5.848 0 0 0-5.84 5.84v28.934c0 9.347 7.61 16.953 16.957 16.953h23.77v-18.012c0-18.59-15.125-33.715-33.715-33.715zm0 0" fill="#3762cc"/><path d="M189.465 152.8h-22.031c-4.024 0-7.293-3.273-7.293-7.292V130.02c0-24.786 20.16-44.946 44.941-44.946h24.676c7.62 0 13.824 6.203 13.824 13.828v20.418c0 17.246-13.445 31.899-30.613 33.36a4.783 4.783 0 0 1-4.617-2.485 4.744 4.744 0 0 1-.563-2.722 49 49 0 0 1-6.957 3.261 32.013 32.013 0 0 1-11.367 2.067zm-21.328-8h21.324c2.953 0 5.824-.519 8.539-1.546 5.668-2.145 13.402-6.434 18.05-14.672a4 4 0 1 1 7.27 3.258c-.3.89-2.21 6.422-4.511 11.422 9.793-3.602 16.77-13.098 16.77-23.942V98.902c0-3.21-2.614-5.828-5.825-5.828h-24.676c-20.367 0-36.941 16.574-36.941 36.946zm0 0" fill="#3762cc"/><path d="M272.41 148.8c.54 2.86.848 5.81.848 8.829v4.476c.101-.003.199-.015.297-.015 3.722 0 7.097 1.433 9.652 3.765v-17.054zm0 0" fill="#4671c6"/><path d="M283.207 169.855a4.01 4.01 0 0 1-2.703-1.046 10.271 10.271 0 0 0-6.95-2.72l-.179.013a4.08 4.08 0 0 1-2.906-1.13 4.008 4.008 0 0 1-1.211-2.867v-4.476c0-2.633-.262-5.352-.778-8.09a3.99 3.99 0 0 1 .856-3.293 3.98 3.98 0 0 1 3.074-1.445h10.793c2.207 0 4 1.793 4 4v17.054a4.008 4.008 0 0 1-2.387 3.665 4.005 4.005 0 0 1-1.609.335zm-5.95-11.386c.657.136 1.31.308 1.95.515v-6.183h-2.187c.16 1.625.238 3.238.238 4.828zm0 0" fill="#3762cc"/><path d="M169.43 148.8v16.798a14.226 14.226 0 0 1 9.363-3.508c.098 0 .195.012.297.015v-4.476c0-3.02.305-5.969.844-8.828zm0 0" fill="#4671c6"/><path d="M169.43 169.598a4.001 4.001 0 0 1-4-4V148.8a4 4 0 0 1 4-4h10.504a3.997 3.997 0 0 1 3.93 4.738 43.945 43.945 0 0 0-.774 8.09v4.476a4 4 0 0 1-1.211 2.868c-.777.754-1.856 1.148-2.906 1.129-.059 0-.243-.012-.297-.016-2.352.004-4.742.898-6.63 2.531a3.992 3.992 0 0 1-2.616.98zm4-16.797v6.094a18.46 18.46 0 0 1 1.66-.426v-.84c0-1.594.078-3.207.234-4.828zm-21.254 336.547h-148a4 4 0 0 1-4-4v-117.73c0-7.723 6.281-14 14-14h128c7.715 0 14 6.277 14 14v117.73c0 2.207-1.793 4-4 4zm-144-8h140v-113.73c0-3.31-2.696-6-6-6h-128c-3.309 0-6 2.69-6 6zm0 0" fill="#3762cc"/><path d="M300.176 489.348h-148a4 4 0 0 1-4-4v-198.63c0-7.718 6.281-14 14-14h128c7.715 0 14 6.282 14 14v198.63c0 2.207-1.793 4-4 4zm-144-8h140v-194.63c0-3.308-2.696-6-6-6h-128c-3.309 0-6 2.692-6 6zm0 0" fill="#3762cc"/><path d="M448.176 489.348h-148a4 4 0 0 1-4-4V329.766c0-7.72 6.281-14 14-14h128c7.715 0 14 6.28 14 14v155.582c0 2.207-1.793 4-4 4zm-144-8h140V329.766c0-3.309-2.696-6-6-6h-128c-3.309 0-6 2.691-6 6zm0 0" fill="#3762cc"/></svg>