<svg xmlns="http://www.w3.org/2000/svg" viewBox="0 0 512 512"><path d="M489.5 413.5h-46V251a7.5 7.5 0 0 0-7.5-7.5h-19.75c-4.142 0-7.5 3.357-7.5 7.5s3.358 7.5 7.5 7.5h12.25v155h-105v-155h60.75c4.142 0 7.5-3.357 7.5-7.5s-3.358-7.5-7.5-7.5H323.5V201a7.5 7.5 0 0 0-7.5-7.5h-12.7c.118-.819.2-1.649.2-2.5v-4c0-12.958-10.542-23.5-23.5-23.5h-16.5v-15.708c9.149-1.721 17.217-6.525 23.088-13.292h.622c20.562 0 37.29-16.729 37.29-37.29v-3.48c0-15.706-12.451-28.552-28-29.199V61a7.5 7.5 0 0 0-7.5-7.5h-66a7.5 7.5 0 0 0-7.5 7.5v3.531c-15.549.647-28 13.494-28 29.199v3.479c0 20.562 16.728 37.29 37.29 37.29h.622c5.871 6.767 13.939 11.572 23.088 13.292V163.5H232c-12.958 0-23.5 10.542-23.5 23.5v4c0 .851.082 1.681.2 2.5H196a7.5 7.5 0 0 0-7.5 7.5v54.667a7.5 7.5 0 0 0 7.5 7.5 7.5 7.5 0 0 0 7.5-7.5V208.5h105v205h-105V287.833a7.5 7.5 0 0 0-7.5-7.5 7.5 7.5 0 0 0-7.5 7.5V303.5H76a7.5 7.5 0 0 0-7.5 7.5v9a7.5 7.5 0 0 0 7.5 7.5 7.5 7.5 0 0 0 7.5-7.5v-1.5h105v95h-105V352a7.5 7.5 0 0 0-7.5-7.5 7.5 7.5 0 0 0-7.5 7.5v61.5h-46C10.093 413.5 0 423.594 0 436s10.093 22.5 22.5 22.5h467c12.407 0 22.5-10.094 22.5-22.5s-10.093-22.5-22.5-22.5zm-193-305.501V79.562c7.271.627 13 6.737 13 14.168v3.479c0 9.457-5.922 17.551-14.25 20.784a40.42 40.42 0 0 0 1.25-9.994zm-94-10.789v-3.48c0-7.432 5.728-13.542 13-14.168V108c0 3.448.436 6.796 1.25 9.994-8.328-3.233-14.25-11.327-14.25-20.784zm28 10.79V68.5h51V108c0 14.061-11.439 25.5-25.5 25.5s-25.5-11.439-25.5-25.5zm58 83c0 1.379-1.122 2.5-2.5 2.5h-60a2.503 2.503 0 0 1-2.5-2.5v-4c0-4.687 3.813-8.5 8.5-8.5h48c4.687 0 8.5 3.813 8.5 8.5v4zm201 252.5h-467c-4.136 0-7.5-3.364-7.5-7.5s3.364-7.5 7.5-7.5h467c4.136 0 7.5 3.364 7.5 7.5s-3.364 7.5-7.5 7.5z"/></svg>