<svg xmlns="http://www.w3.org/2000/svg" viewBox="0 0 54 54"><path d="M27 13c-7.72 0-14 6.28-14 14s6.28 14 14 14 14-6.28 14-14-6.28-14-14-14zm0 26c-6.617 0-12-5.383-12-12s5.383-12 12-12 12 5.383 12 12-5.383 12-12 12z"/><path d="M51.22 21h-2.018a22.792 22.792 0 0 0-2.26-5.457l1.426-1.426a2.763 2.763 0 0 0 .814-1.966c0-.743-.289-1.441-.814-1.967l-4.553-4.553c-1.05-1.049-2.881-1.051-3.933 0l-1.426 1.426A22.856 22.856 0 0 0 33 4.798V2.78A2.783 2.783 0 0 0 30.22 0h-6.44A2.783 2.783 0 0 0 21 2.78v2.018a22.842 22.842 0 0 0-5.457 2.26l-1.426-1.426c-1.051-1.052-2.883-1.05-3.933 0l-4.553 4.553a2.764 2.764 0 0 0-.814 1.967c0 .742.289 1.44.814 1.966l1.426 1.426A22.765 22.765 0 0 0 4.798 21H2.78A2.783 2.783 0 0 0 0 23.78v6.439A2.783 2.783 0 0 0 2.78 33h2.018a22.842 22.842 0 0 0 2.26 5.457l-1.426 1.426a2.763 2.763 0 0 0-.814 1.966c0 .743.289 1.441.814 1.967l4.553 4.553c1.05 1.051 2.882 1.052 3.933 0l1.426-1.426a22.883 22.883 0 0 0 5.457 2.26v2.018a2.783 2.783 0 0 0 2.78 2.78h6.439a2.783 2.783 0 0 0 2.78-2.78v-2.018a22.842 22.842 0 0 0 5.457-2.26l1.426 1.426c1.052 1.052 2.882 1.05 3.933 0l4.553-4.553a2.764 2.764 0 0 0 .814-1.967c0-.742-.289-1.44-.814-1.966l-1.426-1.426A22.883 22.883 0 0 0 49.203 33h2.018a2.783 2.783 0 0 0 2.78-2.78v-6.44A2.785 2.785 0 0 0 51.22 21zm.78 9.22c0 .43-.35.78-.78.78h-3.592l-.18.773a20.885 20.885 0 0 1-2.613 6.311l-.42.674 2.539 2.539a.78.78 0 0 1 0 1.104l-4.553 4.553a.78.78 0 0 1-1.104 0l-2.539-2.539-.674.42a20.839 20.839 0 0 1-6.311 2.613l-.773.18v3.592c0 .43-.35.78-.78.78h-6.44c-.43 0-.78-.35-.78-.78v-3.592l-.773-.18a20.885 20.885 0 0 1-6.311-2.613l-.674-.42-2.539 2.539a.78.78 0 0 1-1.104 0l-4.553-4.553a.78.78 0 0 1 0-1.104l2.539-2.539-.42-.674a20.839 20.839 0 0 1-2.613-6.311L6.372 31H2.78c-.43 0-.78-.35-.78-.78v-6.44c0-.43.35-.78.78-.78h3.592l.18-.773a20.864 20.864 0 0 1 2.613-6.311l.42-.674-2.539-2.539a.78.78 0 0 1 0-1.104l4.553-4.553a.78.78 0 0 1 1.104 0l2.539 2.539.674-.42a20.839 20.839 0 0 1 6.311-2.613l.773-.18V2.78c0-.43.35-.78.78-.78h6.439c.431 0 .781.35.781.78v3.592l.773.18a20.885 20.885 0 0 1 6.311 2.613l.674.42 2.539-2.539a.78.78 0 0 1 1.104 0l4.553 4.553a.78.78 0 0 1 0 1.104l-2.539 2.539.42.674a20.818 20.818 0 0 1 2.613 6.311l.18.773h3.592c.43 0 .78.35.78.78v6.44z"/><path d="M27 17c-5.514 0-10 4.486-10 10s4.486 10 10 10 10-4.486 10-10-4.486-10-10-10zm0 18c-4.411 0-8-3.589-8-8s3.589-8 8-8 8 3.589 8 8-3.589 8-8 8z"/></svg>