<svg xmlns="http://www.w3.org/2000/svg" viewBox="0 0 512 512"><path d="M282.524 7.887c-76.577.44-137.965 63.723-137.965 140.301v36.322h42.053v-36.615c0-53.25 42.52-97.436 95.768-97.952 53.769-.52 97.677 43.068 97.677 96.719v75.193c0 11.402 8.866 21.112 20.26 21.517 11.962.425 21.793-9.146 21.793-21.013v-75.696C422.111 69.87 359.417 7.446 282.524 7.887z" fill="#687f82"/><path d="M464.164 504.115H102.505V253.897c0-17.419 14.12-31.54 31.54-31.54h298.579c17.419 0 31.54 14.122 31.54 31.54v250.218z" fill="#4acfd9"/><g fill="#ffd1a9"><path d="M359.031 432.624c0-41.805-33.891-75.696-75.696-75.696s-75.696 33.891-75.696 75.696v42.053h151.392v-42.053z"/><circle cx="283.335" cy="298.053" r="46.259"/></g><path d="M134.045 222.357c-17.42 0-31.54 14.12-31.54 31.54v250.218h180.83V222.357h-149.29z" fill="#0295aa"/><path d="M207.639 432.624v42.053h75.696v-117.75c-41.807.001-75.696 33.892-75.696 75.697zm29.437-134.571c0 25.548 20.71 46.259 46.259 46.259v-92.517c-25.549 0-46.259 20.71-46.259 46.258z" fill="#ff8c29"/><path d="M422.111 390.045a7.885 7.885 0 0 1-7.885-7.885V277.027a7.885 7.885 0 0 1 7.885-7.885 7.885 7.885 0 0 1 7.885 7.885V382.16a7.885 7.885 0 0 1-7.885 7.885zm0 71.491a7.885 7.885 0 0 1-7.885-7.885v-42.053a7.885 7.885 0 0 1 7.885-7.885 7.885 7.885 0 0 1 7.885 7.885v42.053a7.885 7.885 0 0 1-7.885 7.885z" fill="#fff"/><path d="M80.546 191.075h-32.71c-4.355 0-7.885-3.53-7.885-7.885s3.53-7.885 7.885-7.885h32.71c4.355 0 7.885 3.53 7.885 7.885s-3.53 7.885-7.885 7.885zm9.132-26.763a7.857 7.857 0 0 1-5.575-2.31l-20.815-20.815c-3.079-3.079-3.079-8.072 0-11.152s8.072-3.079 11.15 0l20.815 20.815a7.887 7.887 0 0 1-5.575 13.462zm-21.027 74.341a7.857 7.857 0 0 1-5.575-2.31 7.884 7.884 0 0 1 0-11.15l20.815-20.815a7.884 7.884 0 1 1 11.15 11.15l-20.815 20.815a7.857 7.857 0 0 1-5.575 2.31z" fill="#f0353d"/><path d="M432.624 214.472h-2.628v-67.811c0-39.275-15.378-76.194-43.302-103.959C358.977 15.144 322.305 0 283.343 0l-.864.002C202.081.464 136.674 66.94 136.674 148.188v36.322a7.885 7.885 0 0 0 7.885 7.885h42.053a7.885 7.885 0 0 0 7.885-7.885v-36.615c0-49.193 39.459-89.597 87.96-90.067 23.882-.187 46.361 8.91 63.356 25.741 16.998 16.835 26.36 39.241 26.36 63.093v67.811H134.045c-21.74 0-39.425 17.686-39.425 39.425v250.218a7.885 7.885 0 0 0 7.885 7.885h361.659a7.885 7.885 0 0 0 7.885-7.885V253.897c0-21.739-17.685-39.425-39.425-39.425zM356.909 72.363c-20.009-19.816-46.504-30.609-74.605-30.305-57.113.554-103.577 48.031-103.577 105.836v28.73h-26.283v-28.437c0-72.602 58.374-132.003 130.126-132.416l.771-.002c34.765 0 67.497 13.519 92.235 38.115 24.924 24.782 38.651 57.731 38.651 92.776v67.811h-26.283V146.66c-.001-28.092-11.023-54.478-31.035-74.297zm99.37 423.867H110.39V253.897c0-13.044 10.611-23.655 23.655-23.655h298.579c13.044 0 23.655 10.611 23.655 23.655V496.23z"/><path d="M297.578 350.283c22.964-6.271 39.9-27.304 39.9-52.229 0-29.855-24.289-54.144-54.144-54.144-29.855 0-54.144 24.289-54.144 54.144 0 24.925 16.936 45.958 39.9 52.229-39.322 6.783-69.338 41.112-69.338 82.342v42.053a7.885 7.885 0 0 0 7.885 7.885h151.392a7.885 7.885 0 0 0 7.885-7.885v-42.053c.002-41.23-30.014-75.559-69.336-82.342zm-52.617-52.23c0-21.159 17.215-38.374 38.374-38.374s38.374 17.215 38.374 38.374c0 21.159-17.215 38.374-38.374 38.374s-38.374-17.214-38.374-38.374zm106.185 168.74H215.524v-34.168c0-37.391 30.42-67.811 67.811-67.811s67.811 30.42 67.811 67.811v34.168z"/></svg>