<svg height="496pt" viewBox="0 0 496 496.087" width="496pt" xmlns="http://www.w3.org/2000/svg"><linearGradient id="a" gradientUnits="userSpaceOnUse" x1="248.041" x2="248.041" y1="496.087" y2=".003"><stop offset="0" stop-color="#9f2fff"/><stop offset="1" stop-color="#0bb1d3"/></linearGradient><path d="M201.402 128.129h-34.617l32.735 223.957h-7.477c-13.234 0-24 10.77-24 24v24h160v-24c0-13.23-10.77-24-24-24h-7.48l32.734-223.957H294.68c-.094-5.211-1.368-11.066-2.672-16.86-1.094-4.832-2.91-12.91-2.613-14.527 1.566-1.597 9.007-3.894 13.453-5.262 11.808-3.64 25.195-7.77 25.195-19.394 0-11.613-13.387-15.742-25.195-19.383-4.446-1.367-11.88-3.664-13.055-4.61-.695-2.277 1.129-10.359 2.215-15.19 2.824-12.52 5.746-25.465-3.887-31.137-9.543-5.606-19.023 3.28-28.176 11.906-3.664 3.457-9.8 9.23-11.617 9.742-2.383-.512-8.512-6.293-12.176-9.742C227 5.047 217.527-3.863 207.984 1.758c-9.64 5.672-6.718 18.625-3.894 31.144 1.094 4.832 2.91 12.914 2.613 14.528-1.566 1.601-9.008 3.898-13.453 5.265-11.824 3.64-25.207 7.77-25.207 19.39 0 11.618 13.383 15.747 25.191 19.388 4.446 1.367 11.88 3.664 13.055 4.605.695 2.281-1.129 10.36-2.215 15.192-1.304 5.793-2.578 11.64-2.672 16.859zm70.032 16L256.25 352.086h-13.656l-17.832-207.957zm-86.137 0h23.406l17.832 207.957h-10.848zm126.746 231.957v8h-128v-8c0-4.406 3.582-8 8-8h112c4.414 0 8 3.594 8 8zm-31.648-24h-8.114l15.184-207.957h23.312zm-41.723-223.957c3.488-3.25 7.64-6.969 9.082-7.371 1.887.41 6.137 4.129 9.64 7.37zm-40.727-51.945c-3.425-1.055-8.496-2.625-11.703-4.098 3.2-1.48 8.278-3.04 11.711-4.102 10.016-3.09 18.672-5.761 22.383-12.28 3.785-6.65 1.625-16.208-.656-26.329-.696-3.098-1.696-7.512-2.153-10.91 2.504 2.015 5.516 4.847 7.633 6.847 7.695 7.247 14.945 14.086 22.883 14.086 7.926 0 15.184-6.84 22.871-14.086 2.117-2 5.129-4.832 7.633-6.84-.457 3.4-1.457 7.817-2.152 10.91-2.282 10.122-4.442 19.673-.657 26.329 3.711 6.52 12.367 9.184 22.39 12.281 3.427 1.055 8.505 2.613 11.712 4.094-3.2 1.48-8.278 3.043-11.711 4.105-10.016 3.086-18.672 5.762-22.383 12.282-3.785 6.648-1.625 16.207.656 26.328.696 3.094 1.696 7.511 2.153 10.91-2.504-2.016-5.512-4.848-7.633-6.848-7.688-7.238-14.938-14.09-22.871-14.09-7.93 0-15.188 6.844-22.875 14.09-2.117 2-5.125 4.832-7.63 6.84.454-3.398 1.454-7.816 2.15-10.91 2.28-10.121 4.44-19.672.656-26.328-3.727-6.524-12.383-9.188-22.407-12.281zm50.098 19.902c13.23 0 24-10.766 24-24 0-13.23-10.77-24-24-24-13.234 0-24 10.77-24 24 0 13.234 10.766 24 24 24zm0-32c4.414 0 8 3.594 8 8 0 4.41-3.586 8-8 8-4.418 0-8-3.59-8-8 0-4.406 3.582-8 8-8zM9.602 350.703l-7.551 2.633 13.168 37.766c5.093 14.609 15.68 25.746 28.629 31.968-1.313.977-2.606 1.985-3.848 3.098l-5.977 5.328 26.618 29.856c11.046 12.39 26.41 18.703 41.832 18.703 10.726 0 21.418-3.215 30.77-9.407l.495.559 1.848-1.648c18.934 9.77 59.137 26.527 112.457 26.527 53.316 0 93.52-16.758 112.453-26.52l1.848 1.649.496-.559c9.36 6.192 20.035 9.406 30.762 9.406 15.43 0 30.793-6.32 41.832-18.703l26.617-29.855-5.977-5.328c-1.242-1.106-2.539-2.121-3.847-3.098 12.949-6.23 23.535-17.36 28.628-31.969l13.168-37.765-7.55-2.633c-1.559-.543-3.137-.977-4.711-1.375 9.566-10.711 15.062-25.066 14.175-40.504l-2.28-39.945-7.993.457c-1.64.093-3.246.297-4.84.527l.024-.047c4.93-14.129 4.058-29.328-2.453-42.793L461 191.016l-7.2 3.48c-1.48.711-2.894 1.512-4.28 2.344v-.055c-.856-14.937-7.477-28.64-18.637-38.594l-29.86-26.625-5.32 5.977c-13.558 15.207-17.223 35.809-11.566 53.984-4.48-.855-9.07-1.222-13.719-.968-14.938.855-28.64 7.48-38.594 18.64l-5.328 5.977 29.856 26.625c2.32 2.062 4.847 3.847 7.449 5.496l13.754 28.476c1.351 2.801 3 5.41 4.765 7.922l1.817 31.567c.175 3.105.695 6.144 1.375 9.144l-10.407 29.856c-1.015 2.93-1.703 5.945-2.23 8.992l-21.035 23.594c-9.95 11.168-14.965 25.535-14.11 40.472.637 11.086 4.461 21.489 10.95 30.184-18.993 9.062-54.88 22.582-100.637 22.582-45.762 0-81.648-13.52-100.64-22.606 6.488-8.707 10.312-19.105 10.949-30.183.859-14.938-4.16-29.313-14.11-40.473L123.2 363.223c-.52-3.032-1.207-6.04-2.222-8.985l-10.407-29.855c.68-3.016 1.2-6.063 1.375-9.153l1.817-31.558c1.773-2.512 3.414-5.129 4.773-7.93l13.746-28.465c2.61-1.644 5.137-3.43 7.465-5.504l29.848-26.62-5.328-5.977c-9.954-11.168-23.657-17.785-38.594-18.64-4.64-.259-9.238.112-13.719.968 5.656-18.168 1.992-38.777-11.566-53.984l-5.32-5.977-29.848 26.625c-11.168 9.953-17.793 23.664-18.649 38.59v.05c-1.402-.816-2.816-1.609-4.289-2.32l-7.199-3.48-17.395 36.015c-6.503 13.473-7.382 28.665-2.453 42.793l.024.047c-1.594-.23-3.2-.433-4.84-.527l-7.992-.45-2.29 39.938c-.886 15.438 4.61 29.793 14.176 40.504-1.574.39-3.144.832-4.71 1.375zm418.101-81.48c.012.015.012.023.02.039l13.14 27.218c-.55.918-1.031 1.887-1.535 2.84-2.558-3.761-5.543-7.265-9.031-10.379-9.711-8.664-21.793-13.582-34.664-14.14-1.375-1.906-2.649-3.89-3.688-6.028l-10.09-20.894c7.54-1.945 15.497-1.61 23.02 1.008 10.07 3.52 18.176 10.738 22.828 20.336zm6.992 89.41c-.863.637-1.68 1.344-2.504 2.031-.925-4.457-2.343-8.84-4.375-13.039-5.656-11.715-14.992-20.89-26.617-26.32-.543-2.29-.957-4.61-1.101-6.992l-1.328-23.16c7.71 1.1 14.925 4.437 20.87 9.734 7.977 7.113 12.704 16.906 13.32 27.57l.083 1.438zm-31.62 42.246c-.747-12.984-5.856-25.031-14.52-34.504.375-2.328.879-4.64 1.664-6.871l7.629-21.914c6.715 3.969 12.105 9.816 15.57 16.992 4.648 9.617 5.262 20.473 1.75 30.563l-9.95 28.535c-1.042.254-2.066.597-3.09.918.84-4.47 1.208-9.055.946-13.72zm20.429 49.824c-12.863 14.426-33.895 17.313-49.977 7.961l15.434-17.312c12.848-14.41 33.863-17.336 49.969-7.961zm42.25-64.863c-5.938 17.031-22.313 27.406-39.457 26.656-1.2-.16-2.406-.234-3.617-.312l7.593-21.778c4.008-11.472 12.758-19.96 23.274-24.07a57.039 57.039 0 0 0 5.574-1.688c4.617-1.074 9.434-1.378 14.274-.714zm12.887-99.266l1.336 23.16c1.03 18.082-10.239 33.961-26.473 39.809-1.094.297-2.168.664-3.238 1.023l-1.328-23.023c-.688-12.055 4.054-23.184 12.105-31 1.805-1.32 3.543-2.719 5.168-4.238a39.711 39.711 0 0 1 12.43-5.73zm-24.743-73.48l10.086 20.89c4.649 9.621 5.274 20.48 1.762 30.567-2.144 6.152-5.738 11.511-10.344 15.855-1.12.84-2.183 1.746-3.242 2.664l-10.023-20.757-.032-.06c-5.222-10.862-5.09-22.948-.632-33.237a55.88 55.88 0 0 0 3.113-5.817 39.694 39.694 0 0 1 9.312-10.105zm-50.984-58.414l17.313 15.441c13.511 12.047 16.765 31.246 9.421 46.856-.566.984-1.062 2-1.566 3.015l-17.207-15.344c-14.418-12.855-17.32-33.89-7.96-49.968zm-30.21 79.312c-2-1.234-3.934-2.586-5.712-4.16l-17.32-15.441c6.226-4.672 13.695-7.414 21.648-7.871 10.618-.567 20.93 2.968 28.907 10.078l22.558 20.113c-.16 1.062-.23 2.137-.336 3.207-3.808-2.496-7.902-4.59-12.312-6.125-12.297-4.29-25.375-4.188-37.434.2zm-8.927 163.48l15.45-17.327c4.671 6.23 7.421 13.695 7.87 21.656.618 10.664-2.96 20.933-10.074 28.902l-15.445 17.32c-4.672-6.23-7.426-13.695-7.875-21.648-.613-10.664 2.961-20.938 10.074-28.902zm-333.449-11.64l-7.64-21.898c4.832-.664 9.656-.352 14.273.714a57.038 57.038 0 0 0 5.574 1.688c10.516 4.11 19.274 12.598 23.274 24.07l4.418 12.649 3.183 9.129c-1.12.078-2.242.144-3.36.289-17.218.84-33.76-9.532-39.722-26.641zm24.89-89.352l13.134-27.218c4.648-9.621 12.77-16.856 22.847-20.375 7.524-2.625 15.473-2.946 23.02-1.008l-10.082 20.879c-1.04 2.144-2.32 4.129-3.688 6.035-12.887.55-24.96 5.484-34.664 14.14-3.488 3.106-6.473 6.618-9.031 10.38-.504-.946-.984-1.915-1.535-2.833zm35.657 117.207l-9.953-28.535c-3.512-10.09-2.899-20.945 1.75-30.562 3.473-7.176 8.855-13.024 15.57-16.992l7.633 21.906c.781 2.254 1.285 4.566 1.652 6.879-8.664 9.472-13.765 21.52-14.52 34.504-.269 4.664.106 9.258.954 13.73-1.031-.328-2.047-.676-3.086-.93zm-14.441-112.8c5.945-5.305 13.168-8.64 20.87-9.735l-1.327 23.168c-.137 2.36-.551 4.68-1.102 6.977-11.625 5.437-20.96 14.605-26.617 26.32-2.031 4.207-3.45 8.582-4.375 13.04-.824-.688-1.64-1.395-2.504-2.032l1.726-30.18c.625-10.652 5.352-20.445 13.329-27.558zm-3.856 149.816l-15.433-17.312c16.082-9.36 37.113-6.465 49.968 7.96l15.442 17.32c-16.082 9.352-37.114 6.45-49.977-7.968zm69.8-24.328c-.456 7.953-3.202 15.426-7.874 21.648l-15.445-17.32c-7.114-7.976-10.692-18.238-10.075-28.902.457-7.953 3.2-15.426 7.871-21.656l15.45 17.328c7.113 7.965 10.687 18.238 10.074 28.902zm-17.616-219.863c7.953.457 15.422 3.199 21.648 7.87l-17.32 15.45c-1.77 1.582-3.703 2.926-5.711 4.16-12.059-4.375-25.145-4.488-37.442-.207-4.39 1.535-8.48 3.621-12.28 6.102-.095-1.07-.184-2.137-.345-3.2l22.543-20.097c7.977-7.11 18.282-10.656 28.907-10.078zm-48.899-36.39l17.305-15.442c9.36 16.078 6.465 37.113-7.95 49.968l-17.195 15.329c-.574-1.16-1.148-2.329-1.796-3.442-7.082-15.535-3.762-34.48 9.636-46.414zM30.336 264.55c-3.512-10.086-2.887-20.946 1.762-30.567l10.093-20.898c3.817 2.898 6.977 6.504 9.524 10.562a56.283 56.283 0 0 0 2.637 4.957c.464 1.043.976 2.051 1.351 3.137 3.516 10.09 2.89 20.946-1.758 30.563l-10.023 20.758c-1.059-.918-2.129-1.825-3.25-2.672-4.606-4.336-8.192-9.696-10.336-15.84zm4.707 31.992c8.047 7.816 12.789 18.945 12.102 31l-1.329 23.023c-1.039-.351-2.078-.703-3.144-1-16.277-5.816-27.606-21.718-26.567-39.832l1.336-23.16a39.773 39.773 0 0 1 12.434 5.73c1.621 1.52 3.352 2.919 5.168 4.239zm0 0" fill="url(#a)"/></svg>