<svg xmlns="http://www.w3.org/2000/svg" version="1.1" id="Layer_1" x="0" y="0" viewBox="0 0 256 256" xml:space="preserve" width="512" height="512"><style>.st0{fill:#ff4397}.st1{fill:#e12579}.st2{fill:#ff61b5}.st3{fill:#690589}.st5{fill:#7bac51}.st6{fill:#5d8e33}.st7{fill:#99ca6f}.st9{fill:#f4efed}.st12{fill:#d6d1cf}</style><path fill="#fcc24c" d="M128 25.301L161.226 4l18.124 35.06 39.424-1.834-1.834 39.424L252 94.774 230.699 128 252 161.226l-35.06 18.124 1.834 39.424-39.424-1.834L161.226 252 128 230.699 94.774 252 76.65 216.94l-39.424 1.834 1.834-39.424L4 161.226 25.301 128 4 94.774 39.06 76.65l-1.834-39.424L76.65 39.06 94.774 4z"/><path class="st3" d="M161.226 254c-.379 0-.754-.108-1.079-.316L128 233.075l-32.146 20.609a1.998 1.998 0 0 1-2.856-.765l-17.535-33.92-38.144 1.774a2 2 0 0 1-2.091-2.091l1.774-38.144-33.92-17.535a2 2 0 0 1-.765-2.856L22.925 128 2.316 95.854a2.002 2.002 0 0 1 .765-2.856l33.92-17.535-1.774-38.144a2 2 0 0 1 2.091-2.091l38.144 1.774 17.535-33.92a2 2 0 0 1 2.856-.765L128 22.925l32.146-20.609a1.998 1.998 0 0 1 2.856.765l17.535 33.92 38.145-1.774a2.003 2.003 0 0 1 2.091 2.091l-1.774 38.144 33.92 17.535a1.998 1.998 0 0 1 .766 2.856L233.075 128l20.608 32.146a1.998 1.998 0 0 1-.766 2.856l-33.92 17.535 1.774 38.144a2 2 0 0 1-2.091 2.091l-38.145-1.774L163 252.918a1.995 1.995 0 0 1-1.774 1.082zM128 228.699c.375 0 .75.105 1.079.316l31.378 20.116 17.116-33.109a1.984 1.984 0 0 1 1.869-1.08l37.232 1.732-1.732-37.232a2.003 2.003 0 0 1 1.08-1.87l33.109-17.116-20.116-31.377a2 2 0 0 1 0-2.159l20.116-31.377-33.109-17.116a2.002 2.002 0 0 1-1.08-1.87l1.732-37.232-37.232 1.732a1.975 1.975 0 0 1-1.869-1.08L160.457 6.869l-31.378 20.116a2 2 0 0 1-2.159 0L95.543 6.869 78.427 39.978a2 2 0 0 1-1.87 1.08l-37.232-1.732 1.732 37.232a2 2 0 0 1-1.08 1.87L6.869 95.543l20.116 31.377a2 2 0 0 1 0 2.159L6.869 160.457l33.109 17.116a2.002 2.002 0 0 1 1.08 1.87l-1.732 37.232 37.232-1.732a2.006 2.006 0 0 1 1.87 1.08l17.116 33.109 31.377-20.116a1.997 1.997 0 0 1 1.079-.317z"/><path class="st3" d="M24.015 95.153a2 2 0 0 1-.92-3.777l15.41-7.966a2 2 0 0 1 1.837 3.553l-15.41 7.966a1.992 1.992 0 0 1-.917.224z"/><path class="st9" d="M96.988 161.251l-21.282-21.283L177.46 32.626l28.113-1.242-1.242 28.113z"/><path class="st12" d="M204.97 45.035L90.138 154.401l6.85 6.85L204.331 59.497z"/><path class="st0" d="M49.648 219.142l-2.817 2.817a5.912 5.912 0 0 1-8.361 0l-25.172-25.172a5.912 5.912 0 0 1 0-8.361l2.817-2.817a5.912 5.912 0 0 1 8.361 0l25.172 25.172a5.912 5.912 0 0 1 0 8.361zm47.891-27.533l-52.191-52.191a7.882 7.882 0 0 1 0-11.147l3.756-3.756a7.882 7.882 0 0 1 11.147 0l52.191 52.191a7.882 7.882 0 0 1 0 11.147l-3.756 3.756a7.882 7.882 0 0 1-11.147 0z"/><path class="st1" d="M112.617 176.879l-6.85-6.85a7.636 7.636 0 0 1 0 10.799l-4.104 4.104a7.636 7.636 0 0 1-10.799 0l6.85 6.85a7.636 7.636 0 0 0 10.799 0l4.104-4.104a7.636 7.636 0 0 0 0-10.799z"/><path class="st2" d="M60.077 124.34l6.85 6.85a7.636 7.636 0 0 0-10.799 0l-4.104 4.104a7.636 7.636 0 0 0 0 10.799l-6.85-6.85a7.636 7.636 0 0 1 0-10.799l4.104-4.104a7.636 7.636 0 0 1 10.799 0z"/><path transform="rotate(-45.001 54.676 182.281)" class="st5" d="M30.967 174.375h47.422v15.807H30.967z"/><circle class="st5" cx="78.895" cy="158.061" r="10.538"/><path class="st1" d="M50.628 211.762l-6.85-6.85a5.726 5.726 0 0 1 0 8.099l-3.078 3.078a5.726 5.726 0 0 1-8.099 0l6.85 6.85a5.726 5.726 0 0 0 8.099 0l3.078-3.078a5.727 5.727 0 0 0 0-8.099z"/><path class="st2" d="M24.345 185.479l6.85 6.85a5.727 5.727 0 0 0-8.099 0l-3.078 3.078a5.726 5.726 0 0 0 0 8.099l-6.85-6.85a5.728 5.728 0 0 1 0-8.099l3.078-3.078a5.727 5.727 0 0 1 8.099 0z"/><path class="st3" d="M96.988 163.25a1.995 1.995 0 0 1-1.414-.586l-21.282-21.282a2 2 0 0 1-.038-2.79L176.009 31.25a2 2 0 0 1 1.363-.622l28.113-1.242a2 2 0 0 1 2.086 2.086l-1.242 28.113a1.997 1.997 0 0 1-.622 1.363L98.364 162.702a1.993 1.993 0 0 1-1.376.548zm-18.491-23.319l18.528 18.528 105.344-99.858 1.109-25.123-25.123 1.11-99.858 105.343z"/><path class="st3" d="M103.113 195.917a9.815 9.815 0 0 1-6.988-2.895l-52.191-52.191c-3.853-3.853-3.853-10.122 0-13.976l3.756-3.756c3.852-3.853 10.122-3.854 13.976 0l52.191 52.192c3.853 3.854 3.853 10.123 0 13.976l-3.756 3.756a9.818 9.818 0 0 1-6.988 2.894zm-48.435-71.709a5.865 5.865 0 0 0-4.16 1.72l-3.756 3.756a5.89 5.89 0 0 0 0 8.319l52.191 52.191c1.111 1.111 2.588 1.723 4.159 1.723s3.048-.612 4.159-1.723l3.756-3.756a5.89 5.89 0 0 0 0-8.319l-52.191-52.191a5.859 5.859 0 0 0-4.158-1.72z"/><path class="st3" d="M43.5 206.634a1.99 1.99 0 0 1-1.414-.586l-11.177-11.177a2 2 0 0 1 0-2.828l33.532-33.532a2 2 0 0 1 2.828 0l11.178 11.177a2 2 0 0 1 0 2.828l-33.533 33.532c-.391.39-.902.586-1.414.586zm-8.349-13.177l8.349 8.349 30.704-30.704-8.349-8.349-30.704 30.704z"/><path class="st3" d="M43.5 226.536a7.887 7.887 0 0 1-5.594-2.313l-25.172-25.172c-3.084-3.084-3.085-8.104 0-11.189l2.817-2.817c3.085-3.085 8.104-3.084 11.189 0l25.172 25.172c3.084 3.085 3.084 8.104 0 11.189l-2.817 2.817a7.89 7.89 0 0 1-5.595 2.313zm-22.354-39.807a3.9 3.9 0 0 0-2.767 1.144l-2.817 2.816a3.918 3.918 0 0 0 0 5.533l25.172 25.172a3.919 3.919 0 0 0 5.533 0l2.816-2.816a3.918 3.918 0 0 0 0-5.533l-25.171-25.172a3.904 3.904 0 0 0-2.766-1.144zm29.352 33.263h.01-.01zM78.896 170.6a12.453 12.453 0 0 1-8.866-3.673c-2.369-2.368-3.673-5.517-3.673-8.866s1.304-6.498 3.673-8.866c4.887-4.889 12.842-4.889 17.731 0 4.889 4.889 4.889 12.843 0 17.731a12.452 12.452 0 0 1-8.865 3.674zm0-21.073a8.511 8.511 0 0 0-6.038 2.497 8.482 8.482 0 0 0-2.501 6.038c0 2.281.888 4.425 2.501 6.038s3.757 2.501 6.038 2.501c2.28 0 4.425-.888 6.038-2.501 3.329-3.329 3.329-8.746 0-12.075a8.51 8.51 0 0 0-6.038-2.498z"/><path class="st3" d="M86.533 152.796a2 2 0 0 1-1.414-3.414L204.346 30.156a2 2 0 1 1 2.828 2.828L87.947 152.21a1.99 1.99 0 0 1-1.414.586zM66.554 183.58a1.992 1.992 0 0 1-1.414-.586l-11.178-11.177a2 2 0 1 1 2.828-2.828l11.178 11.177a2 2 0 0 1-1.414 3.414zm-11.876 11.877a1.99 1.99 0 0 1-1.414-.586l-11.178-11.178a2 2 0 1 1 2.828-2.828l11.178 11.178a2 2 0 0 1-1.414 3.414z"/><path class="st9" d="M180.626 139.637l-21.283 21.282L52 59.165l-1.242-28.113 28.113 1.242z"/><path class="st12" d="M64.41 31.655l109.366 114.832 6.85-6.85L78.871 32.294z"/><path class="st5" d="M238.517 186.977l2.817 2.817a5.912 5.912 0 0 1 0 8.361l-25.172 25.172a5.912 5.912 0 0 1-8.361 0l-2.817-2.817a5.912 5.912 0 0 1 0-8.361l25.172-25.172a5.912 5.912 0 0 1 8.361 0zm-27.534-47.892l-52.191 52.191a7.882 7.882 0 0 1-11.147 0l-3.756-3.756a7.882 7.882 0 0 1 0-11.147l52.191-52.191a7.882 7.882 0 0 1 11.147 0l3.756 3.756a7.88 7.88 0 0 1 0 11.147z"/><path class="st6" d="M196.254 124.008l-6.85 6.85a7.636 7.636 0 0 1 10.799 0l4.104 4.104a7.636 7.636 0 0 1 0 10.799l6.85-6.85a7.636 7.636 0 0 0 0-10.799l-4.104-4.104a7.636 7.636 0 0 0-10.799 0z"/><path class="st7" d="M143.715 176.548l6.85-6.85a7.636 7.636 0 0 0 0 10.799l4.104 4.104a7.636 7.636 0 0 0 10.799 0l-6.85 6.85a7.636 7.636 0 0 1-10.799 0l-4.104-4.104a7.636 7.636 0 0 1 0-10.799z"/><path transform="rotate(-45.001 201.653 181.95)" class="st0" d="M193.75 158.236h15.807v47.422H193.75z"/><circle class="st0" cx="177.436" cy="157.73" r="10.538"/><path class="st6" d="M231.137 185.997l-6.85 6.85a5.726 5.726 0 0 1 8.099 0l3.078 3.078a5.726 5.726 0 0 1 0 8.099l6.85-6.85a5.728 5.728 0 0 0 0-8.099l-3.078-3.078a5.726 5.726 0 0 0-8.099 0z"/><path class="st7" d="M204.854 212.279l6.85-6.85a5.727 5.727 0 0 0 0 8.099l3.078 3.078a5.726 5.726 0 0 0 8.099 0l-6.85 6.85a5.726 5.726 0 0 1-8.099 0l-3.078-3.078a5.727 5.727 0 0 1 0-8.099z"/><path class="st3" d="M159.344 162.919c-.495 0-.989-.182-1.376-.548L50.625 60.617a2.003 2.003 0 0 1-.622-1.363L48.76 31.14a1.996 1.996 0 0 1 .584-1.502 1.968 1.968 0 0 1 1.502-.584l28.113 1.242a2.001 2.001 0 0 1 1.363.622l101.754 107.343a2 2 0 0 1-.037 2.79l-21.282 21.282a1.99 1.99 0 0 1-1.413.586zM53.963 58.27l105.344 99.858 18.528-18.528L77.976 34.256l-25.123-1.11 1.11 25.124z"/><path class="st3" d="M153.218 195.585a9.813 9.813 0 0 1-6.987-2.895l-3.756-3.756a9.82 9.82 0 0 1-2.895-6.988 9.815 9.815 0 0 1 2.895-6.988l52.191-52.191c3.853-3.853 10.121-3.854 13.976 0l3.756 3.756c3.854 3.853 3.854 10.123 0 13.976l-52.191 52.191a9.815 9.815 0 0 1-6.989 2.895zm48.436-71.709a5.866 5.866 0 0 0-4.16 1.72l-52.191 52.191c-1.11 1.111-1.723 2.588-1.723 4.16s.612 3.048 1.723 4.16l3.756 3.756a5.891 5.891 0 0 0 8.319 0l52.191-52.191c1.11-1.111 1.723-2.588 1.723-4.16s-.612-3.048-1.723-4.16l-3.756-3.756a5.865 5.865 0 0 0-4.159-1.72z"/><path class="st3" d="M212.831 206.302a1.992 1.992 0 0 1-1.414-.586l-33.532-33.532a2 2 0 0 1 0-2.828l11.178-11.178c.75-.75 2.078-.75 2.828 0l33.532 33.533a2 2 0 0 1 0 2.828l-11.178 11.177a1.992 1.992 0 0 1-1.414.586zm-30.704-35.532l30.704 30.704 8.35-8.349-30.704-30.704-8.35 8.349z"/><path class="st3" d="M212.831 226.208c-2.113 0-4.1-.823-5.594-2.318l-2.817-2.816c-3.085-3.085-3.085-8.104 0-11.189l25.172-25.172c3.083-3.084 8.104-3.085 11.188 0l2.817 2.816c3.084 3.085 3.084 8.104 0 11.189l-25.172 25.171a7.85 7.85 0 0 1-5.594 2.319zm22.355-39.81a3.9 3.9 0 0 0-2.766 1.144l-25.172 25.172a3.916 3.916 0 0 0 0 5.532l2.817 2.816c1.479 1.479 4.054 1.477 5.532 0l25.172-25.171a3.92 3.92 0 0 0 0-5.533l-2.817-2.816a3.898 3.898 0 0 0-2.766-1.144zm-57.749-16.13c-3.35 0-6.498-1.304-8.866-3.673-4.889-4.888-4.889-12.843 0-17.731 4.888-4.888 12.842-4.889 17.731 0 4.889 4.889 4.889 12.843 0 17.731a12.453 12.453 0 0 1-8.865 3.673zm0-21.073a8.511 8.511 0 0 0-6.038 2.497c-3.329 3.33-3.329 8.746 0 12.075a8.48 8.48 0 0 0 6.038 2.501 8.48 8.48 0 0 0 6.037-2.501c3.329-3.329 3.329-8.746 0-12.075a8.512 8.512 0 0 0-6.037-2.497z"/><path class="st3" d="M170.171 152.092a1.992 1.992 0 0 1-1.414-.586L49.531 32.28a2 2 0 1 1 2.828-2.828l119.226 119.226a2 2 0 0 1-1.414 3.414zm19.606 31.157a2 2 0 0 1-1.414-3.414l11.178-11.178a2 2 0 1 1 2.828 2.828l-11.178 11.178a1.99 1.99 0 0 1-1.414.586zm11.877 11.876a2 2 0 0 1-1.414-3.414l11.177-11.178a2 2 0 1 1 2.828 2.828l-11.177 11.178a1.99 1.99 0 0 1-1.414.586z"/></svg>