<svg xmlns="http://www.w3.org/2000/svg" width="512" height="512" viewBox="0 0 60 60"><g transform="translate(-1)" fill="none"><path fill="#FEC108" d="M29 21h4v15h-4z"/><path d="M35 36.45L34 38l-3 2-3-2-.89-1.55a.956.956 0 0 1 0-.9l.6-1.05a1 1 0 0 1 .87-.5h4.87c.343 0 .663.173.85.46l.7 1.09c.14.284.14.616 0 .9z" fill="#F57C00"/><path d="M39 43.59V46H23v-2.41a3.325 3.325 0 0 1 2.52-3.22A3.247 3.247 0 0 0 27.46 39a2 2 0 0 0 .22-.37L28 38h6l.32.63a3.287 3.287 0 0 0 2.16 1.74c.72.183 1.36.597 1.82 1.18.453.584.7 1.301.7 2.04z" fill="#FEC108"/><path d="M36 44.59V46H23v-2.41a3.325 3.325 0 0 1 2.52-3.22A3.247 3.247 0 0 0 27.46 39H31l.32.63a3.287 3.287 0 0 0 2.16 1.74c.72.183 1.36.597 1.82 1.18.453.584.7 1.301.7 2.04z" fill="#FFDC00"/><path d="M21.36 37.1c-.39 2.27-1.34 3.8-2.56 4.5a.744.744 0 0 1-.9-.17.9.9 0 0 1-.15-.19c-.05-.07-.1-.13-.15-.2a6.538 6.538 0 0 1-.34-.59 7 7 0 0 1-.36-4.47 5.762 5.762 0 0 1 1.9-3.45c.27-.22.569-.398.89-.53a.768.768 0 0 1 .88.24 6 6 0 0 1 .79 4.86z" fill="#549414"/><path d="M17.88 42.4c-.85 1.12-2.46 1.91-4.88 1.53a6.365 6.365 0 0 1-4.8-3.3 1.019 1.019 0 0 1 .05-1.11c.93-.99 2.48-1.3 4.78-.8a7.991 7.991 0 0 1 4.82 2.66c.233.296.246.71.03 1.02zm-4.79-7.03c-.92.91-2.51 1.38-4.69.56a6.613 6.613 0 0 1-4.01-4.09 1.044 1.044 0 0 1 .19-1.07c.96-.78 2.41-.79 4.46.14a8.321 8.321 0 0 1 4.13 3.47c0 .006.004.01.01.01a.852.852 0 0 1-.09.98z" fill="#60A917"/><path d="M13.44 23.92a7.5 7.5 0 0 1-.92 1.66 4.33 4.33 0 0 1-.99 1.01 2.719 2.719 0 0 1-1.17.5.711.711 0 0 1-.69-.42 7.33 7.33 0 0 1-.17-.5.161.161 0 0 1-.03-.09 1.18 1.18 0 0 1-.04-.2 7.229 7.229 0 0 1 .61-4.63 5.154 5.154 0 0 1 1.64-2.15 2.539 2.539 0 0 1 1.48-.52c.309.033.567.25.65.55a6.681 6.681 0 0 1-.37 4.79z" fill="#549414"/><path d="M9.43 27.49c-.95.71-2.46.85-4.33-.37a6.919 6.919 0 0 1-3.08-4.78.993.993 0 0 1 .31-1c.96-.58 2.26-.3 3.98 1.01a9.13 9.13 0 0 1 3.31 4.2.84.84 0 0 1-.19.94z" fill="#60A917"/><path d="M16.91 30.92a6.906 6.906 0 0 1-.36 1l-.01.01a5.294 5.294 0 0 1-1.57 2.28.035.035 0 0 0-.01.02 3.179 3.179 0 0 1-.92.53.747.747 0 0 1-.86-.37c0-.01-.01-.03-.01-.04-.05-.1-.11-.19-.16-.29a4.031 4.031 0 0 1-.21-.52 6.994 6.994 0 0 1 .11-4.55 5.474 5.474 0 0 1 1.83-2.78 3.128 3.128 0 0 1 1.19-.55.76.76 0 0 1 .78.4 6.31 6.31 0 0 1 .2 4.86z" fill="#549414"/><path d="M16.54 31.93a5.294 5.294 0 0 1-1.57 2.28 4.963 4.963 0 0 1 1.57-2.28z" fill="#549414"/><path d="M19.8 36.07A7.016 7.016 0 0 1 17.981 40a7 7 0 0 1-.36-4.47 5.762 5.762 0 0 1 1.9-3.45 6.884 6.884 0 0 1 .279 3.99zm-7.919-13.18a6.564 6.564 0 0 1-1.73 2.54 7.229 7.229 0 0 1 .61-4.63 5.154 5.154 0 0 1 1.64-2.15 6.985 6.985 0 0 1-.52 4.24z" fill="#60A917"/><path d="M12.52 25.58a4.33 4.33 0 0 1-.99 1.01c.27-.39.605-.733.99-1.01z" fill="#549414"/><path d="M15.351 29.89a6.583 6.583 0 0 1-1.83 3.2 6.994 6.994 0 0 1 .11-4.55 5.474 5.474 0 0 1 1.83-2.78 6.818 6.818 0 0 1-.11 4.13zM44.4 41.04c-.05.07-.1.13-.15.2a.9.9 0 0 1-.15.19.744.744 0 0 1-.9.17c-1.22-.7-2.17-2.23-2.56-4.5a6 6 0 0 1 .79-4.86.768.768 0 0 1 .88-.24c1.2.5 2.29 1.69 2.79 3.98a6.586 6.586 0 0 1-.7 5.06z" fill="#60A917"/><path d="M53.8 40.63a6.365 6.365 0 0 1-4.8 3.3 5.125 5.125 0 0 1-4.47-1.07 4.361 4.361 0 0 1-.41-.46.857.857 0 0 1 .03-1.02 7.991 7.991 0 0 1 4.82-2.66 7.627 7.627 0 0 1 2.86-.17 3.3 3.3 0 0 1 1.92.97c.235.328.254.763.05 1.11zm3.81-8.79a6.613 6.613 0 0 1-4.01 4.09c-2.18.82-3.77.35-4.69-.56a1.063 1.063 0 0 1-.09-.11.9.9 0 0 1 0-.87.01.01 0 0 0 .01-.01 8.321 8.321 0 0 1 4.13-3.47 6.81 6.81 0 0 1 2.72-.71 2.641 2.641 0 0 1 1.74.57c.259.293.332.706.19 1.07z" fill="#549414"/><path d="M52.53 26.08a.161.161 0 0 1-.03.09c-.05.17-.11.34-.17.5a.711.711 0 0 1-.69.42c-1.16-.19-2.27-1.23-3.08-3.17a6.681 6.681 0 0 1-.37-4.79.757.757 0 0 1 .65-.55c1.08.02 2.21.73 3.12 2.67a7.218 7.218 0 0 1 .57 4.83z" fill="#60A917"/><path d="M59.98 22.34a6.919 6.919 0 0 1-3.08 4.78c-1.87 1.22-3.38 1.08-4.33.37a.681.681 0 0 1-.24-.49 1.01 1.01 0 0 1 .05-.45 9.13 9.13 0 0 1 3.31-4.2 6.4 6.4 0 0 1 2.34-1.23 2.164 2.164 0 0 1 1.64.22.993.993 0 0 1 .31 1z" fill="#549414"/><path d="M51.83 39.6a6.365 6.365 0 0 1-4.8 3.3 6.655 6.655 0 0 1-2.5-.04 4.361 4.361 0 0 1-.41-.46.857.857 0 0 1 .03-1.02 7.991 7.991 0 0 1 4.82-2.66 7.627 7.627 0 0 1 2.86-.17c.186.325.186.725 0 1.05zm3.81-8.79a6.613 6.613 0 0 1-4.01 4.09 5.33 5.33 0 0 1-2.81.36.9.9 0 0 1 0-.87.01.01 0 0 0 .01-.01 8.321 8.321 0 0 1 4.13-3.47 6.81 6.81 0 0 1 2.72-.71c.036.204.022.413-.04.61zm2.39-9.69a1.366 1.366 0 0 1-.02.19 6.919 6.919 0 0 1-3.08 4.78 4.884 4.884 0 0 1-2.6.91 1.01 1.01 0 0 1 .05-.45 9.13 9.13 0 0 1 3.31-4.2 6.4 6.4 0 0 1 2.34-1.23z" fill="#60A917"/><path d="M48.99 34.06c-.05.1-.11.19-.16.29 0 .01-.01.03-.01.04a.747.747 0 0 1-.86.37c-1.21-.44-2.26-1.73-2.87-3.84a6.31 6.31 0 0 1 .2-4.86.76.76 0 0 1 .78-.4c1.16.26 2.29 1.2 3.02 3.33a6.77 6.77 0 0 1-.1 5.07zM7.95 20.9c-1.05-.09-2.3-2.24-2.6-5.14-.3-2.9.38-5.37 1.22-5.76.85.38 1.62 2.62 2.03 5.26.41 2.64.23 4.98-.65 5.64zm48.7-5.14c-.3 2.9-1.55 5.05-2.6 5.14-.88-.66-1.05-2.99-.65-5.64.4-2.65 1.18-4.88 2.03-5.26.84.39 1.52 2.86 1.22 5.76z" fill="#60A917"/><path d="M35.71 25.71l-1.44 1.09c-.177.13-.39.2-.61.2h-5.32c-.22 0-.433-.07-.61-.2l-1.44-1.09a1.008 1.008 0 0 1 0-1.42l1.44-1.09c.177-.13.39-.2.61-.2h5.32c.22 0 .433.07.61.2l1.44 1.09c.39.393.39 1.027 0 1.42z" fill="#F57C00"/><path d="M32 36.45L31 38l-1.5 1-1.5-1-.89-1.55a.956.956 0 0 1 0-.9l.6-1.05a1 1 0 0 1 .87-.5h1.87c.343 0 .663.173.85.46l.7 1.09c.14.284.14.616 0 .9zm.71-10.74l-1.44 1.09c-.177.13-.39.2-.61.2h-2.32c-.22 0-.433-.07-.61-.2l-1.44-1.09a1.008 1.008 0 0 1 0-1.42l1.44-1.09c.177-.13.39-.2.61-.2h2.32c.22 0 .433.07.61.2l1.44 1.09c.39.393.39 1.027 0 1.42z" fill="#FF9801"/><path fill="#FEC108" d="M45 55l-14 2-1.5-.21L17 55l2-7 12-2 12 2z"/><path fill="#FFDC00" d="M42 55l-12.5 1.79L17 55l2-7 10.5-1.75L40 48z"/><rect fill="#783E22" x="15" y="55" width="32" height="4" rx="1"/><rect fill="#783E22" x="18" y="44" width="26" height="4" rx="1"/><rect fill="sienna" x="15" y="55" width="29" height="4" rx="1"/><rect fill="sienna" x="18" y="44" width="23" height="4" rx="1"/><path d="M39.58 15h1.27a3.01 3.01 0 0 0 2.98-2.63l.53-4.25A1 1 0 0 0 43.37 7h-4.1l-2.1-2.153L39.09 3h4.25a5.007 5.007 0 0 1 4.96 5.62l-.53 4.25A7.007 7.007 0 0 1 40.82 19h-2.55l1.31-4z" fill="#F57C00"/><path d="M23.73 19h-2.55a7.007 7.007 0 0 1-6.95-6.13l-.53-4.25A5.007 5.007 0 0 1 18.66 3h4.25L25 5l-2.27 2h-4.1a1 1 0 0 0-.99 1.12l.53 4.25A3.01 3.01 0 0 0 21.15 15h1.27l1.31 4z" fill="#FF9801"/><path d="M39.59 14.01A8.6 8.6 0 0 1 31 23a7.835 7.835 0 0 1-1.29-.1h-.02a8.6 8.6 0 0 1-7.28-8.89l.55-12.06a.993.993 0 0 1 1-.95h14.08a.993.993 0 0 1 1 .95l.55 12.06z" fill="#FDD834"/><path d="M36.99 14.01a8.6 8.6 0 0 1-7.28 8.89h-.02a8.6 8.6 0 0 1-7.28-8.89l.55-12.06a.993.993 0 0 1 1-.95h11.48a.993.993 0 0 1 1 .95l.55 12.06z" fill="#FFEB3A"/><path d="M45 56H17a1 1 0 0 1-.962-1.274l2-7A1 1 0 0 1 19 47h24a1 1 0 0 1 .962.726l2 7A1 1 0 0 1 45 56zm-26.674-2h25.348l-1.428-5H19.754l-1.428 5z" fill="#000"/><path d="M46 60H16a2 2 0 0 1-2-2v-2a2 2 0 0 1 2-2h30a2 2 0 0 1 2 2v2a2 2 0 0 1-2 2zm-30-4v2h30v-2H16zm27-7H19a2 2 0 0 1-2-2v-2a2 2 0 0 1 2-2h24a2 2 0 0 1 2 2v2a2 2 0 0 1-2 2zm-24-4v2h24v-2H19z" fill="#000"/><path d="M39 45H23a1 1 0 0 1-1-1v-.41a4.316 4.316 0 0 1 3.276-4.19 2.284 2.284 0 0 0 1.507-1.212l.325-.641a1 1 0 1 1 1.784.906l-.321.63a4.273 4.273 0 0 1-2.813 2.259A2.317 2.317 0 0 0 24.076 43h13.848a2.308 2.308 0 0 0-1.692-1.661 4.27 4.27 0 0 1-2.808-2.267l-.316-.619a1 1 0 0 1 1.784-.906l.32.63a2.28 2.28 0 0 0 1.507 1.223A4.317 4.317 0 0 1 40 43.59V44a1 1 0 0 1-1 1zm-6-21a1 1 0 0 1-1-1v-.24a1 1 0 0 1 2 0V23a1 1 0 0 1-1 1zm0 11a1 1 0 0 1-1-1v-7a1 1 0 0 1 2 0v7a1 1 0 0 1-1 1zm-4-11a1 1 0 0 1-1-1v-.24a1 1 0 0 1 2 0V23a1 1 0 0 1-1 1zm0 11a1 1 0 0 1-1-1v-7a1 1 0 0 1 2 0v7a1 1 0 0 1-1 1zm11.82-15h-2.55a1 1 0 0 1 0-2h2.55a6.013 6.013 0 0 0 5.957-5.255l.531-4.245A4.008 4.008 0 0 0 43.34 4h-3.2l.09 2h3.14a2 2 0 0 1 1.984 2.237l-.532 4.257c-.256 2-1.955 3.5-3.972 3.506h-1.27a1 1 0 0 1 0-2h1.27a2.01 2.01 0 0 0 1.988-1.756L43.368 8h-4.1a1 1 0 0 1-1-.955l-.18-4A1 1 0 0 1 39.09 2h4.25a6.006 6.006 0 0 1 5.952 6.743l-.53 4.251c-.508 4-3.91 7-7.942 7.006zm-17.09 0h-2.55a8.016 8.016 0 0 1-7.942-7l-.53-4.251A6.006 6.006 0 0 1 18.66 2h4.25a1 1 0 0 1 1 1.045l-.18 4a1 1 0 0 1-1 .955h-4.1l.532 4.246A2.01 2.01 0 0 0 21.15 14h1.27a1 1 0 0 1 0 2h-1.27a4.015 4.015 0 0 1-3.972-3.5l-.531-4.252A2 2 0 0 1 18.63 6h3.144l.09-2h-3.2a4.009 4.009 0 0 0-3.968 4.5l.531 4.249A6.013 6.013 0 0 0 21.18 18h2.55a1 1 0 0 1 0 2z" fill="#000"/><path d="M31 24a9.6 9.6 0 0 1-9.591-10.036l.549-12.055a2 2 0 0 1 2-1.909h14.086a2 2 0 0 1 2 1.911l.549 12.053A9.6 9.6 0 0 1 31 24zM23.956 2l-.549 12.056a7.6 7.6 0 1 0 15.186 0L38.044 2H23.956z" fill="#000"/><path d="M26.5 15h-.057a1 1 0 0 1-.942-1.054l.5-9A.983.983 0 0 1 27.056 4 1 1 0 0 1 28 5.056l-.5 9a1 1 0 0 1-1 .944zM34 39h-6a1 1 0 0 1-.866-.5l-.895-1.553a2.034 2.034 0 0 1-.028-1.841l.635-1.1a2 2 0 0 1 1.732-1h4.876a1.991 1.991 0 0 1 1.683.919l.7 1.092c.019.03.037.062.054.094.28.564.28 1.226 0 1.79a1.787 1.787 0 0 1-.054.093l-1 1.553A1 1 0 0 1 34 39zm-5.422-2h4.876l.645-1-.645-1h-4.876L28 36l.578 1zm5.086-9h-5.328a2.017 2.017 0 0 1-1.208-.406L25.689 26.5a.885.885 0 0 1-.1-.09 2 2 0 0 1 0-2.828.885.885 0 0 1 .1-.09l1.44-1.09A2.012 2.012 0 0 1 28.336 22h5.328c.436.001.86.144 1.208.406l1.439 1.09a.885.885 0 0 1 .1.09 2 2 0 0 1 0 2.828.885.885 0 0 1-.1.09l-1.44 1.09a2.012 2.012 0 0 1-1.207.406zm-6.648-3l1.32 1h5.328l1.32-1-1.32-1h-5.328l-1.32 1zm-8.554 17.688a1.8 1.8 0 0 1-1.394-.68 7.363 7.363 0 0 1-1.146-6.237c.648-2.98 2.2-4.2 3.381-4.7a1.771 1.771 0 0 1 2.056.555 7.024 7.024 0 0 1 .986 5.645c-.426 2.474-1.508 4.317-3.049 5.192a1.677 1.677 0 0 1-.834.225zm1.424-9.68a4.349 4.349 0 0 0-2.009 3.192 5.528 5.528 0 0 0 .632 4.406 5.5 5.5 0 0 0 1.865-3.666 5.353 5.353 0 0 0-.488-3.932z" fill="#000"/><path d="M14.159 45.026a8.565 8.565 0 0 1-1.314-.105 7.419 7.419 0 0 1-5.535-3.832 1.992 1.992 0 0 1 .215-2.255c1.207-1.289 3.132-1.657 5.716-1.087a8.917 8.917 0 0 1 5.4 3.024c.513.651.53 1.565.04 2.234a5.5 5.5 0 0 1-4.522 2.021zm-1-2.081c2.208.347 3.328-.446 3.834-1.033a7.114 7.114 0 0 0-4.178-2.212c-1.776-.393-3.037-.25-3.748.418a.19.19 0 0 0 .019.05 5.325 5.325 0 0 0 4.072 2.777h.001zm.677-7.145a1.785 1.785 0 0 1-1.529-.928 7.617 7.617 0 0 1-.341-6.2c.956-2.82 2.563-3.726 3.744-3.988a1.732 1.732 0 0 1 1.878.9 7.311 7.311 0 0 1 .283 5.61c-.676 2.334-1.916 3.935-3.493 4.507a1.569 1.569 0 0 1-.542.099zm2.074-9.1a3.963 3.963 0 0 0-2.049 2.61 5.761 5.761 0 0 0 .09 4.4 4.929 4.929 0 0 0 2-3.07 5.564 5.564 0 0 0-.041-3.94z" fill="#000"/><path d="M10.536 37.349a7.114 7.114 0 0 1-2.484-.484 7.517 7.517 0 0 1-4.606-4.716 1.994 1.994 0 0 1 .508-2.155c1.3-1.055 3.154-1.056 5.5 0a9.311 9.311 0 0 1 4.6 3.9c.4.701.297 1.582-.255 2.171a4.505 4.505 0 0 1-3.263 1.284zm-1.78-2.356a3.429 3.429 0 0 0 3.5-.215 7.487 7.487 0 0 0-3.622-2.957c-1.508-.68-2.617-.8-3.3-.36a.335.335 0 0 0 .015.063 5.53 5.53 0 0 0 3.407 3.469zm1.526-6.893a1.76 1.76 0 0 1-1.595-1.2 7.96 7.96 0 0 1 .445-6.072c1.239-2.638 2.861-3.219 4-3.242a1.762 1.762 0 0 1 1.623 1.229 7.68 7.68 0 0 1-.4 5.491c-.9 2.177-2.261 3.519-3.833 3.777-.08.013-.16.019-.24.017zm2.633-8.494c-.9.181-1.565 1.2-1.971 2.062a6.063 6.063 0 0 0-.444 4.355 4.283 4.283 0 0 0 2.012-2.487c.59-1.221.732-2.61.402-3.926l.001-.004z" fill="#000"/><path d="M7.727 29.034a5.811 5.811 0 0 1-3.174-1.075 7.9 7.9 0 0 1-3.525-5.465 1.966 1.966 0 0 1 .791-2.019c1.366-.81 3.083-.449 5.094 1.083a10.079 10.079 0 0 1 3.655 4.665 1.832 1.832 0 0 1-.538 2.069 3.842 3.842 0 0 1-2.303.742zm-2.08-2.749c1.187.773 2.243.953 3 .524a8.324 8.324 0 0 0-2.945-3.657c-.837-.635-1.959-1.3-2.706-1.032a.435.435 0 0 0 0 .07 5.931 5.931 0 0 0 2.642 4.095h.009z" fill="#000"/><path d="M7.952 21.9h-.083c-1.92-.16-3.219-3.156-3.51-6.034-.292-2.806.228-6.033 1.786-6.764a1 1 0 1 1 .849 1.81c-.267.231-.929 2.026-.644 4.75.27 2.675 1.341 4.141 1.7 4.247a.991.991 0 0 1 .9 1.077c-.048.516-.48.912-.998.914z" fill="#000"/><path d="M7.952 21.9a1 1 0 0 1-.6-1.8c.3-.228.693-1.833.258-4.68-.465-2.985-1.192-4.333-1.47-4.52a.991.991 0 0 1-.493-1.317 1.012 1.012 0 0 1 1.332-.5c1.481.667 2.237 3.641 2.61 6.019.3 1.954.558 5.4-1.04 6.59a1 1 0 0 1-.597.208z" fill="#000"/><path d="M20.06 45a1 1 0 0 1-.742-.329 45.164 45.164 0 0 1-2.173-2.584 1.813 1.813 0 0 1-.261-.347l-.1-.114a51.928 51.928 0 0 1-4.482-6.749.962.962 0 0 1-.064-.138c-.065-.115-.1-.174-.13-.236a50.533 50.533 0 0 1-3.385-7.5 7.968 7.968 0 0 1-.182-.536 49.222 49.222 0 0 1-1.569-5.342 1 1 0 0 1 1.947-.453 47.331 47.331 0 0 0 1.508 5.132l.028.083c.043.147.1.294.147.432a48.9 48.9 0 0 0 3.278 7.255l.071.129c.037.065.074.13.108.2a.7.7 0 0 1 .041.094 50.044 50.044 0 0 0 4.281 6.426l.077.1.1.139c.044.05.086.102.125.156a42.411 42.411 0 0 0 2.11 2.511A1 1 0 0 1 20.06 45zm23.479-2.312c-.295 0-.584-.077-.84-.224-1.536-.872-2.618-2.715-3.044-5.189a7.022 7.022 0 0 1 .984-5.642 1.766 1.766 0 0 1 2.053-.56c1.189.5 2.738 1.718 3.386 4.7a7.367 7.367 0 0 1-1.149 6.242 1.8 1.8 0 0 1-1.39.673zm-1.426-9.68a5.356 5.356 0 0 0-.487 3.924 5.5 5.5 0 0 0 1.865 3.668 5.533 5.533 0 0 0 .632-4.409 4.351 4.351 0 0 0-2.01-3.183z" fill="#000"/><path d="M47.841 45.026a5.494 5.494 0 0 1-4.518-2.018 1.848 1.848 0 0 1 .037-2.237 8.922 8.922 0 0 1 5.4-3.025c2.581-.566 4.505-.2 5.715 1.091.532.634.616 1.532.211 2.254a7.419 7.419 0 0 1-5.53 3.829 8.575 8.575 0 0 1-1.315.106zm-2.833-3.114c.5.584 1.621 1.38 3.834 1.033a5.324 5.324 0 0 0 4.071-2.774.212.212 0 0 0 .02-.052c-.715-.67-1.973-.809-3.745-.419a7.118 7.118 0 0 0-4.18 2.212zm3.156-6.112a1.57 1.57 0 0 1-.546-.1c-1.573-.57-2.813-2.171-3.489-4.5a7.309 7.309 0 0 1 .281-5.606 1.736 1.736 0 0 1 1.875-.909c1.186.264 2.793 1.17 3.748 3.987a7.618 7.618 0 0 1-.343 6.207c-.307.558-.89.91-1.526.921zm-2.074-9.1a5.558 5.558 0 0 0-.041 3.935 4.925 4.925 0 0 0 2 3.07c.61-1.397.642-2.98.089-4.4A3.966 3.966 0 0 0 46.09 26.7z" fill="#000"/><path d="M51.464 37.349a4.506 4.506 0 0 1-3.264-1.275 1.842 1.842 0 0 1-.257-2.173A9.315 9.315 0 0 1 52.554 30c2.34-1.057 4.191-1.058 5.5 0 .588.55.788 1.4.506 2.154a7.518 7.518 0 0 1-4.606 4.715 7.114 7.114 0 0 1-2.49.48zm-1.718-2.571a3.426 3.426 0 0 0 3.5.215 5.531 5.531 0 0 0 3.413-3.468.355.355 0 0 0 .015-.063c-.687-.441-1.795-.322-3.3.357a7.492 7.492 0 0 0-3.628 2.959zm1.969-6.678c-.083 0-.165-.007-.247-.022-1.565-.257-2.926-1.6-3.826-3.776a7.679 7.679 0 0 1-.4-5.488c.22-.707.86-1.2 1.6-1.232h.021c1.148.023 2.77.6 4.008 3.24a7.961 7.961 0 0 1 .445 6.076 1.759 1.759 0 0 1-1.601 1.202zm-2.629-8.5a5.781 5.781 0 0 0 .4 3.924 4.287 4.287 0 0 0 2.014 2.5 6.069 6.069 0 0 0-.444-4.354c-.404-.859-1.063-1.876-1.97-2.06v-.01z" fill="#000"/><path d="M54.272 29.034a3.833 3.833 0 0 1-2.3-.74 1.832 1.832 0 0 1-.539-2.075 10.077 10.077 0 0 1 3.657-4.664c2.008-1.528 3.723-1.892 5.095-1.077.642.454.95 1.247.786 2.015a7.9 7.9 0 0 1-3.522 5.464 5.814 5.814 0 0 1-3.177 1.077zm-.926-2.226c.757.431 1.815.251 3.006-.523A5.931 5.931 0 0 0 59 22.189a.411.411 0 0 0 0-.068c-.759-.271-1.872.4-2.7 1.028a8.331 8.331 0 0 0-2.953 3.659h-.001z" fill="#000"/><path d="M54.048 21.9a1 1 0 0 1-.081-2c.342-.1 1.413-1.568 1.683-4.24.285-2.727-.377-4.522-.687-4.777a.979.979 0 0 1-.463-1.321c.249-.5.853-.705 1.355-.462 1.558.731 2.078 3.958 1.786 6.767-.291 2.875-1.59 5.871-3.51 6.031a1.206 1.206 0 0 1-.083.002z" fill="#000"/><path d="M54.048 21.9a1 1 0 0 1-.6-.2c-1.6-1.19-1.338-4.636-1.04-6.586.373-2.382 1.129-5.356 2.61-6.023a1 1 0 0 1 .834 1.817c-.283.2-1 1.548-1.467 4.513-.435 2.843-.046 4.448.258 4.676a1 1 0 0 1-.6 1.8l.005.003z" fill="#000"/><path d="M41.94 45a1 1 0 0 1-.741-1.671 42.411 42.411 0 0 0 2.11-2.511.946.946 0 0 1 .089-.1l.139-.194c.009-.01.068-.09.077-.1A50.044 50.044 0 0 0 47.9 34a.7.7 0 0 1 .041-.094c.034-.067.071-.132.108-.2l.05-.089a49.109 49.109 0 0 0 3.294-7.281c.056-.152.109-.3.152-.446l.028-.083.02-.06a47.331 47.331 0 0 0 1.488-5.072 1 1 0 1 1 1.947.453 49.222 49.222 0 0 1-1.569 5.342 8.647 8.647 0 0 1-.186.55 50.752 50.752 0 0 1-3.492 7.691.95.95 0 0 1-.076.169 52.159 52.159 0 0 1-4.506 6.781l-.066.086a2.123 2.123 0 0 1-.266.343c-.659.851-1.371 1.7-2.173 2.584a1 1 0 0 1-.754.326zM23 53h-1a1 1 0 0 1 0-2h1a1 1 0 0 1 0 2zm9 0h-5a1 1 0 0 1 0-2h5a1 1 0 0 1 0 2z" fill="#000"/></g></svg>