<?xml version="1.0" encoding="iso-8859-1"?>
<!-- Generator: Adobe Illustrator 21.0.0, SVG Export Plug-In . SVG Version: 6.00 Build 0)  -->
<svg xmlns="http://www.w3.org/2000/svg" xmlns:xlink="http://www.w3.org/1999/xlink" version="1.1" id="Capa_1" x="0px" y="0px" viewBox="0 0 510.96 510.96" style="enable-background:new 0 0 510.96 510.96;" xml:space="preserve" width="512" height="512">
<g>
	<path style="fill:#FFDF65;" d="M392.979,503.46H117.982v0c10.973-33.722,37.299-55.792,66.55-55.792h141.898   C355.68,447.668,382.006,469.738,392.979,503.46L392.979,503.46z"/>
	<path style="fill:#FFCD2C;" d="M326.429,447.668h-36c29.251,0,55.576,22.07,66.55,55.792l0,0h36l0,0   C382.006,469.738,355.68,447.668,326.429,447.668z"/>
	<path style="fill:#FFBB64;" d="M255.481,333.358L255.481,333.358c-8.194,0-16.22-0.71-24.029-2.057   c-2.938,106.301-29.421,116.367-29.421,116.367H308.93c0,0-26.483-10.066-29.421-116.367   C271.701,332.648,263.674,333.358,255.481,333.358z"/>
	<g>
		<path style="fill:#FFAE47;" d="M279.509,331.3c-7.808,1.348-15.835,2.057-24.028,2.057h0c-0.972,0-1.941-0.012-2.908-0.031    c3.218,104.387,29.357,114.341,29.357,114.341h27C308.93,447.668,282.446,437.601,279.509,331.3z"/>
	</g>
	<path style="fill:#FFD039;" d="M118.391,223.079c-15.726-5.611-29.224-14.522-40.338-26.724   c-18.719-20.551-27.722-47.027-31.979-65.619c-1.103-4.817,0.041-9.809,3.139-13.696c3.141-3.941,7.83-6.202,12.866-6.202h53.078   V78.07H62.078c-15.069,0-29.098,6.76-38.492,18.548c-9.35,11.734-12.796,26.835-9.454,41.431   c7.361,32.15,21.088,59.941,39.696,80.371c20.641,22.661,46.996,36.741,78.589,42.081   C126.057,248.925,121.287,236.353,118.391,223.079z"/>
	<path style="fill:#FFD039;" d="M487.374,96.618c-9.394-11.788-23.423-18.548-38.492-18.548h-53.078v32.768h53.078   c5.036,0,9.725,2.261,12.866,6.202c3.098,3.887,4.241,8.879,3.139,13.696c-4.257,18.592-13.261,45.068-31.979,65.619   c-11.114,12.202-24.612,21.113-40.338,26.724c-2.896,13.273-7.666,25.846-14.026,37.423c31.593-5.341,57.948-19.42,78.589-42.081   c18.608-20.43,32.335-48.221,39.696-80.371C500.17,123.453,496.725,108.352,487.374,96.618z"/>
	<path style="fill:#FFD039;" d="M407.938,50.873H103.023c-11.977,0-21.686-9.709-21.686-21.687l0,0   c0-11.977,9.709-21.687,21.686-21.687h304.915c11.977,0,21.687,9.709,21.687,21.687l0,0   C429.624,41.164,419.915,50.873,407.938,50.873z"/>
	<path style="fill:#F4B70C;" d="M407.938,7.5h-27c11.977,0,21.687,9.709,21.687,21.687c0,11.977-9.709,21.686-21.687,21.686h27   c11.977,0,21.687-9.709,21.687-21.686C429.624,17.21,419.915,7.5,407.938,7.5z"/>
	<path style="fill:#FFDF65;" d="M255.481,333.358L255.481,333.358c-77.499,0-140.325-62.825-140.325-140.324V50.873h280.649v142.16   C395.805,270.533,332.979,333.358,255.481,333.358z"/>
	<g>
		<path style="fill:#F4B70C;" d="M118.391,223.079c-10.964-3.912-20.841-9.433-29.586-16.55    c1.521,15.933,5.704,31.087,12.103,45.015c9.839,4.066,20.34,7.069,31.51,8.958C126.057,248.925,121.287,236.353,118.391,223.079z    "/>
		<rect x="88.156" y="78.07" style="fill:#F4B70C;" width="27" height="32.768"/>
	</g>
	<g>
		<rect x="395.805" y="78.07" style="fill:#F4B70C;" width="27" height="32.768"/>
		<path style="fill:#F4B70C;" d="M422.156,206.529c-8.745,7.117-18.622,12.638-29.586,16.55    c-2.896,13.273-7.666,25.845-14.026,37.422c11.17-1.888,21.671-4.892,31.51-8.958    C416.452,237.616,420.635,222.462,422.156,206.529z"/>
	</g>
	<path style="fill:#FFCD2C;" d="M368.805,50.873v142.16c0,72.944-55.66,132.881-126.824,139.675c4.444,0.424,8.945,0.649,13.5,0.649   h0c77.499,0,140.324-62.825,140.324-140.324V50.873H368.805z"/>
	<path style="fill:none;stroke:#000000;stroke-width:15;stroke-linecap:round;stroke-linejoin:round;stroke-miterlimit:10;" d="   M255.48,447.668"/>
	<path style="fill:#FFA035;" d="M263.592,120.755l12.355,25.035c1.318,2.67,3.864,4.52,6.811,4.948l27.628,4.015   c7.419,1.078,10.382,10.195,5.013,15.429l-19.991,19.487c-2.132,2.078-3.105,5.072-2.601,8.006l4.719,27.516   c1.267,7.389-6.488,13.024-13.124,9.535l-24.711-12.991c-2.635-1.385-5.783-1.385-8.418,0l-24.711,12.991   c-6.636,3.489-14.392-2.146-13.124-9.535l4.719-27.516c0.503-2.934-0.47-5.928-2.601-8.006l-19.992-19.487   c-5.369-5.233-2.406-14.351,5.013-15.429l27.628-4.015c2.946-0.428,5.493-2.279,6.811-4.948l12.355-25.035   C250.687,114.032,260.274,114.032,263.592,120.755z"/>
	<path style="fill:#F78819;" d="M315.398,170.181c5.369-5.233,2.406-14.351-5.013-15.428L297,152.808l-28.593,27.861   c-2.132,2.078-3.105,5.072-2.601,8.006l6.327,39.601l12.268,6.45c6.636,3.489,14.392-2.146,13.124-9.535l-4.719-27.516   c-0.503-2.934,0.47-5.928,2.601-8.006L315.398,170.181z"/>
	<g>
		<path d="M493.24,91.944c-10.824-13.583-26.992-21.374-44.357-21.374h-45.577V58.374h4.633c16.093,0,29.187-13.093,29.187-29.187    C437.124,13.093,424.031,0,407.938,0H103.023C86.929,0,73.836,13.093,73.836,29.187c0,16.093,13.093,29.187,29.186,29.187h4.633    V70.57H62.078c-17.365,0-33.533,7.791-44.357,21.374C6.939,105.475,2.967,122.89,6.822,139.723    c7.648,33.405,21.985,62.364,41.462,83.747c20.961,23.011,47.666,37.707,79.39,43.768c20.513,35.194,55.141,61.189,96.071,70.178    c-3.026,79.773-19.826,99.177-23.943,102.751h-15.27c-32.708,0-61.629,23.933-73.682,60.972c-1.604,4.93,2.252,9.821,7.333,9.821    H293.93c4.219,0,7.624-3.483,7.496-7.731c-0.123-4.105-3.704-7.269-7.811-7.269l-164.694,0    c11.407-25.089,32.415-40.792,55.61-40.792h141.898c23.195,0,44.203,15.703,55.609,40.792h-57.315c-4.142,0-7.5,3.358-7.5,7.5l0,0    c0,4.142,3.358,7.5,7.5,7.5l68.255,0c5.158,0,8.656-5.161,7.076-9.992c-12.085-36.941-40.969-60.8-73.625-60.8h-15.27    c-4.117-3.574-20.917-22.978-23.943-102.751c40.93-8.99,75.558-34.984,96.071-70.178c31.724-6.061,58.429-20.757,79.389-43.768    c2.789-3.062,2.568-7.806-0.494-10.595c-3.061-2.788-7.805-2.567-10.595,0.495c-16.148,17.728-36.168,29.939-59.636,36.46    c2.844-6.809,5.19-13.876,6.999-21.153c15.262-6.08,28.539-15.236,39.502-27.271c19.814-21.754,29.288-49.527,33.745-68.996    c1.616-7.055-0.055-14.361-4.584-20.044c-4.572-5.737-11.399-9.027-18.731-9.027h-45.577V85.57h45.577    c12.772,0,24.664,5.73,32.626,15.722c7.919,9.938,10.838,22.726,8.008,35.084c-4.078,17.81-10.157,34.218-18.069,48.77    c-1.827,3.359-0.764,7.678,2.409,9.809c3.621,2.431,8.689,1.181,10.768-2.644c8.565-15.752,15.131-33.445,19.513-52.587    C507.993,122.889,504.021,105.474,493.24,91.944z M108.713,210.679c-9.467-4.955-17.884-11.435-25.115-19.374    c-17.622-19.347-26.157-44.527-30.214-62.244c-0.59-2.578,0.027-5.256,1.693-7.347c1.71-2.146,4.261-3.376,7-3.376h45.578v74.696    C107.656,199.005,108.022,204.891,108.713,210.679z M59.373,213.37c-17.741-19.478-30.857-46.102-37.93-76.995    c-2.83-12.357,0.089-25.145,8.008-35.082c7.962-9.992,19.854-15.722,32.626-15.722h45.578v17.768H62.078    c-7.332,0-14.159,3.291-18.731,9.028c-4.529,5.683-6.2,12.989-4.584,20.043c4.458,19.469,13.931,47.242,33.746,68.996    c10.963,12.036,24.24,21.191,39.502,27.271c1.809,7.277,4.154,14.344,6.999,21.154C95.541,243.309,75.521,231.098,59.373,213.37z     M292.328,440.168h-73.696c8.404-14.579,17.692-43.415,20.026-100.273c5.523,0.629,11.134,0.963,16.822,0.963    c5.688,0,11.299-0.334,16.822-0.963C274.637,396.752,283.924,425.589,292.328,440.168z M255.48,325.858    c-73.24,0-132.824-59.584-132.824-132.824V58.374h37.051c4.142,0,7.5-3.358,7.5-7.5c0-4.142-3.358-7.5-7.5-7.5h-56.685    c-7.822,0-14.186-6.364-14.186-14.187C88.836,21.364,95.2,15,103.023,15h304.915c7.822,0,14.187,6.364,14.187,14.187    c0,7.822-6.364,14.187-14.187,14.187h-218.23c-4.142,0-7.5,3.358-7.5,7.5c0,4.142,3.358,7.5,7.5,7.5h198.598v134.66    C388.305,266.273,328.72,325.858,255.48,325.858z M448.882,118.338c2.739,0,5.291,1.23,7.001,3.376    c1.666,2.091,2.284,4.769,1.693,7.348c-4.057,17.716-12.591,42.896-30.213,62.243c-7.232,7.939-15.649,14.419-25.115,19.374    c0.692-5.788,1.057-11.674,1.057-17.645v-74.696H448.882z"/>
		<path d="M311.464,147.331l-27.627-4.015c-0.504-0.073-0.939-0.389-1.164-0.846l-12.355-25.034    c-2.808-5.689-8.492-9.223-14.836-9.224c0,0,0,0,0,0c-6.343,0-12.029,3.534-14.837,9.223l-12.355,25.035    c-0.225,0.456-0.66,0.772-1.164,0.845l-27.627,4.015c-6.278,0.912-11.396,5.227-13.356,11.26    c-1.961,6.034-0.356,12.533,4.187,16.961l19.991,19.487c0.365,0.355,0.531,0.867,0.445,1.368l-4.72,27.516    c-1.072,6.253,1.45,12.454,6.583,16.183s11.809,4.211,17.424,1.259l24.71-12.991c0.45-0.237,0.988-0.237,1.438,0l24.71,12.991    c5.545,2.914,12.358,2.422,17.425-1.26c5.133-3.729,7.655-9.93,6.582-16.183l-4.719-27.516c-0.086-0.501,0.08-1.013,0.444-1.368    l19.992-19.487c4.543-4.429,6.147-10.928,4.186-16.961C322.86,152.558,317.741,148.243,311.464,147.331z M310.163,164.811    l-19.991,19.487c-3.9,3.802-5.679,9.277-4.758,14.645l4.719,27.516c0.214,1.244-1.116,2.224-2.242,1.629l-24.711-12.991    c-4.778-2.512-10.62-2.512-15.398,0l-24.711,12.991c-1.125,0.592-2.456-0.383-2.242-1.629l4.72-27.517    c0.92-5.368-0.859-10.842-4.759-14.644l-19.991-19.487c-0.911-0.888-0.395-2.454,0.856-2.636l27.628-4.015    c5.391-0.783,10.048-4.167,12.457-9.051l12.355-25.035c0.562-1.139,2.208-1.141,2.771,0l12.355,25.034    c2.41,4.884,7.067,8.268,12.458,9.051l27.628,4.015C310.557,162.357,311.075,163.922,310.163,164.811z"/>
	</g>
</g>















</svg>
