<?xml version="1.0" encoding="iso-8859-1"?>
<!-- Generator: Adobe Illustrator 19.0.0, SVG Export Plug-In . SVG Version: 6.00 Build 0)  -->
<svg xmlns="http://www.w3.org/2000/svg" xmlns:xlink="http://www.w3.org/1999/xlink" version="1.1" id="Layer_1" x="0px" y="0px" viewBox="0 0 512 512" style="enable-background:new 0 0 512 512;" xml:space="preserve" width="512" height="512">
<g>
	<g>
		<path style="fill:#4695FD;" d="M181.686,7.5h-78.652c-10.413,0-18.864,8.451-18.864,18.864v168.29    c0,10.867,4.319,21.29,12.001,28.972l55.666,55.676h29.85L256,126.819L181.686,7.5z"/>
		<path style="fill:#4695FD;" d="M408.965,7.5h-78.652L256,126.819l74.313,152.482h29.85l55.666-55.676    c7.682-7.682,12.001-18.105,12.001-28.972V26.364C427.83,15.951,419.379,7.5,408.965,7.5z"/>
		<path style="fill:#0D84FD;" d="M112.974,240.432l38.863,38.87h29.85l52.235-107.181    C184.998,178.068,142.003,203.51,112.974,240.432z"/>
		<path style="fill:#0D84FD;" d="M278.078,172.121l52.235,107.181h29.85l38.863-38.87    C369.997,203.51,327.001,178.068,278.078,172.121z"/>
		<rect x="181.686" y="7.5" style="fill:#FF89CA;" width="148.627" height="271.802"/>
		<path style="fill:#FA4AAD;" d="M330.313,186.666c-22.7-10.204-47.855-15.888-74.313-15.888s-51.613,5.684-74.313,15.888v92.636    h148.627V186.666z"/>
		<circle style="fill:#A4BFD6;" cx="256" cy="352.639" r="151.861"/>
		<circle style="fill:#D3E9F4;" cx="256" cy="352.639" r="109.458"/>
		<g>
			<path style="fill:#A4BFD6;" d="M256.466,280.576c21.618,0,43.424,13.605,43.424,38.579c0,40.442-57.588,53.675-57.588,70.634     v1.678h48.829c4.66,0,8.759,5.777,8.759,12.486c0,6.709-4.099,12.86-8.759,12.86h-66.347c-5.218,0-12.674-3.541-12.674-8.946     v-18.077c0-29.26,58.707-46.033,58.707-69.703c0-5.963-3.728-13.232-14.165-13.232c-7.455,0-13.978,3.727-13.978,13.977     c0,5.405-5.777,10.624-15.282,10.624c-7.455,0-13.046-3.355-13.046-15.096C214.346,293.622,235.22,280.576,256.466,280.576z"/>
		</g>
	</g>
	<g>
		<path d="M186.948,277.631c3.047-2.807,3.242-7.551,0.436-10.598s-7.551-3.242-10.598-0.436    c-23.987,22.094-37.745,53.455-37.745,86.042c0,64.491,52.467,116.958,116.958,116.958c64.491,0,116.958-52.467,116.958-116.958    c0-64.491-52.467-116.958-116.958-116.958c-19.452,0-38.715,4.875-55.708,14.097c-3.641,1.976-4.99,6.528-3.015,10.169    c1.976,3.64,6.528,4.991,10.169,3.015c14.804-8.034,31.594-12.28,48.554-12.28c56.22,0,101.958,45.738,101.958,101.958    c0,56.22-45.738,101.958-101.958,101.958c-56.22,0-101.958-45.738-101.958-101.958    C154.042,324.232,166.036,296.893,186.948,277.631z"/>
		<path d="M239.355,345.084c-16.286,11.953-34.745,25.502-34.745,44.705v18.078c0,5.056,2.889,9.749,7.926,12.874    c3.606,2.237,8.185,3.573,12.247,3.573h66.347c8.813,0,16.26-9.324,16.26-20.36c0-11.021-7.294-19.986-16.26-19.986h-36.143    c3.535-2.858,8.124-5.999,11.247-8.137c17.369-11.89,41.156-28.173,41.156-56.674c0-29.93-26.237-46.079-50.924-46.079    c-12.583,0-24.523,3.884-33.623,10.938c-10.316,7.997-15.998,19.484-15.998,32.346c0,14.36,7.489,22.596,20.546,22.596    c14.797,0,22.782-9.338,22.782-18.124c0-5.418,2.375-6.478,6.478-6.478c4.422,0,6.665,1.929,6.665,5.732    C263.317,327.496,250.587,336.84,239.355,345.084z M256.653,299.354c-13.047,0-21.478,8.431-21.478,21.478    c0,0.551-2.027,3.124-7.782,3.124c-1.395,0-3.228-0.169-4.042-0.975c-0.941-0.933-1.504-3.408-1.504-6.621    c0-18.371,17.837-28.283,34.62-28.283c17.852,0,35.924,10.676,35.924,31.079c0,20.592-18.397,33.186-34.629,44.297    c-12.32,8.433-22.959,15.717-22.959,26.337v1.678c0,4.142,3.358,7.5,7.5,7.5h48.367c0.618,0.55,1.721,2.38,1.721,4.986    c0,2.698-1.177,4.719-1.838,5.36h-65.769c-1.949,0-4.4-1.133-5.173-1.942v-17.582c0-11.606,14.55-22.285,28.621-32.613    c15.472-11.356,30.086-22.083,30.086-37.089C278.317,310.102,271.538,299.354,256.653,299.354z"/>
		<path d="M408.966,0H103.034C88.497,0,76.67,11.827,76.67,26.364v168.29c0,12.947,5.042,25.119,14.197,34.274l33.697,33.703    c-17.605,25.628-27.926,56.633-27.926,90.007C96.639,440.511,168.128,512,256,512c34.693,0,67.675-10.956,95.379-31.683    c3.316-2.481,3.994-7.182,1.512-10.499c-2.482-3.316-7.181-3.994-10.499-1.512C317.303,487.078,287.429,497,256,497    c-79.601,0-144.361-64.76-144.361-144.361c0-60.926,37.938-113.157,91.432-134.312c16.64-6.58,34.889-10.049,52.929-10.049    c17.926,0,36.113,3.45,52.935,10.051c53.49,21.156,91.426,73.386,91.426,134.31c0,35.655-13.112,69.894-36.92,96.408    c-2.767,3.082-2.512,7.824,0.57,10.591c3.082,2.767,7.824,2.512,10.591-0.569c26.284-29.272,40.759-67.069,40.759-106.43    c0-33.374-10.32-64.379-27.926-90.007l33.697-33.702c9.155-9.155,14.198-21.328,14.198-34.275V26.364    C435.33,11.827,423.503,0,408.966,0z M322.813,207.938c-20.869-9.632-43.832-14.66-66.813-14.66    c-22.97,0-45.956,5.032-66.813,14.66V15h133.626V207.938z M91.67,194.654V26.364C91.67,20.098,96.768,15,103.034,15h71.152    v200.865c-15.442,9.242-29.035,20.862-40.531,34.645l-32.181-32.187C95.244,212.092,91.67,203.465,91.67,194.654z M420.33,194.654    c0,8.941-3.482,17.347-9.805,23.669l-32.181,32.187c-11.497-13.782-25.089-25.402-40.531-34.645V15h71.152    c6.266,0,11.364,5.098,11.364,11.364V194.654z"/>
	</g>
</g>















</svg>
