<?xml version="1.0"?>
<svg xmlns="http://www.w3.org/2000/svg" id="Layer_1" data-name="Layer 1" viewBox="0 0 512 512" width="512" height="512"><title>Add User</title><path d="M367,318.5a89.991,89.991,0,1,1-70.98,34.66A89.994,89.994,0,0,1,367,318.5Z" style="fill:#6fe3ff"/><path d="M259.36,299.85a95.772,95.772,0,0,1-139.82-66.46l-5.32-18.31v-.15a25.854,25.854,0,0,1-20.61-31.6,19.426,19.426,0,0,1,17.31-14.8v.6a13.6,13.6,0,0,0,6.98,1.93,13.773,13.773,0,0,0,13.77-13.16l1.7-37.32a308.246,308.246,0,0,0,36.36-.93v.01c58.9,52.48,146.71,49.1,146.71,49.1v-.22a19.4,19.4,0,0,1,17.26,14.79,25.841,25.841,0,0,1-5.39,22.85,25.8,25.8,0,0,1-15.22,8.75v.15l-5.32,18.31A95.71,95.71,0,0,1,259.36,299.85Z" style="fill:#f7caa5"/><path d="M316.44,168.54v.22s-87.81,3.38-146.71-49.1v-.01a304.09,304.09,0,0,0,55.2-9.24s28.97,37.28,91.51,41.31Z" style="fill:#3b484c"/><path d="M224.93,110.41a304.09,304.09,0,0,1-55.2,9.24,308.246,308.246,0,0,1-36.36.93l-1.7,37.32a13.773,13.773,0,0,1-13.77,13.16,13.6,13.6,0,0,1-6.98-1.93V116.26a102.76,102.76,0,1,1,205.52,0v35.46C253.9,147.69,224.93,110.41,224.93,110.41Z" style="fill:#6d7375"/><path d="M299.02,467.48H55v-51.6a50.832,50.832,0,0,1,1.23-11.53c.16-.68.33-1.36.51-2.03,4.78-17.38,18.39-30.95,35.54-36.51l75.56-24.5a96.331,96.331,0,0,0,91.64,0l36.54,11.85a90.008,90.008,0,0,0,3,114.32Z" style="fill:#e48e66"/><path d="M259.36,341.27l.12.04a96.331,96.331,0,0,1-91.64,0l.11-.04V299.84a95.8,95.8,0,0,0,91.41.01Z" style="fill:#edb288"/><path d="M55,474.48H295.908a97,97,0,1,0-2.259-129.448l-27.289-8.849V303.9a102.355,102.355,0,0,0,48.225-68.882l4.157-14.306a32.87,32.87,0,0,0,22.7-31.226,32.51,32.51,0,0,0-.94-7.821,26.176,26.176,0,0,0-17.06-18.731V116.26a109.76,109.76,0,0,0-219.52,0v46.66a26.2,26.2,0,0,0-17.111,18.752,32.865,32.865,0,0,0,21.762,39.054l4.154,14.3A102.523,102.523,0,0,0,160.95,303.89v32.3L90.121,359.151c-19.777,6.412-34.779,21.856-40.142,41.354-.2.741-.386,1.492-.567,2.258A57.27,57.27,0,0,0,48,415.88v51.6A7,7,0,0,0,55,474.48ZM301.538,357.467A83.008,83.008,0,1,1,284,408.5a82.538,82.538,0,0,1,17.538-51.033Zm-126.588-46.6a102.627,102.627,0,0,0,77.41,0v26.2a88.977,88.977,0,0,1-77.41,0Zm47.577-192.593c8.909,9.488,36.952,34.737,86.913,39.874v3.591c-19.34-.475-76.526-4.718-121.94-36.889A295.9,295.9,0,0,0,222.527,118.276ZM117.92,116.26a95.76,95.76,0,1,1,191.52,0v27.792c-36.712-4.169-60.213-20.446-71.358-30.285,18.8-6.169,34.818-14.265,47.709-24.153a7,7,0,0,0-8.521-11.108c-13.945,10.7-32.156,19.153-54.129,25.136l-.056.015a294.135,294.135,0,0,1-53.909,9.015,305.172,305.172,0,0,1-35.446.917,7,7,0,0,0-7.353,6.673l-1.7,37.323a6.777,6.777,0,0,1-6.757,6.475Zm8.5,115.835c-.042-.221-.094-.441-.157-.658l-5.145-17.709a7,7,0,0,0-5.685-5.692A18.8,18.8,0,0,1,99.87,189.49a19.023,19.023,0,0,1,.539-4.5,12.141,12.141,0,0,1,8.57-8.983,20.72,20.72,0,0,0,29.684-17.794l1.388-30.472c6.03.055,15.573-.061,27.27-.895,31.22,26.778,69.556,38.654,96.512,43.91,29.77,5.8,51.947,5.031,52.876,4.993.142,0,.28-.023.419-.036a12.245,12.245,0,0,1,9.779,9.3,18.518,18.518,0,0,1,.533,4.47,18.868,18.868,0,0,1-15.565,18.547,7,7,0,0,0-5.682,5.691l-5.145,17.709q-.094.327-.158.661a88.765,88.765,0,0,1-174.471,0ZM62,415.88a43.491,43.491,0,0,1,1.044-9.928c.143-.609.3-1.218.445-1.776,4.1-14.9,15.668-26.753,30.95-31.707l72.77-23.6a102.919,102.919,0,0,0,92.9,0l24.749,8.027A95.931,95.931,0,0,0,270,408.5a96.954,96.954,0,0,0,15.121,51.98H62Z" style="fill:#63316d"/><path d="M332.94,415.75H360v27.06a7,7,0,0,0,14,0V415.75h27.06a7,7,0,0,0,0-14H374V374.69a7,7,0,0,0-14,0v27.06H332.94a7,7,0,0,0,0,14Z" style="fill:#63316d"/></svg>
