<svg height="512pt" viewBox="-11 0 512 512.00026" width="512pt" xmlns="http://www.w3.org/2000/svg"><path d="m490 267c0 135.308594-109.691406 245-245 245s-245-109.691406-245-245 109.691406-245 245-245 245 109.691406 245 245zm0 0" fill="#69d173"/><path d="m129.636719 428.46875-18.636719 32.28125c-1.578125 2.734375-3.339844 5.347656-5.246094 7.839844 8.808594 6.097656 18.03125 11.644531 27.625 16.5625 1.253906-3.070313 2.710938-6.0625 4.378906-8.957032l18.636719-32.277343c12.453125-21.566407 27.578125-41.476563 45.019531-59.257813-21.5625-12.445312-21.410156-12.359375-42.96875-24.808594-6.675781 23.996094-16.355468 47.050782-28.808593 68.617188zm0 0" fill="#a0391e"/><path d="m136.015625 417.265625c0-.167969.023437-.332031.027344-.503906-5.207031 10.039062-7.996094 14.304687-25.042969 43.988281-1.578125 2.734375-3.339844 5.347656-5.246094 7.839844 8.8125 6.097656 18.03125 11.644531 27.628906 16.5625 1.25-3.070313 2.707032-6.0625 4.375-8.957032 17.40625-29.992187 19.5625-34.277343 25.566407-43.671874-11.855469 7.304687-27.308594-1.1875-27.308594-15.257813zm0 0" fill="#84260d"/><path d="m148.726562 388.851562 21.277344 33.6875c9.394532-13.460937 19.894532-26.140624 31.410156-37.878906-21.558593-12.449218-21.410156-12.359375-42.96875-24.808594-2.738281 9.839844-5.988281 19.515626-9.71875 29zm0 0" fill="#bc4c2e"/><path d="m111 460.75c-1.578125 2.734375-3.339844 5.34375-5.25 7.835938 5.664062 3.917968 11.488281 7.617187 17.484375 11.058593l12.613281.101563c.605469-1.199219 1.238282-2.382813 1.910156-3.550782l18.296876-31.691406-35.511719-.289062zm0 0" fill="#a0391e"/><path d="m405.582031 56.890625-7.195312-49.480469c-.804688-5.519531-6.542969-8.847656-11.734375-6.800781l-46.675782 18.40625c-30.832031 12.15625-55.542968 36.117187-68.644531 66.558594l-106.582031 247.585937 28.34375 16.019532 28.042969 16.535156 161.125-216.09375c19.8125-26.570313 28.207031-59.949219 23.320312-92.730469zm0 0" fill="#ebeaec"/><path d="m213.757812 313.386719c-15.546874-8.785157-23.828124-25.765625-22.105468-42.722657l-26.902344 62.492188 28.34375 16.019531 28.046875 16.535157 40.667969-54.542969c-13.820313 9.972656-32.667969 11.289062-48.050782 2.21875zm0 0" fill="#dad9dd"/><path d="m394.171875 1.175781c-2.183594-1.269531-4.921875-1.589843-7.519531-.566406l-46.671875 18.40625c-30.835938 12.15625-55.542969 36.117187-68.648438 66.558594l-106.582031 247.585937 28.34375 16.019532.117188.070312zm0 0" fill="#dad9dd"/><path d="m193.125 349.195312.089844.054688 20.664062-35.792969c-.039062-.023437-.082031-.042969-.121094-.070312-15.546874-8.785157-23.828124-25.765625-22.101562-42.722657l-26.902344 62.496094 28.339844 16.019532zm0 0" fill="#ccccce"/><path d="m220.230469 358.296875c0 17.804687-14.433594 32.242187-32.242188 32.242187-17.804687 0-32.238281-14.4375-32.238281-32.242187 0-17.808594 14.433594-32.242187 32.238281-32.242187 17.808594 0 32.242188 14.433593 32.242188 32.242187zm0 0" fill="#ffcb37"/><path d="m160.066406 342.175781c2.9375-5.089843 7.058594-9.066406 11.808594-11.800781l-22.6875-13.097656c-7.710938-4.453125-17.570312-1.808594-22.023438 5.902344-4.449218 7.710937-1.808593 17.570312 5.902344 22.019531l22.6875 13.097656c-.007812-5.480469 1.378906-11.035156 4.3125-16.121094zm0 0" fill="#ff941f"/><path d="m242.914062 371.390625-22.6875-13.097656c.007813 5.480469-1.378906 11.035156-4.316406 16.125-2.9375 5.085937-7.054687 9.0625-11.804687 11.796875l22.6875 13.097656c7.710937 4.453125 17.570312 1.8125 22.019531-5.898438 4.453125-7.710937 1.8125-17.570312-5.898438-22.023437zm0 0" fill="#fcac1f"/><path d="m223.414062 378.960938c.03125-.054688.0625-.109376.089844-.160157.03125-.054687.0625-.105469.09375-.160156 3.703125-6.492187 11.050782-9.617187 17.9375-8.046875l-21.308594-12.300781c.007813 5.480469-1.378906 11.035156-4.316406 16.121093-2.9375 5.089844-7.054687 9.066407-11.804687 11.800782l21.308593 12.300781c-4.804687-5.175781-5.773437-13.105469-2-19.554687zm0 0" fill="#ff941f"/><path d="m189.964844 368.96875c-9.730469 1.1875-16.210938-9.65625-10.777344-17.617188-9.789062 1.652344-16.984375-8.542968-12.671875-17.097656-6.605469 5.902344-10.765625 14.484375-10.765625 24.042969 0 17.804687 14.433594 32.242187 32.238281 32.242187 3.554688 0 6.964844-.582031 10.160157-1.644531-10.050782-.53125-14.953126-12.527343-8.183594-19.925781zm0 0" fill="#fcac1f"/><path d="m187.988281 370.234375c-6.613281 0-11.941406-5.402344-11.941406-11.941406 0-7.574219 6.992187-13.167969 14.269531-11.699219 5.644532 1.144531 9.613282 6.019531 9.613282 11.699219 0 6.480469-5.253907 11.941406-11.941407 11.941406zm0 0" fill="#5e73dd"/></svg>