<svg height="512pt" viewBox="-11 0 512 512.00013" width="512pt" xmlns="http://www.w3.org/2000/svg"><path d="m490 267c0 135.308594-109.691406 245-245 245s-245-109.691406-245-245 109.691406-245 245-245 245 109.691406 245 245zm0 0" fill="#5e73dd"/><path d="m187.78125 17.105469-41.429688-16.824219c-2.34375-.949219-4.945312.609375-5.210937 3.125l-4.613281 43.742188c-1.089844 10.347656 1.125 20.773437 6.328125 29.785156l168.378906 291.644531 68.59375-39.601563-167.929687-290.867187c-5.480469-9.488281-13.964844-16.878906-24.117188-21.003906zm0 0" fill="#ebeaec"/><path d="m346.4375 271.136719c2.695312 16.851562-5 34.378906-20.664062 43.417969-15.660157 9.042968-34.683594 6.949218-47.929688-3.816407l33.390625 57.839844 68.59375-39.601563zm0 0" fill="#dad9dd"/><path d="m144.21875.0898438c-1.574219.3007812-2.894531 1.5664062-3.078125 3.3164062l-4.613281 43.742188c-1.089844 10.347656 1.125 20.773437 6.328125 29.785156l168.382812 291.644531 34.296875-19.800781zm0 0" fill="#dad9dd"/><path d="m345.53125 348.777344-19.757812-34.222656c-15.660157 9.042968-34.683594 6.949218-47.929688-3.816407l33.390625 57.839844zm0 0" fill="#bfbfbf"/><path d="m405.140625 423.652344c-11.433594-19.800782-20.320313-40.96875-26.449219-62.996094-19.792968 11.429688-19.65625 11.347656-39.449218 22.773438 16.011718 16.324218 29.898437 34.601562 41.332031 54.40625l13.582031 23.523437c7.648438-5.878906 14.9375-12.195313 21.832031-18.917969zm0 0" fill="#a0391e"/><path d="m357.835938 404.472656 36.550781-1.453125c-6.390625-13.652343-11.648438-27.816406-15.695313-42.363281-19.792968 11.429688-19.65625 11.347656-39.449218 22.773438 6.566406 6.695312 12.765624 13.722656 18.59375 21.042968zm0 0" fill="#bc4c2e"/><path d="m438.160156 288.59375-67.382812 38.902344c-4.394532 2.535156-9.53125 3.308594-14.542969 2.503906-13.71875-2.203125-27.246094 5.476562-32.285156 18.574219-1.847657 4.804687-5.132813 8.921875-9.59375 11.496093l-67.257813 38.832032c-3.144531 1.8125-2.738281 6.472656.667969 7.714844l37.976563 13.867187c2.578124.941406 5.441406-.3125 6.480468-2.851563 5.691406-13.929687 15.851563-25.574218 28.882813-33.09375l.046875-.03125c4.652344-2.683593 10.4375-2.78125 15.027344.003907 19.996093 12.117187 45.476562-2.550781 44.972656-25.976563-.113282-5.363281 2.867187-10.320312 7.515625-13.003906l3.148437-1.820312c12.097656-6.984376 26.171875-8.511719 40.019532-6.671876 2.707031.359376 5.21875-1.492187 5.691406-4.1875l6.980468-39.820312c.628907-3.574219-3.203124-6.253906-6.347656-4.4375zm0 0" fill="#ffcb37"/><path d="m302.21875 17.105469 41.429688-16.824219c2.34375-.949219 4.945312.609375 5.210937 3.125l4.613281 43.742188c1.089844 10.347656-1.125 20.773437-6.328125 29.785156l-168.382812 291.644531-68.589844-39.601563 167.929687-290.867187c5.480469-9.488281 13.964844-16.878906 24.117188-21.003906zm0 0" fill="#dad9dd"/><path d="m345.78125.0898438c1.574219.3007812 2.894531 1.5664062 3.078125 3.3164062l4.613281 43.742188c1.089844 10.347656-1.125 20.773437-6.328125 29.785156l-168.382812 291.644531-34.292969-19.800781zm0 0" fill="#ebeaec"/><path d="m212.15625 310.738281c-13.246094 10.761719-32.269531 12.859375-47.929688 3.816407-15.664062-9.039063-23.359374-26.566407-20.664062-43.417969l-33.390625 57.839843 68.589844 39.601563zm0 0" fill="#dad9dd"/><path d="m144.46875 348.777344 19.757812-34.222656c-15.664062-9.039063-23.359374-26.566407-20.664062-43.417969l-33.390625 57.839843zm0 0" fill="#bfbfbf"/><path d="m84.859375 423.652344-10.847656 18.789062c6.894531 6.722656 14.1875 13.039063 21.832031 18.917969l13.582031-23.523437c11.433594-19.804688 25.320313-38.082032 41.332031-54.40625-19.792968-11.425782-19.65625-11.34375-39.449218-22.773438-6.128906 22.027344-15.015625 43.195312-26.449219 62.996094zm0 0" fill="#a0391e"/><path d="m92.535156 409.378906c-5.464844 10.921875-9.074218 16.5625-18.53125 33.054688 6.902344 6.730468 14.195313 13.050781 21.851563 18.933594 12.230469-21.066407 15.089843-26.648438 21.757812-36.804688-11.394531 5.308594-24.492187-2.660156-25.078125-15.183594zm0 0" fill="#84260d"/><path d="m132.164062 404.472656-36.550781-1.453125c6.390625-13.652343 11.648438-27.816406 15.695313-42.363281 19.792968 11.429688 19.65625 11.347656 39.449218 22.773438-6.566406 6.695312-12.765624 13.722656-18.59375 21.042968zm0 0" fill="#bc4c2e"/><path d="m74.011719 442.441406c6.894531 6.722656 14.1875 13.039063 21.832031 18.917969l5.234375-9.066406-16.527344-28.101563zm0 0" fill="#a0391e"/><path d="m242.902344 398.902344-67.382813-38.902344c-4.394531-2.539062-7.632812-6.601562-9.441406-11.34375-4.949219-12.980469-18.363281-20.855469-32.226563-18.671875-5.085937.804687-10.292968.015625-14.753906-2.558594l-67.257812-38.832031c-3.144532-1.816406-6.976563.863281-6.347656 4.4375l6.980468 39.820312c.472656 2.703126 2.992188 4.554688 5.707032 4.1875 14.910156-2.035156 30.074218.941407 43.101562 8.464844l.046875.027344c4.652344 2.6875 7.628906 7.648438 7.515625 13.015625-.5 23.375 24.949219 38.109375 44.980469 25.960937 4.585937-2.78125 10.371093-2.679687 15.019531.003907l3.152344 1.820312c12.09375 6.980469 20.453125 18.410157 25.785156 31.316407 1.042969 2.527343 3.902344 3.777343 6.472656 2.835937l37.976563-13.863281c3.410156-1.246094 3.8125-5.902344.671875-7.71875zm0 0" fill="#ffcb37"/><path d="m142.019531 368.492188c-9.132812-1.988282-12.078125-13.496094-5.121093-19.628907-5.582032-4.847656-6.535157-12.953125-2.496094-18.949219-.183594.023438-.367188.042969-.550782.070313-5.085937.804687-10.292968.015625-14.75-2.558594l-67.261718-38.832031c-3.144532-1.816406-6.972656.863281-6.347656 4.4375l6.980468 39.824219c.472656 2.699219 2.992188 4.554687 5.710938 4.183593 14.90625-2.035156 30.070312.941407 43.097656 8.464844l.050781.027344c4.648438 2.6875 7.625 7.648438 7.511719 13.015625-.484375 22.757813 23.621094 37.316406 43.382812 26.859375-7.328124-2.054688-11.816406-9.410156-10.207031-16.914062zm0 0" fill="#fcac1f"/><path d="m138.441406 370.183594c6.085938 0 10.960938-4.972656 10.960938-10.960938 0-6.941406-6.40625-12.109375-13.109375-10.753906-5.117188 1.039062-8.816407 5.507812-8.816407 10.753906 0 6.046875 4.910157 10.960938 10.964844 10.960938zm0 0" fill="#5e73dd"/><path d="m361.382812 360.753906c-6.289062 6.917969-17.726562 3.710938-19.5625-5.378906-6.988281 2.410156-14.480468-.816406-17.660156-7.3125-.066406.171875-.140625.339844-.207031.511719-1.851563 4.804687-5.136719 8.921875-9.59375 11.496093l-67.261719 38.832032c-3.144531 1.8125-2.738281 6.472656.671875 7.714844l37.976563 13.867187c2.574218.941406 5.441406-.3125 6.476562-2.851563 5.691406-13.929687 15.851563-25.574218 28.882813-33.09375l.046875-.03125c4.652344-2.683593 10.4375-2.78125 15.03125.003907 19.464844 11.796875 44.125-1.800781 44.949218-24.140625-5.441406 5.320312-14.058593 5.527344-19.75.382812zm0 0" fill="#fcac1f"/><path d="m351.558594 370.183594c-6.085938 0-10.960938-4.972656-10.960938-10.960938 0-6.941406 6.40625-12.109375 13.113282-10.753906 5.117187 1.039062 8.8125 5.507812 8.8125 10.753906 0 6.046875-4.910157 10.960938-10.964844 10.960938zm0 0" fill="#5e73dd"/><path d="m397.464844 409.378906c-.582032 12.503906-13.667969 20.5-25.078125 15.183594 6.664062 10.152344 9.453125 15.609375 21.757812 36.800781 7.65625-5.878906 14.949219-12.203125 21.851563-18.929687-9.246094-16.121094-13.027344-22.054688-18.53125-33.054688zm0 0" fill="#84260d"/><path d="m405.449219 424.191406-16.527344 28.101563 5.234375 9.066406c7.648438-5.878906 14.9375-12.195313 21.832031-18.917969zm0 0" fill="#a0391e"/></svg>