<?xml version="1.0" encoding="iso-8859-1"?>
<!-- Generator: Adobe Illustrator 19.0.0, SVG Export Plug-In . SVG Version: 6.00 Build 0)  -->
<svg xmlns="http://www.w3.org/2000/svg" xmlns:xlink="http://www.w3.org/1999/xlink" version="1.1" id="Layer_1" x="0px" y="0px" viewBox="0 0 512.003 512.003" style="enable-background:new 0 0 512.003 512.003;" xml:space="preserve" width="512" height="512">
<g id="XMLID_891_">
	<g id="XMLID_2_">
		<path id="XMLID_863_" style="fill:#72D8FF;" d="M324.634,444.414H187.366c-31.805,0-57.588,25.783-57.588,57.588v0h252.444v0    C382.222,470.197,356.439,444.414,324.634,444.414z"/>
		<polyline id="XMLID_2500_" style="fill:#72D8FF;" points="236,76.038 236,444.414 276,444.414 276,76.038   "/>
		<circle id="XMLID_2499_" style="fill:#72D8FF;" cx="256.133" cy="43.02" r="33.018"/>
		<g id="XMLID_2506_">
			<g id="XMLID_2509_">
				<path id="XMLID_2496_" style="fill:#72D8FF;" d="M502.003,269.759c0,37.555-30.445,68-68,68s-68-30.445-68-68H502.003z"/>
			</g>
			<line id="XMLID_2495_" style="fill:#A54E31;" x1="434.003" y1="89.559" x2="434.003" y2="269.759"/>
		</g>
		<g id="XMLID_2501_">
			<g id="XMLID_2505_">
				<path id="XMLID_2507_" style="fill:#72D8FF;" d="M146,269.759c0,37.555-30.445,68-68,68s-68-30.445-68-68H146z"/>
			</g>
			<line id="XMLID_2504_" style="fill:#A54E31;" x1="78" y1="89.559" x2="78" y2="269.759"/>
		</g>
	</g>
	<g id="XMLID_1241_">
		<path id="XMLID_1327_" d="M511.351,266.233c0.003-0.001,0.006-0.002,0.009-0.004l-62.894-166.67h33.82    c16.385,0,29.715-13.33,29.715-29.715S498.67,40.13,482.285,40.13c-5.522,0-10,4.478-10,10s4.478,10,10,10    c5.356,0,9.715,4.357,9.715,9.714s-4.358,9.715-9.715,9.715H286v-3.521c0-0.658-0.067-1.299-0.189-1.921    c8.21-7.839,13.34-18.876,13.34-31.096c0-23.721-19.298-43.019-43.019-43.019c-23.72,0-43.018,19.298-43.018,43.019    c0,12.11,5.038,23.059,13.118,30.885c-0.149,0.688-0.233,1.4-0.233,2.133v3.521H29.712c-5.355,0-9.712-4.356-9.712-9.712    s4.356-9.713,9.712-9.713c5.522,0,10-4.478,10-10s-4.478-10-10-10C13.329,40.134,0,53.463,0,69.847    C0,86.23,13.329,99.559,29.712,99.559h33.826L0.644,266.229c0.003,0.001,0.006,0.001,0.009,0.002    C0.237,267.33,0,268.516,0,269.759c0,43.01,34.99,78,78,78s78-34.99,78-78c0-1.243-0.237-2.428-0.652-3.526    c0.003-0.001,0.005-0.003,0.008-0.004L92.462,99.559H226v34.074c0,5.522,4.478,10,10,10s10-4.478,10-10V84.821    c3.251,0.788,6.643,1.217,10.133,1.217c3.396,0,6.696-0.408,9.867-1.155v239.531c0,5.522,4.478,10,10,10s10-4.478,10-10V99.559    h133.541l-62.894,166.67c0.003,0.001,0.006,0.001,0.009,0.002c-0.415,1.099-0.652,2.284-0.652,3.528c0,43.01,34.99,78,78,78    s78-34.99,78-78C512.003,268.516,511.766,267.331,511.351,266.233z M24.462,259.759L68,144.383v115.376H24.462z M88,144.383    l43.538,115.376H88V144.383z M78,327.759c-28.571,0-52.384-20.769-57.138-48h114.275C130.384,306.991,106.571,327.759,78,327.759z     M233.115,43.02c0-12.692,10.325-23.019,23.018-23.019s23.019,10.326,23.019,23.019s-10.326,23.018-23.019,23.018    S233.115,55.712,233.115,43.02z M380.465,259.759l43.538-115.376v115.376H380.465z M444.003,144.383l43.538,115.376h-43.538    V144.383z M434.003,327.759c-28.571,0-52.384-20.769-57.138-48h114.275C486.387,306.991,462.574,327.759,434.003,327.759z"/>
		<path id="XMLID_1347_" d="M324.635,434.414H286v-30c0-5.522-4.478-10-10-10s-10,4.478-10,10v30h-20v-220.78    c0-5.522-4.478-10-10-10s-10,4.478-10,10v220.78h-38.635c-37.268,0-67.587,30.319-67.587,67.588c0,5.522,4.478,10,10,10h252.443    c5.522,0,10-4.478,10-10C392.222,464.733,361.902,434.414,324.635,434.414z M140.835,492.001    c4.606-21.455,23.72-37.588,46.53-37.588H236h40h48.635c22.811,0,41.924,16.133,46.53,37.588H140.835z"/>
		<path id="XMLID_1348_" d="M276,374.414c2.63,0,5.21-1.07,7.069-2.93c1.86-1.86,2.931-4.44,2.931-7.07s-1.07-5.21-2.931-7.07    c-1.859-1.859-4.439-2.93-7.069-2.93s-5.21,1.07-7.07,2.93c-1.86,1.86-2.93,4.44-2.93,7.07c0,2.64,1.069,5.21,2.93,7.07    C270.79,373.343,273.37,374.414,276,374.414z"/>
		<path id="XMLID_1349_" d="M236,183.633c2.63,0,5.21-1.07,7.069-2.93c1.86-1.86,2.931-4.44,2.931-7.07s-1.07-5.21-2.931-7.07    c-1.859-1.859-4.439-2.93-7.069-2.93s-5.21,1.07-7.07,2.93c-1.86,1.86-2.93,4.44-2.93,7.07s1.069,5.21,2.93,7.07    C230.79,182.563,233.37,183.633,236,183.633z"/>
	</g>
</g>















</svg>
