<?xml version="1.0" encoding="iso-8859-1"?>
<!-- Generator: Adobe Illustrator 19.0.0, SVG Export Plug-In . SVG Version: 6.00 Build 0)  -->
<svg version="1.1" id="Capa_1" xmlns="http://www.w3.org/2000/svg" xmlns:xlink="http://www.w3.org/1999/xlink" x="0px" y="0px"
	 viewBox="0 0 116.001 116.001" style="enable-background:new 0 0 116.001 116.001;" xml:space="preserve">
<g id="_x0A_scientist">
	<g>
		<path style="fill-rule:evenodd;clip-rule:evenodd;" d="M102.851,90.05c-0.964-1.113-2.024-2.112-3.316-2.869
			c-2.928-1.711-5.845-3.441-8.729-5.225c-1.337-0.827-2.748-1.638-3.829-2.746c-0.987-1.015-2.056-1.72-3.319-2.249
			c-3.336-1.396-6.644-2.863-10.007-4.192c-1.104-0.437-2.01-0.946-2.573-2.021c-0.261-0.496-0.717-0.891-0.97-1.389
			c-1.934-3.806-2.145-7.631,0.447-11.186c3.683-5.051,6.688-10.48,9.444-16.063c0.61-2.75,2.247-4.011,5.097-3.522
			c0.108,0.019,0.225-0.022,0.336-0.027c1.103-0.051,1.946-0.593,2.558-1.462c0.389-0.55,0.768-1.147,0.965-1.782
			c0.729-2.371,1.507-4.737,2.021-7.158c0.349-1.65,0.38-3.414-0.863-4.843c-0.645-0.741-0.424-1.396-0.03-2.159
			c1.772-3.433,2.94-7.088,3.915-10.813c0.412-1.572,0.387-3.108,0.056-4.688c-0.439-2.085-1.673-3.442-3.646-4.087
			c-1.712-0.561-3.462-1.014-5.212-1.452c-0.534-0.133-1.136-0.149-1.681-0.062c-2.008,0.315-4.041,0.562-5.992,1.103
			c-1.256,0.349-2.243,0.488-3.461-0.227c-0.804-0.472-1.963-0.427-2.966-0.453C65.43,0.331,59.817,0.762,54.219,1.737
			C48.802,2.684,43.74,4.47,39.015,7.245c-0.573,0.337-1.215,0.713-1.569,1.242c-0.729,1.091-1.656,1.05-2.682,0.722
			c-2.893-0.926-5.777-0.664-8.693-0.101c-3.294,0.636-6.058,2.473-8.987,3.904c-1.408,0.688-2.488,2.005-3.037,3.544
			c-1.327,3.73-1.744,7.572-0.016,11.23c1.741,3.688,4.028,7.07,7.366,9.578c0.645,0.484,1.304,0.953,1.533,1.75
			c0.446,1.561,1.61,2.376,2.937,3.101c1.09,0.593,2.204,1.195,3.145,1.986c0.963,0.808,1.829,1.634,3.133,1.907
			c0.489,0.103,0.962,0.596,1.305,1.021c0.632,0.789,1.188,1.646,1.732,2.502c1.515,2.383,2.933,4.832,4.534,7.156
			c1.407,2.046,2.914,4.041,4.548,5.908c2.342,2.674,3.058,5.988,3.979,9.237c0.193,0.688-0.024,1.322-0.594,1.829
			c-1.691,1.508-3.413,2.979-5.434,4.038c-2.012,1.056-3.89,2.291-5.622,3.77c-1.285,1.097-2.722,1.97-4.293,2.661
			c-3.427,1.507-6.517,3.619-9.683,5.596c-1.19,0.742-1.718,1.729-1.623,3.104c0.055,0.788,0.027,1.585,0.106,2.372
			c0.131,1.262,0.61,2.407,1.389,3.409c0.506,0.652,1.147,1.125,2.037,0.939c0.931-0.194,1.203-0.926,1.315-1.757
			c0.01-0.073,0.023-0.147,0.035-0.22c-0.023-0.009-0.046-0.019-0.07-0.027c-0.24-0.23-0.48-0.46-0.72-0.69
			c0-0.054,0.004-0.108,0.007-0.163c-0.144-0.104-0.306-0.2-0.37-0.34c-0.062-0.141,0.045-0.357,0.077-0.541
			c0.096,0.138,0.241,0.264,0.279,0.416c0.034,0.147,0.023,0.307,0.014,0.465c0.029,0.021,0.06,0.041,0.086,0.062
			c0.238,0.234,0.478,0.47,0.715,0.704c-0.006,0.038-0.012,0.076-0.018,0.114c1.182,0.45,2.38,1.42,3.461-0.238
			c0.257-0.395,0.592,0.05,0.894,0.099c0.33,0.053,0.665,0.13,0.991,0.11c0.732-0.044,1.25-0.864,0.917-1.444
			c-0.62-1.078-1.283-2.131-1.898-3.212c-0.161-0.283-0.225-0.626-0.299-0.951c-0.016-0.071,0.099-0.194,0.182-0.258
			c0.06-0.047,0.214-0.075,0.245-0.04c0.301,0.329,0.578,0.678,0.873,1.012c0.518,0.587,1.028,1.184,1.58,1.737
			c0.131,0.132,0.494,0.219,0.612,0.135c0.245-0.176,0.543-0.476,0.552-0.734c0.021-0.55-0.106-1.11-0.218-1.657
			c-0.088-0.437-0.256-0.856-0.363-1.29c-0.021-0.086,0.052-0.213,0.116-0.295c0.027-0.034,0.177-0.03,0.212,0.008
			c0.225,0.251,0.423,0.524,0.647,0.776c0.679,0.763,1.438,1.118,2.345,0.366c0.433-0.358,0.624,0.048,0.77,0.271
			c0.495,0.755,0.909,1.563,1.398,2.324c0.782,1.222,1.124,2.729,2.362,3.657c-0.712,1.27-1.438,2.528-2.126,3.808
			c-0.668,1.238-0.515,2.106,0.517,3.024c2.279,2.029,4.543,4.077,6.859,6.063c2.062,1.767,4.201,3.445,6.634,4.689
			c1.18,0.602,2.313,0.432,2.754-0.323c0.348-0.596,0.022-1.468-0.955-2.31c-1.802-1.549-3.666-3.022-5.439-4.603
			c-1.772-1.578-3.536-3.179-5.171-4.896c-1.66-1.744-1.64-1.517-0.487-3.418c0.762-1.255,1.538-2.5,2.321-3.74
			c0.362-0.574,0.788-1.109,1.122-1.697c0.735-1.29-0.032-2.543-1.566-2.501c-0.778,0.021-1.555,0.216-2.328,0.356
			c-0.521,0.093-0.891-0.121-1.089-0.562c-1.104-2.478-2.181-4.965-3.275-7.446c-0.21-0.477-0.13-0.922,0.243-1.226
			c0.787-0.638,1.586-1.275,2.444-1.809c2.209-1.373,4.461-2.677,6.413-4.425c0.142-0.126,0.447-0.231,0.581-0.162
			c0.159,0.081,0.295,0.36,0.301,0.56c0.024,0.677,0.025,1.358-0.035,2.032c-0.189,2.137-0.514,4.268-0.598,6.407
			c-0.181,4.521-0.22,9.039,0.807,13.498c0.38,1.656,0.708,3.288,1.661,4.76c0.608,0.938,0.943,2.051,1.446,3.062
			c0.451,0.911,0.932,1.81,1.454,2.682c0.613,1.026,1.602,1.562,2.717,1.888c0.894,0.26,1.926-0.447,1.891-1.396
			c-0.027-0.774-0.25-1.543-0.387-2.313c-0.093-0.533,0.14-0.842,0.686-0.911c0.773-0.098,1.58-0.102,2.312-0.339
			c0.312-0.1,0.646-0.692,0.641-1.056c-0.007-0.363-0.344-0.869-0.677-1.044c-0.476-0.25-1.102-0.192-1.623-0.38
			c-0.622-0.223-1.219-0.538-1.79-0.871c-0.139-0.081-0.24-0.424-0.182-0.585c0.053-0.149,0.378-0.34,0.517-0.298
			c1.094,0.335,2.195,0.522,3.34,0.382c0.821-0.104,1.639-0.881,1.382-1.605c-0.373-1.054-0.533-1.81,0.742-2.271
			c0.249-0.089,0.514-0.527,0.513-0.803c-0.003-0.4-0.131-0.93-0.409-1.161c-0.301-0.251-0.847-0.185-1.264-0.325
			c-0.843-0.283-1.675-0.592-2.492-0.941c-0.166-0.071-0.237-0.366-0.352-0.557c0.207-0.06,0.428-0.199,0.616-0.163
			c0.771,0.149,1.503,0.424,2.325,0.148c0.812-0.271,1.135-1.269,0.503-1.869c-0.321-0.305-0.735-0.509-1.093-0.776
			c-0.225-0.17-0.138-0.283,0.184-0.402c0.73-0.272,1.534-0.144,1.81,0.41c1.105,2.228,1.943,4.631,3.339,6.655
			c1.091,1.583,1.154,2.803,0.188,4.287c-0.18,0.278-0.347,0.6-0.396,0.921c-0.049,0.314-0.002,0.679,0.118,0.975
			c0.228,0.57,0.722,0.938,1.319,0.844c0.393-0.06,0.759-0.4,1.094-0.667c0.165-0.132,0.27-0.369,0.343-0.578
			c1.36-3.959,2.587-7.985,2.972-12.146c0.341-3.703,0.167-7.459,0.155-11.191c-0.005-1.578-0.07-3.164-0.621-4.69
			c-0.138-0.381-0.134-0.953,0.064-1.282c0.33-0.549,0.801-0.019,1.142,0.129c2.486,1.084,4.952,2.215,7.425,3.331
			c0.516,0.232,1.038,0.45,1.543,0.702c0.453,0.225,0.679,0.646,0.547,1.107c-0.248,0.86-0.447,1.785-0.919,2.518
			c-0.995,1.544-1.753,3.184-2.21,4.934c-0.335,1.275-1.088,1.903-2.27,2.209c-0.872,0.225-1.775,0.384-2.602,0.723
			c-1.839,0.749-2.133,2.495-0.646,3.715c1.317,1.08,2.742,1.992,4.415,2.455c0.539,0.148,1.068,0.343,1.588,0.553
			c0.434,0.176,0.601,0.726,0.366,1.129c-1.257,2.167-2.771,4.132-4.656,5.796c-1.188,1.049-2.459,2.012-3.575,3.13
			c-1.671,1.677-3.253,3.444-4.843,5.201c-0.437,0.483-0.339,1.352,0.103,1.885c0.521,0.629,1.544,0.831,2.126,0.323
			c0.677-0.591,1.358-1.212,1.885-1.933c1.483-2.031,3.334-3.67,5.229-5.296c1.366-1.171,2.68-2.452,3.79-3.861
			c1.396-1.771,2.581-3.712,3.818-5.604c0.645-0.986,0.328-1.972-0.804-2.501c-1.527-0.714-3.086-1.359-4.623-2.051
			c-0.194-0.088-0.342-0.28-0.51-0.425c0.135-0.126,0.249-0.326,0.405-0.368c2.011-0.553,2.996-1.916,3.119-3.943
			c0.043-0.709,0.317-1.286,0.696-1.871c0.444-0.683,0.399-0.712,0.96,0.024c1.02,1.34,2.002,1.36,2.898,0.016
			c0.5-0.751,0.908-1.563,1.377-2.336c0.312-0.517,0.811-0.676,1.07-0.319c0.165,0.224,0.271,0.622,0.186,0.869
			c-0.253,0.744-0.667,1.435-0.908,2.183c-0.131,0.407-0.056,0.888-0.027,1.334c0.023,0.373,0.788,0.694,1.091,0.456
			c0.345-0.271,0.711-0.547,0.972-0.893c0.476-0.63,0.835-1.351,1.331-1.959c0.313-0.383,0.778-0.321,1.211-0.045
			c0.534,0.338,0.694,0.81,0.737,1.412c0.036,0.531,0.418,0.828,0.919,0.56c1.165-0.623,1.927,0.09,2.714,0.731
			c0.499,0.405,0.605,0.885,0.222,1.468c-0.304,0.46-0.68,1.046-0.008,1.438c0.314,0.184,0.91,0.148,1.249-0.032
			c0.737-0.397,1.45-0.559,2.273-0.396c0.318,0.064,0.676,0.004,1.005-0.06C102.952,92.025,103.453,90.744,102.851,90.05z
			 M87.519,33.318c-0.321,1.124-1.098,1.944-2.313,2.268c-1.433,0.381-1.818,0.105-1.918-1.488
			c-0.163-2.618,0.419-5.138,1.121-7.621c0.302-1.074,1.677-1.477,2.823-1.037c0.573,0.221,0.979,0.569,1.033,1.198
			c0.059,0.675,0.068,1.354,0.124,2.644C88.187,30.245,87.951,31.811,87.519,33.318z M84.112,19.958
			c0.037-0.681,0.142-0.834,1.241-1.147c0.755-0.216,1.519-0.407,2.289-0.558c0.111-0.021,0.424,0.323,0.398,0.37
			c-0.571,1.091-1.146,2.183-1.801,3.222c-0.142,0.227-0.591,0.277-0.91,0.37c-0.615,0.18-1.176-0.17-1.213-0.747
			C84.094,21.131,84.112,20.792,84.112,19.958z M89.889,14.52c-0.234,0.988-0.66,1.5-1.855,1.498
			c-1.081-0.002-2.162,0.501-3.247,0.782c-0.089-0.055-0.244-0.099-0.262-0.175c-0.043-0.182-0.098-0.488-0.011-0.552
			c1.74-1.236,3.501-2.446,5.261-3.655c0.083-0.059,0.277-0.117,0.287-0.098c0.109,0.187,0.292,0.406,0.259,0.581
			C90.22,13.449,90.018,13.976,89.889,14.52z M81.653,7.835c0.165-0.401,0.386-0.802,0.675-1.124
			c0.907-1.012,1.774-2.021,2.062-3.424c0.105-0.512,0.573-0.545,1.078-0.373c1.061,0.361,2.135,0.688,3.218,0.978
			c2.212,0.59,2.82,1.29,2.926,3.484c0.011,0.226,0.001,0.452,0.001,0.899c-0.006,0.115-0.018,0.453-0.044,0.789
			c-0.052,0.66-0.453,1.036-1.099,0.726c-0.875-0.421-1.575-0.13-2.221,0.275c-1.237,0.773-2.391,1.679-3.604,2.495
			c-0.267,0.181-0.688,0.276-0.845-0.154c-0.103-0.277-0.169-0.735-0.017-0.907c0.963-1.095,2.04-2.094,2.982-3.208
			c0.411-0.487,0.651-1.151,0.845-1.775c0.077-0.247-0.107-0.694-0.32-0.877c-0.2-0.172-0.695-0.259-0.887-0.128
			c-0.831,0.562-1.604,1.208-2.384,1.841c-0.521,0.423-1.002,0.895-1.541,1.293c-0.086,0.063-0.419-0.104-0.561-0.242
			C81.771,8.26,81.599,7.971,81.653,7.835z M79.747,3.182c0.209-0.057,0.44-0.037,0.661-0.053c0.208,0.053,0.418,0.096,0.622,0.162
			c0.306,0.097,0.36,0.291,0.129,0.509c-0.311,0.292-0.607,0.643-0.979,0.815c-0.491,0.229-1.155-0.151-1.271-0.71
			C78.772,3.255,79.359,3.287,79.747,3.182z M34.956,15.982c3.47-3.33,7.537-5.712,11.987-7.458
			c3.584-1.404,7.299-2.295,11.136-2.668c2.8-0.273,5.599-0.569,8.397-0.855c0.007,0.06,0.013,0.119,0.021,0.18
			c1.241,0,2.488,0.067,3.724-0.016c2.056-0.139,3.729,0.668,5.257,1.924c3.866,3.184,5.409,7.364,5.262,12.268
			c-0.025,0.789-0.38,1.215-1.17,1.44c-0.867,0.246-1.781,0.366-2.606,0.704c-1.609,0.661-2.892,0.674-4.117-0.88
			c-0.916-1.162-2.399-1.623-3.906-1.812c-0.893-0.111-1.771-0.333-2.663-0.444c-2.51-0.311-4.733,0.151-6.172,2.489
			c-0.553,0.902-1.197,1.057-2.257,0.799c-2.199-0.533-4.244,0.112-6.064,1.389c-0.673,0.473-1.19,0.449-1.805-0.041
			c-1.962-1.565-4.376-1.681-6.71-1.99c-1.542-0.204-2.885,0.346-3.973,1.475c-0.392,0.407-0.785,0.811-1.187,1.208
			c-0.667,0.66-1.462,1.066-2.408,1.088c-1.467,0.035-2.935,0.042-4.4,0.047c-0.415,0.002-0.824-0.556-0.708-0.952
			C31.456,20.918,32.686,18.16,34.956,15.982z M72.327,26.446c-0.291,1.426-0.5,2.875-0.897,4.271
			c-0.347,1.209-1.312,1.837-2.566,1.837c-1.127,0-2.277,0-3.373-0.221c-2.149-0.433-3.527-2.068-3.783-4.243
			c-0.395-3.346,0.824-5.115,4.085-5.941c1.108-0.281,2.228-0.292,3.355-0.141c1.938,0.259,2.987,1.431,3.017,3.385
			c0.006,0.339,0.002,0.678,0.002,1.018C72.22,26.422,72.273,26.435,72.327,26.446z M52.227,32.077c0-1.581-0.017-3.165,0.005-4.746
			c0.019-1.331,0.996-2.626,2.29-3.001c0.537-0.153,1.11-0.223,1.669-0.244c1.149-0.041,2.013,0.537,2.271,1.632
			c1.034,4.389,2.158,8.766,2.039,13.333c-0.047,1.803-0.208,2.139-2.072,2.479c-5.157,0.943-5.451,0.476-6.002-4.369
			c-0.191-1.674-0.03-3.388-0.03-5.084H52.227z M45.827,24.297c2.602,0.36,3.965,2.063,3.641,4.684
			c-0.223,1.793-0.743,3.521-1.869,4.992c-0.831,1.088-1.984,1.456-3.291,1.108c-2.353-0.626-3.924-2.169-4.812-4.353
			c-1.206-2.966,1.082-6.336,4.308-6.484c0.225-0.011,0.45-0.001,0.675-0.001v0.045C44.927,24.288,45.385,24.234,45.827,24.297z
			 M26.861,13.399c0.85-0.487,1.725-0.93,2.647-1.414c0.541,0.362,1.042,0.599,1.406,0.969c0.415,0.418,0.526,1.07,0.187,1.526
			c-0.446,0.597-1.044,1.099-1.65,1.542c-0.179,0.131-0.703,0.042-0.894-0.135c-0.64-0.598-1.217-1.27-1.78-1.944
			C26.695,13.844,26.756,13.459,26.861,13.399z M21.182,15.804c0.062-0.075,0.438-0.05,0.488,0.038
			c1.13,1.956,2.275,3.894,4.043,5.375c0.132,0.11,0.104,0.409,0.151,0.619c-0.176,0.12-0.343,0.322-0.527,0.34
			c-0.2,0.018-0.464-0.081-0.615-0.221c-1.674-1.557-2.967-3.377-3.72-5.551C20.945,16.237,21.058,15.958,21.182,15.804z
			 M24.982,30.608c-0.193,0.234-0.44,0.6-0.754,0.893c-0.128,0.117-0.479,0.182-0.597,0.095c-1.365-1.013-2.319-2.362-3.042-3.883
			c-0.031-0.063,0.041-0.205,0.104-0.277c0.037-0.044,0.185-0.062,0.222-0.028c1.125,1.072,2.186,2.238,3.838,2.508
			c0.096,0.017,0.213,0.115,0.252,0.205C25.044,30.209,24.999,30.338,24.982,30.608z M24.499,26.718
			c-0.858-0.613-1.592-1.338-1.949-2.361c-0.048-0.013-0.097-0.025-0.146-0.039c-0.029-0.087-0.048-0.178-0.09-0.258
			c-0.027-0.053-0.087-0.087-0.134-0.129c0.105,0.1,0.21,0.199,0.313,0.297c0.014,0.046,0.04,0.083,0.056,0.129
			c0.887,0.24,1.784,0.453,2.647,0.762c0.189,0.067,0.34,0.541,0.317,0.812c-0.024,0.283-0.243,0.582-0.452,0.801
			C24.971,26.827,24.632,26.813,24.499,26.718z M31.255,42.496c-0.082,0.1-0.477,0.078-0.626-0.03
			c-1.446-1.051-2.919-2.073-4.283-3.226c-0.806-0.68-1.019-1.717-0.986-2.915c0.169-0.624,0.343-1.393,0.592-2.136
			c0.195-0.586,1.047-1.181,1.563-1.116c0.617,0.079,0.982,0.503,1.19,1.06c0.946,2.525,1.895,5.047,2.804,7.586
			C31.584,41.93,31.418,42.293,31.255,42.496z M45.456,57.289c-1.019-1.609-2.436-2.961-3.624-4.469
			c-0.696-0.883-1.428-1.782-1.904-2.789c-0.873-1.848-1.939-3.565-3.128-5.213c-2.139-2.966-3.604-6.242-4.56-9.76
			c-0.237-0.87-0.55-1.72-0.798-2.586c-0.256-0.89,0.008-1.271,0.91-1.365c0.338-0.036,0.677-0.045,0.967-0.064
			c0.681-0.09,1.141,0.133,1.37,0.754c0.039,0.105,0.1,0.202,0.143,0.307c1.996,4.64,6.552,6.275,11.549,5.738
			c1.185-0.129,2.066-0.845,2.975-1.516c0.16-0.118,0.377-0.154,0.569-0.229c0.033,0.212,0.119,0.432,0.091,0.636
			c-0.186,1.337-0.424,2.668-0.588,4.007c-0.098,0.797,0.065,1.558,0.496,2.272c0.273,0.454,0.641,1.027,0.559,1.47
			c-0.091,0.482-0.627,0.901-1.016,1.303c-0.867,0.892-1.764,1.751-2.644,2.63c-0.317,0.319-0.646,0.634-0.916,0.992
			c-0.618,0.816-0.173,2.18,0.811,2.53c1.014,0.361,1.982,0.222,2.954-0.213c2.268-1.01,4.578-1.93,6.814-3.002
			c0.977-0.469,1.837-0.442,2.891-0.356c3.047,0.25,6.035,0.695,8.98,1.511c0.897,0.248,1.701-0.104,2.077-0.741
			c0.494-0.837,0.281-2.177-0.543-2.754c-0.642-0.447-1.36-0.805-2.086-1.1c-1.672-0.677-3.373-1.28-5.053-1.938
			c-0.271-0.105-0.733-0.271-0.403-0.686c1.861-2.335,1.557-4.818,0.568-7.363c-0.081-0.207-0.176-0.412-0.234-0.627
			c-0.024-0.094,0-0.283,0.048-0.299c0.171-0.06,0.363-0.082,0.549-0.082c0.106,0,0.217,0.062,0.316,0.111
			c1.898,0.965,3.942,0.853,5.976,0.799c1.082-0.027,1.918-0.555,2.683-1.279c1.204-1.143,1.755-2.604,2.102-4.166
			c0.146-0.658,0.292-1.328,0.323-1.998c0.155-3.254-0.049-2.35,3.071-3.382c0.629-0.207,1.338-0.185,2.011-0.238
			c0.435-0.035,0.906,0.45,0.833,0.853c-0.639,3.433-1.286,6.863-1.938,10.294c-0.043,0.219-0.14,0.431-0.23,0.637
			c-2.135,4.854-4.129,9.773-7.09,14.221c-1.375,2.065-2.655,4.196-3.933,6.325c-1.17,1.949-2.564,3.714-4.182,5.302
			c-0.209,0.204-0.659,0.384-0.877,0.291c-0.215-0.091-0.315-0.532-0.396-0.839c-0.114-0.434-0.11-0.902-0.258-1.319
			c-0.106-0.297-0.383-0.76-0.579-0.759c-1.12,0.008-2.047-1.068-3.189-0.617c-0.832,0.329-1.257,0.065-1.596-0.667
			c-0.2-0.433-0.596-0.729-1.069-0.55c-0.274,0.104-0.582,0.435-0.646,0.715c-0.25,1.093-0.442,2.146-1.256,3.055
			c-0.393,0.44-0.29,1.293-0.53,1.916c-0.08,0.207-0.547,0.416-0.796,0.374c-0.431-0.069-0.96-0.226-1.221-0.536
			C49.155,60.858,46.874,59.528,45.456,57.289z M56.609,89.838c-0.981,2.875-1.97,5.748-2.976,8.613
			c-0.048,0.138-0.337,0.311-0.461,0.276c-0.188-0.052-0.445-0.25-0.477-0.423c-0.419-2.201-0.804-4.411-1.106-6.1
			c0-0.997,0.009-1.447-0.001-1.896c-0.017-0.734,0.254-1.297,0.889-1.697c0.381-0.238,0.727-0.533,1.087-0.805
			c1.081-0.811,1.081-0.812,2.214-0.015C57.001,88.651,57.012,88.654,56.609,89.838z M52.995,76.73
			c0.61-0.179,2.05,0.877,2.114,1.416c0.09,0.777,0.085,1.565,0.121,2.349c-0.034,0.001-0.07,0.002-0.104,0.003
			c0,0.562-0.021,1.127,0.003,1.69c0.069,1.686-1.228,2.259-2.393,2.926c-0.069,0.041-0.444-0.211-0.442-0.321
			c0.034-1.683,0.083-3.366,0.186-5.045c0.034-0.553,0.209-1.103,0.364-1.641C52.977,77.639,52.165,76.973,52.995,76.73z
			 M59.478,99.158c0.045,0.033,0.074,0.176,0.043,0.216c-0.06,0.08-0.165,0.17-0.257,0.174c-0.599,0.033-1.148-0.319-1.232-0.769
			c0.136-0.104,0.332-0.321,0.4-0.286C58.799,98.678,59.14,98.92,59.478,99.158z M58.697,78.202l0.181,0.021l-0.109,0.176
			L58.697,78.202z M61.445,83.748c-0.28,0.139-0.61,0.172-0.803,0.22c-0.345-0.034-0.564-0.044-0.776-0.083
			c-0.102-0.02-0.214-0.08-0.281-0.155c-0.025-0.029,0.039-0.212,0.091-0.227c0.602-0.171,1.208-0.33,1.818-0.469
			c0.06-0.014,0.234,0.163,0.22,0.209C61.654,83.427,61.586,83.678,61.445,83.748z M61.958,73.701
			c-1.052,0.656-2.158,1.226-3.241,1.831c-1.135-0.496-2.268-0.995-3.405-1.487c-0.826-0.357-1.628-0.865-2.491-1.016
			c-1.116-0.194-1.498-0.873-1.719-1.801c-0.105-0.438-0.177-0.887-0.265-1.331c-0.136-0.427-0.319-0.848-0.393-1.288
			c-0.062-0.361,0.087-0.621,0.559-0.525c2.908,0.58,5.853,0.264,8.783,0.364c0.923,0.033,1.784-0.262,2.541-0.812
			c0.729-0.531,1.449-1.078,2.181-1.605c0.341-0.246,0.648-0.106,0.754,0.239c0.195,0.645,0.411,1.311,0.445,1.976
			c0.079,1.505-0.172,2.91-1.562,3.853C63.398,72.605,62.724,73.225,61.958,73.701z M63.485,79.111
			c-0.27-0.095-0.446-0.48-0.645-0.747c-0.306-0.409-0.333-0.897,0.036-1.214c0.679-0.584,1.421-1.099,2.169-1.591
			c0.443-0.29,1.051-0.773,1.406-0.652c0.574,0.198,1.146,0.742,1.449,1.289c0.37,0.667,0.481,1.482,0.666,2.243
			c0.079,0.324,0.083,0.67,0.089,1.007c0.013,0.675,0.003,1.35,0.003,2.024c0.037,0,0.074,0.002,0.11,0.003
			c-0.054,0.668-0.101,1.337-0.166,2.004c-0.011,0.102-0.111,0.28-0.163,0.277c-0.192-0.009-0.455-0.014-0.562-0.135
			c-0.447-0.503-0.862-1.036-1.256-1.58C65.764,80.859,64.975,79.631,63.485,79.111z M69.591,95.567
			c-0.028,0.183-0.296,0.482-0.409,0.464c-0.263-0.042-0.617-0.187-0.729-0.397c-1.201-2.275-2.327-4.592-3.55-6.854
			c-0.708-1.313-0.225-2.631-0.201-3.949c0.001-0.112,0.225-0.222,0.342-0.328c0.198,0.164,0.402,0.279,0.532,0.45
			c0.547,0.709,1.042,1.457,1.607,2.148c0.713,0.87,1.47,1.685,2.707,1.832c0.221,0.026,0.586,0.472,0.56,0.685
			C70.209,91.605,69.907,93.588,69.591,95.567z"/>
	</g>
</g>
<g>
</g>
<g>
</g>
<g>
</g>
<g>
</g>
<g>
</g>
<g>
</g>
<g>
</g>
<g>
</g>
<g>
</g>
<g>
</g>
<g>
</g>
<g>
</g>
<g>
</g>
<g>
</g>
<g>
</g>
</svg>
