<?xml version="1.0"?>
<svg xmlns="http://www.w3.org/2000/svg" xmlns:xlink="http://www.w3.org/1999/xlink" version="1.1" id="Capa_1" x="0px" y="0px" width="512px" height="512px" viewBox="0 0 102.519 102.519" style="enable-background:new 0 0 102.519 102.519;" xml:space="preserve"><g><g>
	<g>
		<circle cx="27.863" cy="17.12" r="14.227" data-original="#000000" class="active-path" data-old_color="#CD0505" fill="#C50505"/>
		<path d="M100.878,68.305c-6.896-10.631-16.937-18.316-28.565-22.96c-1.611-2.756-3.27-5.138-5.074-7.263l6.174-11.405    c0.094-0.171,0.043-0.385-0.114-0.498c-0.158-0.114-0.376-0.093-0.509,0.051L64.5,35.17c-2.721-2.61-5.825-4.826-9.606-6.917    c4.622-6.726,10.187-11.979,17.101-16.838c6.404-4.503-0.092-14.823-6.545-10.288c-9.871,6.939-17.54,14.66-23.676,25.066    c-0.179,0.303-0.319,0.604-0.441,0.902c-1.28,0.908-2.356,2.141-3.085,3.654c-0.193,0.402-0.346,0.812-0.48,1.226    c-7.713,2.11-15.603,2.702-23.647,2.595c-7.87-0.106-7.372,12.077,0.459,12.182c9.373,0.125,18.751-0.755,27.747-3.412    c0.133,0.072,0.261,0.151,0.398,0.218c4.01,1.933,6.701,3.625,8.933,5.896l-8.62,9.382l-4.882-2.229l-2.251-9.831    c-0.075-0.331-0.348-0.578-0.684-0.621c-0.337-0.043-0.663,0.129-0.819,0.429c-0.226,0.437-1.87,3.605-4.227,8.113    c-3.159,0.429-8.797,2.168-14.04,8.814c-3.247,4.117-4.529,8.791-6.016,14.204c-1,3.64-2.132,7.763-4.035,12.353    c-1.259,3.035-4.094,7.559-5.579,9.692c0.287,0.039,0.574,0.077,0.859,0.107l13.034,1.088c4.759,0.131,9.679,0.268,14.475,0.906    c1.874,0.249,3.622,0.437,5.341,0.573c0.422,0.033,0.844,0.06,1.266,0.081c0.126,0.008,0.25-0.016,0.363-0.064    c0.082-0.036,0.158-0.085,0.225-0.146c0.159-0.146,0.253-0.351,0.26-0.566c0.357-10.899,0.726-20.12,1.097-24.472l0.77,0.021    l10.792,0.352l1.787,0.087c2.754,0.146,5.135,0.271,6.615-0.37c0.062-0.026,0.123-0.056,0.181-0.086    c2.521-1.262,3.01-2.803,3.521-6.018c0.177-1.108,0.1-1.995-0.247-2.789c-0.572-1.32-1.832-2.328-4.349-3.479l-4.666-2.132    l4.271-7.219c0.386,0.687,0.776,1.403,1.181,2.183c0.683,1.318,1.633,2.405,2.746,3.242c0.086,0.187,0.174,0.371,0.278,0.558    c4.332,7.667,6.089,16.493,4.03,25.124c-2.032,8.512,11.162,11.589,13.188,3.105c2.271-9.519,1.184-19.197-2.293-28.126    c5.674,3.517,10.58,8.248,14.219,13.858C94.195,82.897,105.642,75.653,100.878,68.305z M55.824,66.452    c2.088,0.956,3.146,1.749,3.539,2.652c0.217,0.502,0.26,1.103,0.133,1.895c-0.508,3.201-0.93,3.968-2.649,4.83    c-0.032,0.017-0.065,0.032-0.101,0.047c-1.131,0.49-3.443,0.369-5.891,0.239l-1.803-0.087l-12.343-0.395    c-0.121-0.003-0.237,0.021-0.341,0.065c-0.262,0.113-0.454,0.362-0.483,0.664l-0.007,0.069    c-0.386,4.133-0.768,11.841-1.136,22.922c-0.134-0.009-0.268-0.019-0.402-0.028c-1.69-0.134-3.409-0.319-5.256-0.564    c-4.878-0.649-9.843-0.787-14.642-0.92c-2.211-0.061-4.482-0.124-6.735-0.237c1.759-1.818,2.755-3.262,3.144-3.871    c4.348-6.819,19.567-35.985,23.97-44.457l1.849,8.076c0.056,0.245,0.223,0.449,0.451,0.554L55.824,66.452z" data-original="#000000" class="active-path" data-old_color="#CD0505" fill="#C50505"/>
	</g>
</g></g> </svg>
