<?xml version="1.0" encoding="iso-8859-1"?>
<!-- Generator: Adobe Illustrator 19.0.0, SVG Export Plug-In . SVG Version: 6.00 Build 0)  -->
<svg version="1.1" id="Capa_1" xmlns="http://www.w3.org/2000/svg" xmlns:xlink="http://www.w3.org/1999/xlink" x="0px" y="0px"
	 viewBox="0 0 512 512" style="enable-background:new 0 0 512 512;" xml:space="preserve">
<g>
	<g>
		<path d="M489.5,413.5h-46V251c0-4.143-3.358-7.5-7.5-7.5h-19.75c-4.142,0-7.5,3.357-7.5,7.5s3.358,7.5,7.5,7.5h12.25v155h-105
			v-155h60.75c4.142,0,7.5-3.357,7.5-7.5s-3.358-7.5-7.5-7.5H323.5V201c0-4.143-3.358-7.5-7.5-7.5h-12.7
			c0.118-0.819,0.2-1.649,0.2-2.5v-4c0-12.958-10.542-23.5-23.5-23.5h-16.5v-15.708c9.149-1.721,17.217-6.525,23.088-13.292h0.622
			c20.562,0,37.29-16.729,37.29-37.29v-3.48c0-15.706-12.451-28.552-28-29.199V61c0-4.143-3.358-7.5-7.5-7.5h-66
			c-4.142,0-7.5,3.357-7.5,7.5v3.531c-15.549,0.647-28,13.494-28,29.199v3.479c0,20.562,16.728,37.29,37.29,37.29h0.622
			c5.871,6.767,13.939,11.572,23.088,13.292V163.5H232c-12.958,0-23.5,10.542-23.5,23.5v4c0,0.851,0.082,1.681,0.2,2.5H196
			c-4.142,0-7.5,3.357-7.5,7.5v54.667c0,4.143,3.358,7.5,7.5,7.5c4.142,0,7.5-3.357,7.5-7.5V208.5h105v205h-105V287.833
			c0-4.143-3.358-7.5-7.5-7.5c-4.142,0-7.5,3.357-7.5,7.5V303.5H76c-4.142,0-7.5,3.357-7.5,7.5v9c0,4.143,3.358,7.5,7.5,7.5
			c4.142,0,7.5-3.357,7.5-7.5v-1.5h105v95h-105V352c0-4.143-3.358-7.5-7.5-7.5c-4.142,0-7.5,3.357-7.5,7.5v61.5h-46
			C10.093,413.5,0,423.594,0,436s10.093,22.5,22.5,22.5h467c12.407,0,22.5-10.094,22.5-22.5S501.907,413.5,489.5,413.5z
			 M296.5,107.999V79.562c7.271,0.627,13,6.737,13,14.168v3.479c0,9.457-5.922,17.551-14.25,20.784
			C296.065,114.795,296.5,111.447,296.5,107.999z M202.5,97.21v-3.48c0-7.432,5.728-13.542,13-14.168V108
			c0,3.448,0.436,6.796,1.25,9.994C208.422,114.761,202.5,106.667,202.5,97.21z M230.5,108V68.5h51V108
			c0,14.061-11.439,25.5-25.5,25.5C241.939,133.5,230.5,122.061,230.5,108z M288.5,191c0,1.379-1.122,2.5-2.5,2.5h-60
			c-1.378,0-2.5-1.121-2.5-2.5v-4c0-4.687,3.813-8.5,8.5-8.5h48c4.687,0,8.5,3.813,8.5,8.5V191z M489.5,443.5h-467
			c-4.136,0-7.5-3.364-7.5-7.5s3.364-7.5,7.5-7.5h467c4.136,0,7.5,3.364,7.5,7.5S493.636,443.5,489.5,443.5z"/>
	</g>
</g>
<g>
</g>
<g>
</g>
<g>
</g>
<g>
</g>
<g>
</g>
<g>
</g>
<g>
</g>
<g>
</g>
<g>
</g>
<g>
</g>
<g>
</g>
<g>
</g>
<g>
</g>
<g>
</g>
<g>
</g>
</svg>
