<svg height="489pt" viewBox="-18 0 489 489.348" width="489pt" xmlns="http://www.w3.org/2000/svg"><path d="m397.175781 175.082031c0-94.394531-76.5625-170.917969-171-170.917969-94.441406 0-171 76.523438-171 170.917969s76.558594 170.917969 171 170.917969c94.4375 0 171-76.523438 171-170.917969zm0 0" fill="#6bdddd"/><g fill="#3762cc"><path d="m226.175781 350c-27.148437 0-52.492187-18.503906-71.363281-52.101562-18.457031-32.871094-28.625-76.488282-28.625-122.816407s10.167969-89.945312 28.625-122.816406c18.871094-33.597656 44.214844-52.101563 71.363281-52.101563 27.144531 0 52.488281 18.503907 71.359375 52.101563 18.457032 32.871094 28.625 76.488281 28.625 122.816406s-10.167968 89.945313-28.625 122.816407c-18.871094 33.597656-44.214844 52.101562-71.359375 52.101562zm0-341.835938c-50.722656 0-91.984375 74.878907-91.984375 166.917969 0 92.039063 41.261719 166.917969 91.984375 166.917969 50.71875 0 91.980469-74.878906 91.980469-166.917969 0-92.039062-41.261719-166.917969-91.980469-166.917969zm0 0"/><path d="m223.382812 110.714844c-46.746093 0-90.691406-18.195313-123.746093-51.234375-1.539063-1.539063-1.566407-4.027344-.058594-5.597657 33.332031-34.746093 78.203125-53.882812 126.34375-53.882812 46.742187 0 90.691406 18.195312 123.742187 51.230469 1.542969 1.542969 1.566407 4.027343.058594 5.597656-33.328125 34.75-78.195312 53.886719-126.339844 53.886719zm-115.253906-54.121094c31.199219 29.773438 71.96875 46.121094 115.253906 46.121094 44.621094 0 86.292969-17.226563 117.792969-48.59375-31.203125-29.773438-71.96875-46.121094-115.253906-46.121094-44.621094 0-86.292969 17.222656-117.792969 48.59375zm0 0"/><path d="m226.636719 350c-46.742188 0-90.6875-18.195312-123.742188-51.230469-1.539062-1.542969-1.566406-4.027343-.058593-5.597656 33.324218-34.75 78.195312-53.886719 126.34375-53.886719 46.742187 0 90.6875 18.195313 123.742187 51.234375 1.539063 1.539063 1.5625 4.023438.054687 5.597657-33.324218 34.746093-78.191406 53.882812-126.339843 53.882812zm-115.253907-54.121094c31.203126 29.773438 71.96875 46.125 115.253907 46.125 44.625 0 86.292969-17.226562 117.792969-48.59375-31.203126-29.773437-71.96875-46.121094-115.253907-46.121094-44.621093-.003906-86.292969 17.222657-117.792969 48.589844zm0 0"/><path d="m397.175781 184.214844h-342c-2.210937 0-4-1.792969-4-4 0-2.207032 1.789063-4 4-4h342c2.207031 0 4 1.792968 4 4 0 2.207031-1.792969 4-4 4zm0 0"/><path d="m226.175781 350c-96.496093 0-175-78.46875-175-174.917969s78.503907-174.917969 175-174.917969c96.496094 0 175 78.46875 175 174.917969s-78.503906 174.917969-175 174.917969zm0-341.835938c-92.085937 0-167 74.878907-167 166.917969 0 92.039063 74.914063 166.917969 167 166.917969 92.082031 0 167-74.878906 167-166.917969 0-92.039062-74.917969-166.917969-167-166.917969zm0 0"/></g><path d="m152.175781 485.347656h-148v-117.730468c0-5.523438 4.476563-10 10-10h128c5.519531 0 10 4.476562 10 10zm0 0" fill="#f9cfcf"/><path d="m300.175781 485.347656h-148v-198.628906c0-5.519531 4.476563-10 10-10h128c5.519531 0 10 4.480469 10 10zm0 0" fill="#f9a7a7"/><path d="m448.175781 485.347656h-148v-155.582031c0-5.523437 4.476563-10 10-10h128c5.519531 0 10 4.476563 10 10zm0 0" fill="#f9cfcf"/><path d="m224.984375 347.527344h-11.71875v-13.105469h26.207031v91.863281h-14.492187v-78.757812zm0 0" fill="#e0ebfc"/><path d="m340.042969 443.722656c21.675781-19.027344 44.484375-35.664062 44.484375-53.683594 0-9.574218-4.15625-16.128906-14.871094-16.128906-10.082031 0-15.5 7.054688-15.875 17.390625h-13.863281c.503906-19.910156 13.359375-29.613281 29.613281-29.613281 18.652344 0 29.234375 11.214844 29.234375 27.722656 0 22.304688-22.679687 39.316406-37.425781 52.800782h39.945312v11.96875h-61.242187zm0 0" fill="#e0ebfc"/><path d="m79.675781 376.1875c18.269531 0 28.222657 10.585938 28.222657 23.941406 0 10.964844-6.929688 18.398438-14.113282 20.792969v.503906c9.578125 2.894531 15.753906 10.835938 15.753906 23.5625 0 14.617188-10.332031 25.707031-29.488281 25.707031-17.390625 0-30.871093-9.074218-31.753906-27.09375h13.859375c.632812 8.570313 6.933594 15.121094 17.769531 15.121094 10.710938 0 16.003907-6.550781 16.003907-15.121094 0-12.097656-7.8125-16.253906-22.808594-16.253906h-3.273438v-11.847656h3.398438c12.980468-.125 20.917968-3.90625 20.917968-13.734375 0-7.941406-5.164062-13.234375-14.992187-13.234375-10.082031 0-14.742187 6.046875-15.628906 12.476562h-13.984375c1.003906-15.875 13.355468-24.820312 30.117187-24.820312zm0 0" fill="#e0ebfc"/><path d="m222.75 250.859375c-.695312-.105469-1.363281-.234375-2.011719-.386719-4.816406-1.128906-9.078125-3.953125-12.144531-7.859375l-3.082031-3.917969c-.460938-.582031-.761719-1.261718-.914063-1.980468-9.421875.835937-17.714844 5.628906-23.230468 12.710937h-.003907c-.019531.023438-.042969.050781-.0625.082031-.179687.230469-.351562.46875-.527343.707032-.109376.148437-.214844.292968-.320313.441406-.167969.234375-.328125.46875-.488281.707031-.105469.160157-.210938.320313-.316406.484375-.152344.234375-.300782.46875-.445313.707032-.105469.171874-.207031.34375-.308594.515624-.140625.238282-.277343.476563-.410156.71875-.101563.179688-.195313.363282-.292969.546876-.128906.238281-.253906.476562-.375.71875-.097656.195312-.1875.394531-.28125.589843-.113281.234375-.230468.472657-.335937.710938-.101563.234375-.199219.472656-.300781.710937-.15625.378906-.308594.757813-.453126 1.144532-.097656.261718-.199218.523437-.292968.792968-.074219.207032-.136719.421875-.207032.632813-.082031.257812-.167968.515625-.246093.773437-.0625.214844-.121094.433594-.179688.648438-.074219.261718-.144531.527344-.210937.789062-.054688.214844-.105469.4375-.15625.65625-.058594.269532-.117188.539063-.175782.8125-.042968.214844-.085937.429688-.125.648438-.050781.28125-.097656.566406-.140624.851562-.03125.210938-.066407.421875-.09375.636719-.042969.300781-.078126.601563-.109376.90625-.023437.199219-.046874.398437-.0625.601563-.03125.335937-.054687.675781-.074218 1.015624-.007813.167969-.023438.339844-.03125.511719-.023438.511719-.035156 1.027344-.035156 1.542969v6.695312h105.339843v-6.695312c0-.527344-.015625-1.050781-.039062-1.570312-.007813-.179688-.019531-.351563-.035157-.53125-.019531-.339844-.042968-.683594-.074218-1.023438-.019532-.210938-.042969-.421875-.066406-.628906-.035157-.300782-.070313-.597656-.113282-.894532-.03125-.226562-.0625-.453124-.101562-.679687-.042969-.273437-.089844-.546875-.140625-.820313-.042969-.238281-.089844-.472656-.136719-.707031-.050781-.25-.109375-.496093-.164062-.746093-.058594-.25-.117188-.5-.179688-.75-.050781-.203126-.109375-.402344-.164062-.605469-.300782-1.089844-.65625-2.160157-1.0625-3.199219-.03125-.089844-.066407-.175781-.097657-.265625-.140625-.34375-.285156-.683594-.433593-1.023437-.042969-.097657-.082032-.191407-.125-.285157-.15625-.347656-.316407-.6875-.484376-1.023437-.035156-.078125-.074218-.152344-.109374-.226563-.179688-.359375-.363282-.714843-.554688-1.066406-.019531-.03125-.035156-.058594-.050781-.09375-5.457031-9.929687-15.78125-16.777344-27.738281-17.269531l-4.503907 5.808594c-4.867187 6.269531-12.695312 9.601562-20.519531 8.429687zm0 0" fill="#4671c6"/><path d="m247.773438 236.613281-4.503907 5.808594c-4.867187 6.277344-12.691406 9.609375-20.515625 8.4375-.695312-.105469-1.367187-.234375-2.015625-.386719-4.816406-1.128906-9.074219-3.957031-12.144531-7.859375l-3.082031-3.917969c-.457031-.582031-.757813-1.261718-.914063-1.980468-1.6875.152344-3.335937.433594-4.941406.824218l2.296875 4.414063 2.859375 3.636719c3.789062 4.816406 9.054688 8.214844 14.828125 9.566406.796875.1875 1.601563.339844 2.394531.460938 1.265625.1875 2.558594.285156 3.835938.285156 8.164062 0 16.085937-3.9375 21.199218-10.53125l2.902344-3.746094 2.914063-4.386719zm0 0" fill="#e0ebfc"/><path d="m204.597656 236.714844c.066406.332031.175782.652344.308594.964844.019531.039062.035156.082031.054688.121093.0625.125.128906.25.195312.371094.070312.117187.148438.226563.226562.339844.042969.058593.082032.125.128907.183593l3.082031 3.917969c3.066406 3.902344 7.328125 6.730469 12.144531 7.859375.644531.152344 1.316407.28125 2.011719.386719 7.824219 1.171875 15.652344-2.160156 20.519531-8.4375l4.492188-5.796875c.0625-.3125.101562-.628906.101562-.945312v-13.53125c-6.492187 3.398437-13.867187 5.328124-21.691406 5.328124-7.828125 0-15.210937-1.929687-21.703125-5.335937v13.566406c0 .34375.046875.679688.121094 1.011719.003906-.003906.003906-.003906.007812-.003906zm0 0" fill="#f9cfcf"/><path d="m273.554688 162.089844c-.097657 0-.195313.011718-.296876.015625v-4.476563c0-26.160156-21.078124-47.367187-47.082031-47.367187-26.003906 0-47.085937 21.207031-47.085937 47.367187v4.476563c-.101563-.003907-.199219-.015625-.296875-.015625-7.933594 0-14.363281 6.46875-14.363281 14.449218 0 7.984376 6.429687 14.453126 14.363281 14.453126.519531 0 1.03125-.03125 1.542969-.085938 4.855468 20.957031 23.527343 36.570312 45.839843 36.570312 22.308594 0 40.980469-15.617187 45.839844-36.570312.503906.054688 1.019531.085938 1.539063.085938 7.933593 0 14.367187-6.46875 14.367187-14.453126 0-7.980468-6.433594-14.449218-14.367187-14.449218zm0 0" fill="#f9cfcf"/><path d="m201.460938 178.402344c-2.644532 0-4.789063-2.144532-4.789063-4.789063v-8.085937c0-2.644532 2.144531-4.789063 4.789063-4.789063 2.644531 0 4.785156 2.144531 4.785156 4.789063v8.085937c.003906 2.644531-2.140625 4.789063-4.785156 4.789063zm0 0" fill="#3762cc"/><path d="m251.171875 178.402344c-2.644531 0-4.789063-2.144532-4.789063-4.789063v-8.085937c0-2.644532 2.144532-4.789063 4.789063-4.789063s4.789063 2.144531 4.789063 4.789063v8.085937c0 2.644531-2.144532 4.789063-4.789063 4.789063zm0 0" fill="#3762cc"/><path d="m226.316406 205.300781c-8.066406 0-14.628906-5.453125-14.628906-12.160156 0-2.207031 1.792969-4 4-4s4 1.792969 4 4c0 1.964844 2.722656 4.160156 6.628906 4.160156s6.628906-2.191406 6.628906-4.160156c0-2.207031 1.792969-4 4-4 2.207032 0 4 1.792969 4 4 .003907 6.703125-6.5625 12.160156-14.628906 12.160156zm0 0" fill="#3762cc"/><path d="m226.175781 231.472656c-22.792969 0-42.46875-14.871094-48.914062-36.546875-9.414063-.785156-16.832031-8.730469-16.832031-18.386719 0-8.902343 6.300781-16.347656 14.660156-18.074218v-.835938c0-28.324218 22.917968-51.367187 51.085937-51.367187s51.082031 23.042969 51.082031 51.367187v.835938c8.359376 1.726562 14.664063 9.171875 14.664063 18.074218 0 9.65625-7.421875 17.601563-16.835937 18.386719-6.445313 21.675781-26.121094 36.546875-48.910157 36.546875zm-45.835937-44.570312c1.839844 0 3.464844 1.269531 3.890625 3.097656 4.566406 19.707031 21.816406 33.472656 41.945312 33.472656 20.125 0 37.375-13.761718 41.941407-33.472656.457031-1.96875 2.320312-3.300781 4.324218-3.074219.367188.039063.738282.0625 1.113282.0625 5.714843 0 10.367187-4.6875 10.367187-10.453125 0-5.734375-4.609375-10.40625-10.289063-10.449218-.148437.007812-.296874.015624-.375.015624-1.046874 0-2.050781-.410156-2.800781-1.144531-.765625-.753906-1.199219-1.78125-1.199219-2.855469v-4.476562c0-23.914062-19.328124-43.367188-43.082031-43.367188-23.757812 0-43.085937 19.453126-43.085937 43.367188v4.476562c0 1.074219-.433594 2.101563-1.199219 2.855469-.765625.75-1.785156 1.191407-2.878906 1.140625-.074219 0-.285157-.011718-.359375-.019531-5.574219.003906-10.222656 4.695313-10.222656 10.457031 0 5.761719 4.648437 10.449219 10.363281 10.449219.378906 0 .746093-.023437 1.113281-.058594.144531-.015625.289062-.023437.433594-.023437zm0 0" fill="#3762cc"/><path d="m279.640625 280.71875h-105.339844c-2.207031 0-4-1.789062-4-4v-6.691406c0-.582032.015625-1.15625.042969-1.726563l.023438-.398437c.035156-.546875.058593-.933594.09375-1.316406l.050781-.488282c.054687-.519531.09375-.859375.140625-1.191406l.105468-.691406c.046876-.332032.101563-.660156.164063-.988282.042969-.226562.089844-.480468.140625-.730468.054688-.28125.125-.59375.195312-.898438l.171876-.730468c.074218-.292969.15625-.582032.234374-.875.0625-.234376.128907-.484376.207032-.738282l.210937-.667968c.003907-.015626.0625-.199219.066407-.210938l.542968-1.554688c.171875-.449218.339844-.875.519532-1.300781.160156-.390625.25-.597656.339843-.804687l.675781-1.425782c.140626-.277343.273438-.53125.40625-.785156l.34375-.640625c.167969-.300781.320313-.566406.476563-.832031l.328125-.546875c.175781-.289063.339844-.550781.511719-.8125l.351562-.535156c.1875-.277344.367188-.542969.550781-.800781l.296876-.410157c.246093-.339843.445312-.605469.644531-.863281.019531-.027344.101562-.132812.125-.164062 5.484375-7.039063 13.46875-11.914063 22.207031-13.617188v-11.136719c0-1.398437.730469-2.695312 1.929688-3.421875 1.199218-.722656 2.683593-.769531 3.925781-.117187 6.175781 3.234375 12.851562 4.875 19.847656 4.875 6.988281 0 13.664063-1.636719 19.835937-4.871094 1.238282-.648437 2.726563-.601563 3.925782.121094 1.195312.726562 1.929687 2.023437 1.929687 3.421875v10.84375c11.359375 1.714844 21.53125 8.734375 27.152344 18.964844.273437.503906.476563.898437.675781 1.292968l.128906.269532c.1875.371093.367188.753906.539063 1.140624.011719.019532.082031.183594.089844.203126.210937.488281.375.867187.527343 1.25.015626.035156.09375.234374.105469.273437.464844 1.195313.867188 2.402344 1.203125 3.625l.339844 1.328125c0 .003906.046875.195312.046875.199219l.179687.804687c.058594.289063.109376.554688.160157.828125.050781.28125.105469.582031.152343.882813l.117188.78125c.042969.332031.085938.664062.125 1l.070312.703125c.039063.378906.0625.757812.085938 1.140625l-3.972656.476562 3.988281-.277344.023437.398438v.003906c.027344.578125.042969 1.160156.042969 1.746094v6.695312c-.003906 2.203126-1.792969 3.992188-4.003906 3.992188zm-101.339844-8h97.339844v-2.691406c0-.46875-.011719-.929688-.035156-1.394532l-.03125-.488281c-.019531-.269531-.039063-.574219-.0625-.875l-.058594-.539062c-.03125-.28125-.0625-.542969-.101563-.804688l-.785156-3.804687c-.261718-.941406-.574218-1.890625-.929687-2.804688 0 0-.082031-.21875-.085938-.222656-.121093-.304688-.25-.609375-.378906-.910156l3.539063-1.890625-3.652344 1.632812c-.132813-.300781-.277344-.601562-.421875-.898437l-.109375-.214844c-.148438-.300781-.316406-.617188-.484375-.933594-4.933594-8.976562-14.199219-14.785156-24.257813-15.261718-.542968.003906-1.1875-.128907-1.746094-.394532-1.652343-.789062-2.5625-2.59375-2.199218-4.386718l.011718-7.539063c-11.285156 4.179687-24.105468 4.175781-35.382812-.007813v7.414063c.234375 1.097656.011719 2.328125-.636719 3.242187-.648437.914063-1.636719 1.601563-2.753906 1.738282l-.617187.074218c-7.84375.847657-15.089844 4.898438-19.9375 11.125-.027344.027344-.046876.058594-.070313.085938-.183594.242188-.320313.421875-.457031.605469l-2.28125 3.644531-1.128906 2.394531c-.136719.328125-.273438.664063-.398438 1l-1.101562 3.625c-.089844.394531-.140626.628907-.1875.863281l-.109376.570313c-.050781.261719-.089843.5-.128906.738281l-.085937.582032c-.035157.265624-.0625.53125-.09375.796874-.003907.003907-.023438.207032-.027344.214844l-.03125.296875c-.03125.3125-.046875.605469-.0625.898438l-.019531.277343c-.035156.636719-.042969 1.089844-.042969 1.546876v2.695312zm0 0" fill="#3762cc"/><path d="m260.441406 148.800781h24.492188c1.808594 0 3.277344-1.46875 3.277344-3.28125v-18.730469c0-20.828124-16.886719-37.714843-37.714844-37.714843h-1.167969c-5.433594 0-9.839844 4.402343-9.839844 9.835937v28.933594c-.003906 11.574219 9.378907 20.957031 20.953125 20.957031zm0 0" fill="#4671c6"/><path d="m229.753906 89.074219h-24.675781c-22.609375 0-40.941406 18.328125-40.941406 40.941406v15.492187c0 1.816407 1.476562 3.289063 3.292969 3.289063h22.03125c3.402343 0 6.769531-.601563 9.949218-1.804687 5.941406-2.246094 14.796875-7.003907 20.125-16.449219 0 0-4.304687 12.632812-7.597656 16.878906-.425781.550781 0 1.328125.695312 1.269531 15.09375-1.285156 26.949219-13.945312 26.949219-29.375v-20.417968c0-5.425782-4.398437-9.824219-9.828125-9.824219zm0 0" fill="#4671c6"/><path d="m284.929688 152.800781h-24.488282c-13.757812 0-24.957031-11.195312-24.957031-24.953125v-28.933594c0-7.628906 6.210937-13.839843 13.839844-13.839843h1.167969c23.003906 0 41.714843 18.714843 41.714843 41.714843v18.730469c.003907 4.015625-3.261719 7.28125-7.277343 7.28125zm-35.605469-59.726562c-3.21875 0-5.839844 2.621093-5.839844 5.839843v28.933594c0 9.347656 7.609375 16.953125 16.957031 16.953125h23.769532v-18.011719c0-18.589843-15.125-33.714843-33.714844-33.714843zm0 0" fill="#3762cc"/><path d="m189.464844 152.800781h-22.03125c-4.023438 0-7.292969-3.273437-7.292969-7.292969v-15.488281c0-24.785156 20.160156-44.945312 44.941406-44.945312h24.675781c7.621094 0 13.824219 6.203125 13.824219 13.828125v20.417968c0 17.246094-13.445312 31.898438-30.613281 33.359376-1.882812.171874-3.710938-.8125-4.617188-2.484376-.464843-.847656-.648437-1.796874-.5625-2.722656-2.441406 1.390625-4.820312 2.457032-6.957031 3.261719-3.625 1.371094-7.449219 2.066406-11.367187 2.066406zm-21.328125-8h21.324219c2.953124 0 5.824218-.519531 8.539062-1.546875 5.667969-2.144531 13.402344-6.433594 18.050781-14.671875 1.015625-1.800781 3.238281-2.527343 5.121094-1.683593s2.816406 2.984374 2.148437 4.941406c-.300781.890625-2.210937 6.421875-4.511718 11.421875 9.792968-3.601563 16.769531-13.097657 16.769531-23.941407v-20.417968c0-3.210938-2.613281-5.828125-5.824219-5.828125h-24.675781c-20.367187 0-36.941406 16.574219-36.941406 36.945312zm0 0" fill="#3762cc"/><path d="m272.410156 148.800781c.539063 2.859375.847656 5.808594.847656 8.828125v4.476563c.101563-.003907.199219-.015625.296876-.015625 3.722656 0 7.097656 1.433594 9.652343 3.765625v-17.054688zm0 0" fill="#4671c6"/><path d="m283.207031 169.855469c-.980469 0-1.949219-.359375-2.703125-1.046875-1.914062-1.753906-4.382812-2.71875-6.949218-2.71875l-.179688.011718c-1.066406.019532-2.128906-.375-2.90625-1.128906-.773438-.753906-1.210938-1.789062-1.210938-2.867187v-4.476563c0-2.632812-.261718-5.351562-.777343-8.089844-.21875-1.167968.089843-2.375.855469-3.292968.757812-.917969 1.882812-1.445313 3.074218-1.445313h10.792969c2.207031 0 4 1.792969 4 4v17.054688c0 1.585937-.9375 3.023437-2.386719 3.664062-.515625.226563-1.066406.335938-1.609375.335938zm-5.949219-11.386719c.65625.136719 1.308594.308594 1.949219.515625v-6.183594h-2.1875c.160157 1.625.238281 3.238281.238281 4.828125zm0 0" fill="#3762cc"/><path d="m169.429688 148.800781v16.796875c2.515624-2.183594 5.78125-3.507812 9.363281-3.507812.097656 0 .195312.011718.296875.015625v-4.476563c0-3.019531.304687-5.96875.84375-8.828125zm0 0" fill="#4671c6"/><path d="m169.429688 169.597656c-.5625 0-1.128907-.121094-1.664063-.363281-1.421875-.648437-2.335937-2.074219-2.335937-3.636719v-16.796875c0-2.207031 1.789062-4 4-4h10.503906c1.191406 0 2.316406.527344 3.078125 1.445313.761719.914062 1.070312 2.125.851562 3.292968-.511719 2.722657-.773437 5.445313-.773437 8.089844v4.476563c0 1.082031-.4375 2.113281-1.210938 2.867187-.777344.753906-1.855468 1.148438-2.90625 1.128906-.058594 0-.242187-.011718-.296875-.015624-2.351562.003906-4.742187.898437-6.628906 2.53125-.742187.644531-1.675781.980468-2.617187.980468zm4-16.796875v6.09375c.542968-.167969 1.101562-.308593 1.660156-.425781v-.839844c0-1.59375.078125-3.207031.234375-4.828125zm0 0" fill="#3762cc"/><path d="m152.175781 489.347656h-148c-2.210937 0-4-1.792968-4-4v-117.730468c0-7.722657 6.28125-14 14-14h128c7.714844 0 14 6.277343 14 14v117.730468c0 2.207032-1.792969 4-4 4zm-144-8h140v-113.730468c0-3.308594-2.695312-6-6-6h-128c-3.308593 0-6 2.691406-6 6zm0 0" fill="#3762cc"/><path d="m300.175781 489.347656h-148c-2.210937 0-4-1.792968-4-4v-198.628906c0-7.71875 6.28125-14 14-14h128c7.714844 0 14 6.28125 14 14v198.628906c0 2.207032-1.792969 4-4 4zm-144-8h140v-194.628906c0-3.308594-2.695312-6-6-6h-128c-3.308593 0-6 2.691406-6 6zm0 0" fill="#3762cc"/><path d="m448.175781 489.347656h-148c-2.210937 0-4-1.792968-4-4v-155.582031c0-7.71875 6.28125-14 14-14h128c7.714844 0 14 6.28125 14 14v155.582031c0 2.207032-1.792969 4-4 4zm-144-8h140v-151.582031c0-3.308594-2.695312-6-6-6h-128c-3.308593 0-6 2.691406-6 6zm0 0" fill="#3762cc"/></svg>