<svg height="496pt" viewBox="0 0 496 496.08726" width="496pt" xmlns="http://www.w3.org/2000/svg" xmlns:xlink="http://www.w3.org/1999/xlink"><linearGradient id="a" gradientUnits="userSpaceOnUse" x1="248.041062" x2="248.041062" y1="496.087255" y2=".003255"><stop offset="0" stop-color="#9f2fff"/><stop offset="1" stop-color="#0bb1d3"/></linearGradient><path d="m201.402344 128.128906h-34.617188l32.734375 223.957032h-7.476562c-13.234375 0-24 10.769531-24 24v24h160v-24c0-13.230469-10.769531-24-24-24h-7.480469l32.734375-223.957032h-34.617187c-.09375-5.210937-1.367188-11.066406-2.671876-16.859375-1.09375-4.832031-2.910156-12.910156-2.613281-14.527343 1.566407-1.597657 9.007813-3.894532 13.453125-5.261719 11.808594-3.640625 25.195313-7.769531 25.195313-19.394531 0-11.613282-13.386719-15.742188-25.195313-19.382813-4.445312-1.367187-11.878906-3.664063-13.054687-4.609375-.695313-2.277344 1.128906-10.359375 2.214843-15.191406 2.824219-12.519532 5.746094-25.464844-3.886718-31.136719-9.542969-5.605469-19.023438 3.28125-28.175782 11.90625-3.664062 3.457031-9.800781 9.230469-11.617187 9.742187-2.382813-.511718-8.511719-6.292968-12.175781-9.742187-9.152344-8.625-18.625-17.535156-28.167969-11.914063-9.640625 5.671876-6.71875 18.625-3.894531 31.144532 1.09375 4.832031 2.910156 12.914062 2.613281 14.527344-1.566406 1.601562-9.007813 3.898437-13.453125 5.265624-11.824219 3.640626-25.207031 7.769532-25.207031 19.390626 0 11.617187 13.382812 15.746093 25.191406 19.386718 4.445313 1.367188 11.878906 3.664063 13.054687 4.605469.695313 2.28125-1.128906 10.359375-2.214843 15.191406-1.304688 5.792969-2.578125 11.640625-2.671875 16.859375zm70.03125 16-15.183594 207.957032h-13.65625l-17.832031-207.957032zm-86.136719 0h23.40625l17.832031 207.957032h-10.847656zm126.746094 231.957032v8h-128v-8c0-4.40625 3.582031-8 8-8h112c4.414062 0 8 3.59375 8 8zm-31.648438-24h-8.113281l15.183594-207.957032h23.3125zm-41.722656-223.957032c3.488281-3.25 7.640625-6.96875 9.082031-7.371094 1.886719.410157 6.136719 4.128907 9.640625 7.371094zm-40.726563-51.945312c-3.425781-1.054688-8.496093-2.625-11.703124-4.097656 3.199218-1.480469 8.277343-3.039063 11.710937-4.101563 10.015625-3.089844 18.671875-5.761719 22.382813-12.28125 3.785156-6.648437 1.625-16.207031-.65625-26.328125-.695313-3.097656-1.695313-7.511719-2.152344-10.910156 2.503906 2.015625 5.515625 4.847656 7.632812 6.847656 7.695313 7.246094 14.945313 14.085938 22.882813 14.085938 7.925781 0 15.183593-6.839844 22.871093-14.085938 2.117188-2 5.128907-4.832031 7.632813-6.839844-.457031 3.398438-1.457031 7.816406-2.152344 10.910156-2.28125 10.121094-4.441406 19.671876-.65625 26.328126 3.710938 6.519531 12.367188 9.183593 22.390625 12.28125 3.425782 1.054687 8.503906 2.613281 11.710938 4.09375-3.199219 1.480468-8.277344 3.042968-11.710938 4.105468-10.015625 3.085938-18.671875 5.761719-22.382812 12.28125-3.785156 6.648438-1.625 16.207032.65625 26.328125.695312 3.09375 1.695312 7.511719 2.152344 10.910157-2.503907-2.015626-5.511719-4.847657-7.632813-6.847657-7.6875-7.238281-14.9375-14.089843-22.871094-14.089843-7.929687 0-15.1875 6.84375-22.875 14.089843-2.117187 2-5.125 4.832031-7.628906 6.839844.453125-3.398437 1.453125-7.816406 2.148437-10.910156 2.28125-10.121094 4.441407-19.671875.65625-26.328125-3.726562-6.523438-12.382812-9.1875-22.40625-12.28125zm50.097657 19.902344c13.230469 0 24-10.765626 24-24 0-13.230469-10.769531-24-24-24-13.234375 0-24 10.769531-24 24 0 13.234374 10.765625 24 24 24zm0-32c4.414062 0 8 3.59375 8 8 0 4.410156-3.585938 8-8 8-4.417969 0-8-3.589844-8-8 0-4.40625 3.582031-8 8-8zm-238.441407 286.617187-7.550781 2.632813 13.167969 37.765624c5.09375 14.609376 15.679688 25.746094 28.628906 31.96875-1.3125.976563-2.605468 1.984376-3.847656 3.097657l-5.976562 5.328125 26.617187 29.855468c11.046875 12.390626 26.410156 18.703126 41.832031 18.703126 10.726563 0 21.417969-3.214844 30.769532-9.40625l.496093.558593 1.847657-1.648437c18.933593 9.769531 59.136718 26.527344 112.457031 26.527344 53.316406 0 93.519531-16.757813 112.453125-26.519532l1.847656 1.648438.496094-.558594c9.359375 6.191406 20.035156 9.40625 30.761718 9.40625 15.429688 0 30.792969-6.320312 41.832032-18.703125l26.617187-29.855469-5.976562-5.328125c-1.242188-1.105469-2.539063-2.121093-3.847657-3.097656 12.949219-6.230469 23.535157-17.359375 28.628907-31.96875l13.167969-37.765625-7.550782-2.632812c-1.558594-.542969-3.136718-.976563-4.710937-1.375 9.566406-10.710938 15.0625-25.066407 14.175781-40.503907l-2.28125-39.945312-7.992188.457031c-1.640624.09375-3.246093.296875-4.839843.527344.007812-.015625.015625-.03125.023437-.046875 4.929688-14.128907 4.058594-29.328125-2.453125-42.792969l-17.394531-36.015625-7.199219 3.480469c-1.480469.710937-2.894531 1.511718-4.28125 2.34375 0-.023438 0-.039063 0-.054688-.855469-14.9375-7.476562-28.640625-18.636719-38.59375l-29.859374-26.625-5.320313 5.976563c-13.558594 15.207031-17.222656 35.808593-11.566406 53.984375-4.480469-.855469-9.070313-1.222656-13.71875-.96875-14.9375.855468-28.640625 7.480468-38.59375 18.640625l-5.328125 5.976562 29.855468 26.625c2.320313 2.0625 4.847657 3.847657 7.449219 5.496094l13.753907 28.476563c1.351562 2.800781 3 5.410156 4.765624 7.921874l1.816407 31.566407c.175781 3.105469.695312 6.144531 1.375 9.144531l-10.40625 29.855469c-1.015625 2.929687-1.703125 5.945312-2.230469 8.992187l-21.035156 23.59375c-9.949219 11.167969-14.964844 25.535156-14.109375 40.472656.636719 11.085938 4.460937 21.488282 10.949219 30.183594-18.992188 9.0625-54.878907 22.582032-100.636719 22.582032-45.761719 0-81.648438-13.519532-100.640625-22.605469 6.488281-8.707031 10.3125-19.105469 10.949218-30.183594.859376-14.9375-4.160156-29.3125-14.109374-40.472656l-21.042969-23.601563c-.519531-3.03125-1.207031-6.039062-2.222657-8.984375l-10.40625-29.855469c.679688-3.015624 1.199219-6.0625 1.375-9.152343l1.816407-31.558594c1.773437-2.511719 3.414062-5.128906 4.773437-7.929687l13.746094-28.464844c2.609375-1.644532 5.136719-3.429688 7.464844-5.503906l29.847656-26.621094-5.328125-5.976563c-9.953125-11.167969-23.65625-17.785156-38.59375-18.640625-4.640625-.257812-9.238281.113282-13.71875.96875 5.65625-18.167968 1.992187-38.777344-11.566406-53.984375l-5.320313-5.976562-29.847656 26.625c-11.167969 9.953125-17.792969 23.664062-18.648438 38.589843v.050782c-1.402343-.816406-2.816406-1.609375-4.289062-2.320313l-7.199219-3.480469-17.394531 36.015626c-6.503906 13.472656-7.382812 28.664062-2.453125 42.792968.007813.015625.015625.03125.023437.046875-1.59375-.230469-3.199218-.433593-4.839843-.527343l-7.992188-.449219-2.289062 39.9375c-.886719 15.4375 4.609375 29.792969 14.175781 40.503906-1.574219.390625-3.144531.832031-4.710938 1.375zm418.101563-81.480469c.011719.015625.011719.023438.019531.039063l13.140625 27.21875c-.550781.917969-1.03125 1.886719-1.535156 2.839843-2.558594-3.761718-5.542969-7.265624-9.03125-10.378906-9.710937-8.664062-21.792969-13.582031-34.664063-14.140625-1.375-1.90625-2.648437-3.890625-3.6875-6.027343l-10.089843-20.894532c7.539062-1.945312 15.496093-1.609375 23.019531 1.007813 10.070312 3.519531 18.175781 10.738281 22.828125 20.335937zm6.992187 89.410156c-.863281.636719-1.679687 1.34375-2.503906 2.03125-.925781-4.457031-2.34375-8.839843-4.375-13.039062-5.65625-11.714844-14.992187-20.890625-26.617187-26.320312-.542969-2.289063-.957031-4.609376-1.101563-6.992188l-1.328125-23.160156c7.710938 1.101562 14.925781 4.4375 20.871094 9.734375 7.976563 7.113281 12.703125 16.90625 13.320313 27.570312l.082031 1.4375zm-31.621093 42.246094c-.746094-12.984375-5.855469-25.03125-14.519531-34.503906.375-2.328125.878906-4.640625 1.664062-6.871094l7.628906-21.914062c6.714844 3.96875 12.105469 9.816406 15.570313 16.992187 4.648437 9.617188 5.261719 20.472657 1.75 30.5625l-9.949219 28.535157c-1.042969.253906-2.066406.597656-3.089844.917968.839844-4.46875 1.207032-9.054687.945313-13.71875zm20.429687 49.824219c-12.863281 14.425781-33.894531 17.3125-49.976562 7.960937l15.433594-17.3125c12.847656-14.410156 33.863281-17.335937 49.96875-7.960937zm42.25-64.863281c-5.9375 17.03125-22.3125 27.40625-39.457031 26.65625-1.199219-.160156-2.40625-.234375-3.617187-.3125l7.59375-21.777344c4.007812-11.472656 12.757812-19.960938 23.273437-24.070312 1.894531-.472657 3.757813-1.03125 5.574219-1.6875 4.617187-1.074219 9.433594-1.378907 14.273437-.714844zm12.886719-99.265625 1.335937 23.160156c1.03125 18.082031-10.238281 33.960937-26.472656 39.808594-1.09375.296875-2.167968.664062-3.238281 1.023437l-1.328125-23.023437c-.6875-12.054688 4.054688-23.183594 12.105469-31 1.804687-1.320313 3.542969-2.71875 5.167969-4.238281 3.726562-2.570313 7.910156-4.539063 12.429687-5.730469zm-24.742187-73.480469 10.085937 20.890625c4.648437 9.621094 5.273437 20.480469 1.761719 30.566406-2.144532 6.152344-5.738282 11.511719-10.34375 15.855469-1.121094.839844-2.183594 1.746094-3.242188 2.664062l-10.023437-20.757812c-.007813-.015625-.023438-.042969-.03125-.058594-5.222657-10.863281-5.089844-22.949218-.632813-33.238281 1.152344-1.886719 2.199219-3.824219 3.113282-5.816406 2.464843-3.824219 5.582031-7.265625 9.3125-10.105469zm-50.984376-58.414062 17.3125 15.441406c13.511719 12.046875 16.765626 31.246094 9.421876 46.855468-.566407.984376-1.0625 2-1.566407 3.015626l-17.207031-15.34375c-14.417969-12.855469-17.320312-33.890626-7.960938-49.96875zm-30.210937 79.3125c-2-1.234376-3.933594-2.585938-5.710937-4.160157l-17.320313-15.441406c6.226563-4.671875 13.695313-7.414063 21.648437-7.871094 10.617188-.566406 20.929688 2.96875 28.90625 10.078125l22.558594 20.113282c-.160156 1.0625-.230468 2.136718-.335937 3.207031-3.808594-2.496094-7.902344-4.589844-12.3125-6.125-12.296875-4.289063-25.375-4.1875-37.433594.199219zm-8.925781 163.480468 15.449218-17.328125c4.671876 6.230469 7.421876 13.695313 7.871094 21.65625.617188 10.664063-2.960937 20.933594-10.074218 28.902344l-15.445313 17.320313c-4.671875-6.230469-7.425781-13.695313-7.875-21.648438-.613281-10.664062 2.960937-20.9375 10.074219-28.902344zm-333.449219-11.640625-7.640625-21.898437c4.832031-.664063 9.65625-.351563 14.273438.714844 1.816406.65625 3.679687 1.214843 5.574218 1.6875 10.515625 4.109374 19.273438 12.597656 23.273438 24.070312l4.417968 12.648438 3.183594 9.128906c-1.121094.078125-2.242187.144531-3.359375.289062-17.21875.839844-33.761719-9.53125-39.722656-26.640625zm24.890625-89.351562 13.132812-27.21875c4.648438-9.621094 12.769532-16.855469 22.847657-20.375 7.523437-2.625 15.472656-2.945313 23.019531-1.007813l-10.082031 20.878906c-1.039063 2.144532-2.320313 4.128907-3.6875 6.035157-12.886719.550781-24.960938 5.484375-34.664063 14.140625-3.488281 3.105468-6.472656 6.617187-9.03125 10.378906-.503906-.945312-.984375-1.914062-1.535156-2.832031zm35.65625 117.207031-9.953125-28.535156c-3.511719-10.089844-2.898437-20.945313 1.75-30.5625 3.472656-7.175782 8.855469-13.023438 15.570313-16.992188l7.632812 21.90625c.78125 2.253906 1.285156 4.566406 1.652344 6.878906-8.664063 9.472657-13.765625 21.519532-14.519532 34.503907-.269531 4.664062.105469 9.257812.953126 13.730469-1.03125-.328126-2.046876-.675782-3.085938-.929688zm-14.441406-112.800781c5.945312-5.304688 13.167968-8.640625 20.871094-9.734375l-1.328126 23.167968c-.136718 2.359376-.550781 4.679688-1.101562 6.976563-11.625 5.4375-20.960938 14.605469-26.617188 26.320313-2.03125 4.207031-3.449218 8.582031-4.375 13.039062-.824218-.6875-1.640624-1.394531-2.503906-2.03125l1.726563-30.179688c.625-10.652343 5.351562-20.445312 13.328125-27.558593zm-3.855469 149.816406-15.433594-17.3125c16.082031-9.359375 37.113281-6.464844 49.96875 7.960937l15.441407 17.320313c-16.082032 9.351563-37.113282 6.449219-49.976563-7.96875zm69.800781-24.328125c-.457031 7.953125-3.203125 15.425781-7.875 21.648438l-15.445312-17.320313c-7.113282-7.976563-10.691406-18.238281-10.074219-28.902344.457031-7.953125 3.199219-15.425781 7.871094-21.65625l15.449219 17.328125c7.113281 7.964844 10.6875 18.238282 10.074218 28.902344zm-17.617187-219.863281c7.953125.457031 15.421875 3.199219 21.648437 7.871093l-17.320312 15.449219c-1.769532 1.582031-3.703125 2.925781-5.710938 4.160157-12.058594-4.375-25.144531-4.488282-37.441406-.207032-4.390625 1.535156-8.480469 3.621094-12.28125 6.101563-.09375-1.070313-.183594-2.136719-.34375-3.199219l22.542969-20.097656c7.976562-7.109375 18.28125-10.65625 28.90625-10.078125zm-48.898438-36.390625 17.304688-15.441406c9.359375 16.078124 6.464843 37.113281-7.949219 49.96875l-17.195312 15.328124c-.574219-1.160156-1.148438-2.328124-1.796876-3.441406-7.082031-15.535156-3.761718-34.480468 9.636719-46.414062zm-45.527343 94.429687c-3.511719-10.085937-2.886719-20.945312 1.761718-30.566406l10.09375-20.898437c3.816406 2.898437 6.976563 6.503906 9.523438 10.5625.789062 1.695312 1.679687 3.34375 2.636718 4.957031.464844 1.042969.976563 2.050781 1.351563 3.136719 3.515625 10.089843 2.890625 20.945312-1.757813 30.5625l-10.023437 20.757812c-1.058594-.917969-2.128906-1.824219-3.25-2.671875-4.605469-4.335937-8.191406-9.695313-10.335937-15.839844zm4.707031 31.992188c8.046875 7.816406 12.789062 18.945312 12.101562 31l-1.328125 23.023437c-1.039062-.351562-2.078125-.703125-3.144531-1-16.277344-5.816406-27.605469-21.71875-26.566406-39.832031l1.335937-23.160156c4.519532 1.191406 8.703125 3.160156 12.433594 5.730469 1.621094 1.519531 3.351562 2.917968 5.167969 4.238281zm0 0" fill="url(#a)"/></svg>