<?xml version="1.0" encoding="utf-8"?>
<!-- Generator: Adobe Illustrator 22.1.0, SVG Export Plug-In . SVG Version: 6.00 Build 0)  -->
<svg xmlns="http://www.w3.org/2000/svg" xmlns:xlink="http://www.w3.org/1999/xlink" version="1.1" id="Layer_1" x="0px" y="0px" viewBox="0 0 256 256" style="enable-background:new 0 0 256 256;" xml:space="preserve" width="512" height="512">
<style type="text/css">
	.st0{fill:#FF4397;}
	.st1{fill:#E12579;}
	.st2{fill:#FF61B5;}
	.st3{fill:#690589;}
	.st4{fill:#FCC24C;}
	.st5{fill:#7BAC51;}
	.st6{fill:#5D8E33;}
	.st7{fill:#99CA6F;}
	.st8{fill:#E18152;}
	.st9{fill:#F4EFED;}
	.st10{fill:#FF9F70;}
	.st11{fill:#FFBD8E;}
	.st12{fill:#D6D1CF;}
	.st13{fill:#FFFFFF;}
	.st14{fill:#FCE06A;}
	.st15{fill:#DEA42E;}
</style>
<g>
	<g>
		<polygon class="st4" points="128,25.301 161.226,4 179.35,39.06 218.774,37.226 216.94,76.65 252,94.774 230.699,128 252,161.226     216.94,179.35 218.774,218.774 179.35,216.94 161.226,252 128,230.699 94.774,252 76.65,216.94 37.226,218.774 39.06,179.35     4,161.226 25.301,128 4,94.774 39.06,76.65 37.226,37.226 76.65,39.06 94.774,4   "/>
	</g>
	<g>
		<path class="st3" d="M161.226,254c-0.379,0-0.754-0.108-1.079-0.316L128,233.075l-32.146,20.609    c-0.474,0.304-1.054,0.394-1.597,0.248c-0.543-0.146-1-0.513-1.259-1.013l-17.535-33.92l-38.144,1.774    c-0.555,0.031-1.109-0.186-1.507-0.584s-0.61-0.945-0.584-1.507l1.774-38.144l-33.92-17.535c-0.5-0.259-0.868-0.716-1.013-1.259    c-0.146-0.543-0.056-1.123,0.248-1.597L22.925,128L2.316,95.854C2.013,95.38,1.922,94.8,2.068,94.257    c0.146-0.543,0.513-1,1.013-1.259l33.92-17.535l-1.774-38.144c-0.026-0.562,0.186-1.109,0.584-1.507s0.951-0.61,1.507-0.584    l38.144,1.774l17.535-33.92c0.259-0.5,0.716-0.868,1.259-1.013c0.543-0.146,1.123-0.056,1.597,0.248L128,22.925l32.146-20.609    c0.474-0.304,1.054-0.395,1.597-0.248c0.544,0.146,1.001,0.513,1.259,1.013l17.535,33.92l38.145-1.774    c0.556-0.028,1.108,0.186,1.507,0.584c0.398,0.398,0.61,0.945,0.584,1.507l-1.774,38.144l33.92,17.535    c0.5,0.259,0.868,0.716,1.014,1.259s0.056,1.123-0.248,1.597L233.075,128l20.608,32.146c0.304,0.474,0.394,1.054,0.248,1.597    s-0.514,1-1.014,1.259l-33.92,17.535l1.774,38.144c0.026,0.562-0.186,1.109-0.584,1.507s-0.949,0.614-1.507,0.584l-38.145-1.774    l-17.535,33.92c-0.258,0.5-0.715,0.868-1.259,1.013C161.573,253.978,161.398,254,161.226,254z M128,228.699    c0.375,0,0.75,0.105,1.079,0.316l31.378,20.116l17.116-33.109c0.357-0.693,1.069-1.114,1.869-1.08l37.232,1.732l-1.732-37.232    c-0.036-0.78,0.386-1.511,1.08-1.87l33.109-17.116l-20.116-31.377c-0.422-0.658-0.422-1.501,0-2.159l20.116-31.377l-33.109-17.116    c-0.694-0.359-1.116-1.089-1.08-1.87l1.732-37.232l-37.232,1.732c-0.803,0.037-1.512-0.386-1.869-1.08L160.457,6.869    l-31.378,20.116c-0.657,0.422-1.5,0.422-2.159,0L95.543,6.869L78.427,39.978c-0.359,0.694-1.094,1.12-1.87,1.08l-37.232-1.732    l1.732,37.232c0.036,0.78-0.385,1.511-1.08,1.87L6.869,95.543l20.116,31.377c0.422,0.658,0.422,1.501,0,2.159L6.869,160.457    l33.109,17.116c0.694,0.359,1.116,1.089,1.08,1.87l-1.732,37.232l37.232-1.732c0.774-0.037,1.51,0.385,1.87,1.08l17.116,33.109    l31.377-20.116C127.25,228.805,127.625,228.699,128,228.699z"/>
	</g>
	<g>
		<path class="st3" d="M24.015,95.153c-0.724,0-1.423-0.395-1.778-1.082c-0.507-0.981-0.123-2.188,0.858-2.695l15.41-7.966    c0.979-0.506,2.188-0.123,2.695,0.858c0.507,0.981,0.123,2.188-0.858,2.695l-15.41,7.966    C24.638,95.081,24.324,95.153,24.015,95.153z"/>
	</g>
	<g>
		<polygon class="st9" points="96.988,161.251 75.706,139.968 177.46,32.626 205.573,31.384 204.331,59.497   "/>
	</g>
	<g>
		<polygon class="st12" points="204.97,45.035 90.138,154.401 96.988,161.251 204.331,59.497   "/>
	</g>
	<g>
		<path class="st0" d="M49.648,219.142l-2.817,2.817c-2.309,2.309-6.052,2.309-8.361,0l-25.172-25.172    c-2.309-2.309-2.309-6.052,0-8.361l2.817-2.817c2.309-2.309,6.052-2.309,8.361,0l25.172,25.172    C51.957,213.09,51.957,216.833,49.648,219.142z"/>
	</g>
	<g>
		<path class="st0" d="M97.539,191.609l-52.191-52.191c-3.078-3.078-3.078-8.069,0-11.147l3.756-3.756    c3.078-3.078,8.069-3.078,11.147,0l52.191,52.191c3.078,3.078,3.078,8.069,0,11.147l-3.756,3.756    C105.609,194.687,100.618,194.687,97.539,191.609z"/>
	</g>
	<g>
		<path class="st1" d="M112.617,176.879l-6.85-6.85c2.982,2.982,2.982,7.817,0,10.799l-4.104,4.104    c-2.982,2.982-7.817,2.982-10.799,0l6.85,6.85c2.982,2.982,7.817,2.982,10.799,0l4.104-4.104    C115.599,184.696,115.599,179.861,112.617,176.879z"/>
	</g>
	<g>
		<path class="st2" d="M60.077,124.34l6.85,6.85c-2.982-2.982-7.817-2.982-10.799,0l-4.104,4.104c-2.982,2.982-2.982,7.817,0,10.799    l-6.85-6.85c-2.982-2.982-2.982-7.817,0-10.799l4.104-4.104C52.26,121.358,57.095,121.358,60.077,124.34z"/>
	</g>
	<g>
		
			<rect x="30.967" y="174.375" transform="matrix(0.7071 -0.7071 0.7071 0.7071 -112.8764 92.0519)" class="st5" width="47.422" height="15.807"/>
	</g>
	<g>
		<circle class="st5" cx="78.895" cy="158.061" r="10.538"/>
	</g>
	<g>
		<path class="st1" d="M50.628,211.762l-6.85-6.85c2.237,2.236,2.237,5.863,0,8.099l-3.078,3.078c-2.236,2.237-5.863,2.237-8.099,0    l6.85,6.85c2.237,2.237,5.863,2.237,8.099,0l3.078-3.078C52.865,217.624,52.864,213.998,50.628,211.762z"/>
	</g>
	<g>
		<path class="st2" d="M24.345,185.479l6.85,6.85c-2.236-2.236-5.863-2.237-8.099,0l-3.078,3.078c-2.237,2.237-2.237,5.863,0,8.099    l-6.85-6.85c-2.236-2.237-2.236-5.863,0-8.099l3.078-3.078C18.483,183.242,22.109,183.243,24.345,185.479z"/>
	</g>
	<g>
		<path class="st3" d="M96.988,163.25c-0.512,0-1.024-0.196-1.414-0.586l-21.282-21.282c-0.767-0.766-0.783-2.003-0.038-2.79    L176.009,31.25c0.356-0.376,0.845-0.599,1.363-0.622l28.113-1.242c0.555-0.026,1.105,0.188,1.502,0.584s0.608,0.942,0.584,1.502    l-1.242,28.113c-0.022,0.518-0.246,1.006-0.622,1.363L98.364,162.702C97.978,163.068,97.483,163.25,96.988,163.25z     M78.497,139.931l18.528,18.528l105.344-99.858l1.109-25.123l-25.123,1.11L78.497,139.931z"/>
	</g>
	<g>
		<path class="st3" d="M103.113,195.917c-2.64,0-5.122-1.028-6.988-2.895h0c0,0,0,0,0,0l-52.191-52.191    c-3.853-3.853-3.853-10.122,0-13.976l3.756-3.756c3.852-3.853,10.122-3.854,13.976,0l52.191,52.192    c3.853,3.854,3.853,10.123,0,13.976l-3.756,3.756C108.235,194.889,105.753,195.917,103.113,195.917z M54.678,124.208    c-1.506,0-3.013,0.573-4.16,1.72l-3.756,3.756c-2.293,2.294-2.293,6.026,0,8.319l52.191,52.191c0,0,0,0,0,0    c1.111,1.111,2.588,1.723,4.159,1.723s3.048-0.612,4.159-1.723l3.756-3.756c2.293-2.293,2.293-6.025,0-8.319l-52.191-52.191    C57.69,124.781,56.184,124.208,54.678,124.208z"/>
	</g>
	<g>
		<path class="st3" d="M43.5,206.634c-0.512,0-1.024-0.195-1.414-0.586l-11.177-11.177c-0.781-0.781-0.781-2.047,0-2.828    l33.532-33.532c0.78-0.781,2.047-0.781,2.828,0l11.178,11.177c0.375,0.375,0.586,0.884,0.586,1.414s-0.211,1.039-0.586,1.414    l-33.533,33.532C44.523,206.438,44.012,206.634,43.5,206.634z M35.151,193.457l8.349,8.349l30.704-30.704l-8.349-8.349    L35.151,193.457z"/>
	</g>
	<g>
		<path class="st3" d="M43.5,226.536c-2.026,0-4.052-0.771-5.594-2.313l-25.172-25.172c-3.084-3.084-3.085-8.104,0-11.189    l2.817-2.817c3.085-3.085,8.104-3.084,11.189,0l25.172,25.172c3.084,3.085,3.084,8.104,0,11.189h0l-2.817,2.817    C47.552,225.765,45.526,226.536,43.5,226.536z M21.146,186.729c-1.002,0-2.004,0.381-2.767,1.144l-2.817,2.816    c-1.525,1.525-1.525,4.007,0,5.533l25.172,25.172c1.526,1.525,4.008,1.524,5.533,0l2.816-2.816c1.525-1.525,1.525-4.007,0-5.533    l-25.171-25.172C23.149,187.111,22.147,186.729,21.146,186.729z M50.498,219.992h0.01H50.498z"/>
	</g>
	<g>
		<path class="st3" d="M78.896,170.6c-3.349,0-6.498-1.304-8.866-3.673c-2.369-2.368-3.673-5.517-3.673-8.866    s1.304-6.498,3.673-8.866c4.887-4.889,12.842-4.889,17.731,0c4.889,4.889,4.889,12.843,0,17.731    C85.393,169.295,82.245,170.6,78.896,170.6z M78.896,149.527c-2.187,0-4.373,0.832-6.038,2.497    c-1.613,1.613-2.501,3.757-2.501,6.038c0,2.281,0.888,4.425,2.501,6.038s3.757,2.501,6.038,2.501c2.28,0,4.425-0.888,6.038-2.501    c3.329-3.329,3.329-8.746,0-12.075C83.269,150.359,81.082,149.527,78.896,149.527z"/>
	</g>
	<g>
		<path class="st3" d="M86.533,152.796c-0.512,0-1.024-0.195-1.414-0.586c-0.781-0.781-0.781-2.047,0-2.828L204.346,30.156    c0.781-0.781,2.047-0.781,2.828,0c0.781,0.781,0.781,2.047,0,2.828L87.947,152.21C87.557,152.601,87.045,152.796,86.533,152.796z"/>
	</g>
	<g>
		<path class="st3" d="M66.554,183.58c-0.512,0-1.023-0.195-1.414-0.586l-11.178-11.177c-0.781-0.781-0.781-2.047,0-2.828    c0.78-0.781,2.047-0.781,2.828,0l11.178,11.177c0.781,0.781,0.781,2.047,0,2.828C67.578,183.385,67.065,183.58,66.554,183.58z"/>
	</g>
	<g>
		<path class="st3" d="M54.678,195.457c-0.512,0-1.024-0.195-1.414-0.586l-11.178-11.178c-0.781-0.781-0.781-2.047,0-2.828    c0.78-0.781,2.048-0.781,2.828,0l11.178,11.178c0.781,0.781,0.781,2.047,0,2.828C55.702,195.261,55.189,195.457,54.678,195.457z"/>
	</g>
	<g>
		<polygon class="st9" points="180.626,139.637 159.343,160.919 52,59.165 50.758,31.052 78.871,32.294   "/>
	</g>
	<g>
		<polygon class="st12" points="64.41,31.655 173.776,146.487 180.626,139.637 78.871,32.294   "/>
	</g>
	<g>
		<path class="st5" d="M238.517,186.977l2.817,2.817c2.309,2.309,2.309,6.052,0,8.361l-25.172,25.172    c-2.309,2.309-6.052,2.309-8.361,0l-2.817-2.817c-2.309-2.309-2.309-6.052,0-8.361l25.172-25.172    C232.465,184.668,236.208,184.668,238.517,186.977z"/>
	</g>
	<g>
		<path class="st5" d="M210.983,139.085l-52.191,52.191c-3.078,3.078-8.069,3.078-11.147,0l-3.756-3.756    c-3.078-3.078-3.078-8.069,0-11.147l52.191-52.191c3.078-3.078,8.069-3.078,11.147,0l3.756,3.756    C214.062,131.016,214.062,136.007,210.983,139.085z"/>
	</g>
	<g>
		<path class="st6" d="M196.254,124.008l-6.85,6.85c2.982-2.982,7.817-2.982,10.799,0l4.104,4.104c2.982,2.982,2.982,7.817,0,10.799    l6.85-6.85c2.982-2.982,2.982-7.817,0-10.799l-4.104-4.104C204.071,121.026,199.236,121.026,196.254,124.008z"/>
	</g>
	<g>
		<path class="st7" d="M143.715,176.548l6.85-6.85c-2.982,2.982-2.982,7.817,0,10.799l4.104,4.104c2.982,2.982,7.817,2.982,10.799,0    l-6.85,6.85c-2.982,2.982-7.817,2.982-10.799,0l-4.104-4.104C140.733,184.365,140.733,179.53,143.715,176.548z"/>
	</g>
	<g>
		
			<rect x="193.75" y="158.236" transform="matrix(0.7071 -0.7071 0.7071 0.7071 -69.5931 195.882)" class="st0" width="15.807" height="47.422"/>
	</g>
	<g>
		<circle class="st0" cx="177.436" cy="157.73" r="10.538"/>
	</g>
	<g>
		<path class="st6" d="M231.137,185.997l-6.85,6.85c2.237-2.237,5.863-2.237,8.099,0l3.078,3.078c2.237,2.237,2.237,5.863,0,8.099    l6.85-6.85c2.236-2.237,2.236-5.863,0-8.099l-3.078-3.078C236.999,183.76,233.373,183.76,231.137,185.997z"/>
	</g>
	<g>
		<path class="st7" d="M204.854,212.279l6.85-6.85c-2.236,2.236-2.237,5.863,0,8.099l3.078,3.078c2.237,2.237,5.863,2.237,8.099,0    l-6.85,6.85c-2.237,2.237-5.863,2.237-8.099,0l-3.078-3.078C202.617,218.142,202.618,214.516,204.854,212.279z"/>
	</g>
	<g>
		<path class="st3" d="M159.344,162.919c-0.495,0-0.989-0.182-1.376-0.548L50.625,60.617c-0.376-0.357-0.599-0.846-0.622-1.363    L48.76,31.14c-0.025-0.561,0.187-1.106,0.584-1.502c0.396-0.397,0.932-0.613,1.502-0.584l28.113,1.242    c0.518,0.023,1.006,0.246,1.363,0.622l101.754,107.343c0.746,0.787,0.729,2.024-0.037,2.79l-21.282,21.282    C160.368,162.723,159.856,162.919,159.344,162.919z M53.963,58.27l105.344,99.858l18.528-18.528L77.976,34.256l-25.123-1.11    L53.963,58.27z"/>
	</g>
	<g>
		<path class="st3" d="M153.218,195.585c-2.64,0-5.121-1.028-6.987-2.895l-3.756-3.756c-1.866-1.866-2.895-4.348-2.895-6.988    s1.028-5.122,2.895-6.988l52.191-52.191c3.853-3.853,10.121-3.854,13.976,0l3.756,3.756c3.854,3.853,3.854,10.123,0,13.976    l-52.191,52.191C158.34,194.558,155.858,195.585,153.218,195.585z M201.654,123.876c-1.507,0-3.014,0.574-4.16,1.72    l-52.191,52.191c-1.11,1.111-1.723,2.588-1.723,4.16s0.612,3.048,1.723,4.16l3.756,3.756c2.293,2.293,6.026,2.292,8.319,0    l52.191-52.191c1.11-1.111,1.723-2.588,1.723-4.16s-0.612-3.048-1.723-4.16l-3.756-3.756    C204.667,124.45,203.16,123.876,201.654,123.876z"/>
	</g>
	<g>
		<path class="st3" d="M212.831,206.302c-0.512,0-1.023-0.195-1.414-0.586l-33.532-33.532c-0.781-0.781-0.781-2.047,0-2.828    l11.178-11.178c0.75-0.75,2.078-0.75,2.828,0l33.532,33.533c0.375,0.375,0.586,0.884,0.586,1.414s-0.211,1.039-0.586,1.414    l-11.178,11.177C213.854,206.107,213.343,206.302,212.831,206.302z M182.127,170.77l30.704,30.704l8.35-8.349l-30.704-30.704    L182.127,170.77z"/>
	</g>
	<g>
		<path class="st3" d="M212.831,226.208c-2.113,0-4.1-0.823-5.594-2.318l-2.817-2.816c-3.085-3.085-3.085-8.104,0-11.189    l25.172-25.172c3.083-3.084,8.104-3.085,11.188,0l2.817,2.816c3.084,3.085,3.084,8.104,0,11.189l-25.172,25.171    C216.932,225.385,214.945,226.208,212.831,226.208z M235.186,186.398c-1.001,0-2.003,0.381-2.766,1.144l-25.172,25.172    c-1.525,1.525-1.525,4.007,0,5.532l2.817,2.816c1.479,1.479,4.054,1.477,5.532,0l25.172-25.171c1.524-1.525,1.524-4.007,0-5.533    l-2.817-2.816c0,0,0,0,0,0C237.189,186.779,236.188,186.398,235.186,186.398z"/>
	</g>
	<g>
		<path class="st3" d="M177.437,170.268c-3.35,0-6.498-1.304-8.866-3.673c-4.889-4.888-4.889-12.843,0-17.731    c4.888-4.888,12.842-4.889,17.731,0l0,0c4.889,4.889,4.889,12.843,0,17.731C183.934,168.964,180.785,170.268,177.437,170.268z     M177.437,149.195c-2.187,0-4.373,0.832-6.038,2.497c-3.329,3.33-3.329,8.746,0,12.075c1.612,1.613,3.757,2.501,6.038,2.501    c2.28,0,4.425-0.888,6.037-2.501c3.329-3.329,3.329-8.746,0-12.075C181.809,150.027,179.622,149.195,177.437,149.195z"/>
	</g>
	<g>
		<path class="st3" d="M170.171,152.092c-0.512,0-1.023-0.195-1.414-0.586L49.531,32.28c-0.781-0.781-0.781-2.047,0-2.828    c0.78-0.781,2.048-0.781,2.828,0l119.226,119.226c0.781,0.781,0.781,2.047,0,2.828    C171.194,151.896,170.683,152.092,170.171,152.092z"/>
	</g>
	<g>
		<path class="st3" d="M189.777,183.249c-0.512,0-1.023-0.195-1.414-0.586c-0.781-0.781-0.781-2.047,0-2.828l11.178-11.178    c0.781-0.781,2.047-0.781,2.828,0c0.781,0.781,0.781,2.047,0,2.828l-11.178,11.178    C190.801,183.054,190.289,183.249,189.777,183.249z"/>
	</g>
	<g>
		<path class="st3" d="M201.654,195.125c-0.512,0-1.023-0.195-1.414-0.586c-0.781-0.781-0.781-2.047,0-2.828l11.177-11.178    c0.781-0.781,2.047-0.781,2.828,0c0.781,0.781,0.781,2.047,0,2.828l-11.177,11.178    C202.678,194.93,202.166,195.125,201.654,195.125z"/>
	</g>
</g>
</svg>
