<?xml version="1.0" encoding="UTF-8"?>
<svg xmlns="http://www.w3.org/2000/svg" xmlns:xlink="http://www.w3.org/1999/xlink" width="512" height="512" viewBox="0 0 60 60" version="1.1"><!-- Generator: Sketch 51.3 (57544) - http://www.bohemiancoding.com/sketch --><title>060 - Trophy</title><desc>Created with Sketch.</desc><defs/><g id="Page-1" stroke="none" stroke-width="1" fill="none" fill-rule="evenodd"><g id="060---Trophy" transform="translate(-1.000000, 0.000000)" fill-rule="nonzero"><rect id="Rectangle-path" fill="#FEC108" x="29" y="21" width="4" height="15"/><path d="M35,36.45 L34,38 L31,40 L28,38 L27.11,36.45 C26.9599555,36.1687611 26.9599555,35.8312389 27.11,35.55 L27.71,34.5 C27.889341,34.1893658 28.2213152,33.998576 28.58,34 L33.45,34 C33.7928377,33.9999404 34.112537,34.1729541 34.3,34.46 L35,35.55 C35.1399671,35.8336743 35.1399671,36.1663257 35,36.45 Z" id="Shape" fill="#F57C00"/><path d="M39,43.59 L39,46 L23,46 L23,43.59 C23.002788,42.0659831 24.0413195,40.7389706 25.52,40.37 C26.3164679,40.1747018 27.0095394,39.6852648 27.46,39 C27.5464311,38.8849407 27.6201915,38.760889 27.68,38.63 L28,38 L34,38 L34.32,38.63 C34.7480501,39.500252 35.5385639,40.1370548 36.48,40.37 C37.199857,40.5526381 37.8394932,40.9673472 38.3,41.55 C38.7529088,42.1336629 38.9991312,42.8512254 39,43.59 Z" id="Shape" fill="#FEC108"/><path d="M36,44.59 L36,46 L23,46 L23,43.59 C23.002788,42.0659831 24.0413195,40.7389706 25.52,40.37 C26.3164679,40.1747018 27.0095394,39.6852648 27.46,39 L31,39 L31.32,39.63 C31.7480501,40.500252 32.5385639,41.1370548 33.48,41.37 C34.199857,41.5526381 34.8394932,41.9673472 35.3,42.55 C35.7529088,43.1336629 35.9991312,43.8512254 36,44.59 Z" id="Shape" fill="#FFDC00"/><path d="M21.36,37.1 C20.97,39.37 20.02,40.9 18.8,41.6 C18.4965362,41.7565907 18.1254367,41.6864941 17.9,41.43 C17.8416719,41.3737106 17.7912156,41.3097993 17.75,41.24 C17.7,41.17 17.65,41.11 17.6,41.04 C17.4764949,40.8493729 17.3630077,40.6524392 17.26,40.45 C16.6530567,39.0397949 16.5265628,37.4691619 16.9,35.98 C17.1084324,34.6425242 17.7810874,33.4211244 18.8,32.53 C19.0691575,32.3107685 19.3690155,32.1322013 19.69,32 C20.0042202,31.87828 20.3610835,31.9756063 20.57,32.24 C21.5165308,33.6723631 21.8041202,35.4415846 21.36,37.1 Z" id="Shape" fill="#549414"/><path d="M17.88,42.4 C17.03,43.52 15.42,44.31 13,43.93 C10.9610028,43.6696049 9.17327235,42.4405402 8.2,40.63 C7.99573153,40.2826591 8.01533018,39.8475689 8.25,39.52 C9.18,38.53 10.73,38.22 13.03,38.72 C14.9010181,39.0077636 16.6091192,39.9504086 17.85,41.38 C18.083391,41.676345 18.0955705,42.0904503 17.88,42.4 Z" id="Shape" fill="#60A917"/><path d="M13.09,35.37 C12.17,36.28 10.58,36.75 8.4,35.93 C6.51162314,35.2463043 5.03626471,33.7415123 4.39,31.84 C4.24807648,31.475884 4.32139343,31.0629938 4.58,30.77 C5.54,29.99 6.99,29.98 9.04,30.91 C10.7637897,31.5759727 12.216843,32.7968189 13.17,34.38 C13.17,34.3855228 13.1744772,34.39 13.18,34.39 C13.3607692,34.7027182 13.3247031,35.0954374 13.09,35.37 Z" id="Shape" fill="#60A917"/><path d="M13.44,23.92 C13.2072388,24.5060692 12.901493,25.0604434 12.53,25.57 C12.53,25.5726522 12.5289464,25.5751957 12.5270711,25.5770711 C12.5251957,25.5789464 12.5226522,25.58 12.52,25.58 C12.2475836,25.9686487 11.9131232,26.3098658 11.53,26.59 C11.1850337,26.8468558 10.7840559,27.0182138 10.36,27.09 C10.0650829,27.1069327 9.79041756,26.9397451 9.67,26.67 C9.61,26.51 9.55,26.34 9.5,26.17 C9.48118769,26.143694 9.47073376,26.1123322 9.47,26.08 C9.45091925,26.0146128 9.43753594,25.9476962 9.43,25.88 C9.11550019,24.3116828 9.33003293,22.6833442 10.04,21.25 C10.3855701,20.4001438 10.9517232,19.6579311 11.68,19.1 C12.1060775,18.7747911 12.6241456,18.5927672 13.16,18.58 C13.4690106,18.612558 13.7267444,18.8306405 13.81,19.13 C14.2848693,20.717311 14.1530029,22.4244453 13.44,23.92 Z" id="Shape" fill="#549414"/><path d="M9.43,27.49 C8.48,28.2 6.97,28.34 5.1,27.12 C3.4357793,26.0416638 2.31423641,24.3010875 2.02,22.34 C1.92494733,21.9748418 2.04506599,21.5873623 2.33,21.34 C3.29,20.76 4.59,21.04 6.31,22.35 C7.80779065,23.3882633 8.96058176,24.8510194 9.62,26.55 C9.75932791,26.8722507 9.68354827,27.2471605 9.43,27.49 Z" id="Shape" fill="#60A917"/><path d="M16.91,30.92 C16.8158661,31.2620861 16.6955097,31.5964092 16.55,31.92 L16.54,31.93 C16.228151,32.8157972 15.6862919,33.6027008 14.97,34.21 C14.9645695,34.2153939 14.9610568,34.2224192 14.96,34.23 C14.6852124,34.4569909 14.3742091,34.6361559 14.04,34.76 C13.7020173,34.8538864 13.344236,34.6999572 13.18,34.39 C13.18,34.38 13.17,34.36 13.17,34.35 C13.12,34.25 13.06,34.16 13.01,34.06 C12.928013,33.891752 12.8578432,33.7179983 12.8,33.54 C12.3283556,32.0534877 12.3670733,30.4519842 12.91,28.99 C13.216674,27.8958558 13.856245,26.9242671 14.74,26.21 C15.0933647,25.9446695 15.4989372,25.7572201 15.93,25.66 C16.2484468,25.6148535 16.5608327,25.7750514 16.71,26.06 C17.4234731,27.5881748 17.4954976,29.3383696 16.91,30.92 Z" id="Shape" fill="#549414"/><path d="M16.54,31.93 C16.228151,32.8157972 15.6862919,33.6027008 14.97,34.21 C15.2664943,33.3164757 15.8110122,32.5257108 16.54,31.93 Z" id="Shape" fill="#549414"/><path d="M19.8,36.07 C19.6232419,37.5390345 18.9865703,38.9145812 17.981,40 C17.3740567,38.5897949 17.2475628,37.0191619 17.621,35.53 C17.8294324,34.1925242 18.5020874,32.9711244 19.521,32.08 C20.0068442,33.3530749 20.1039435,34.7416994 19.8,36.07 Z" id="Shape" fill="#60A917"/><path d="M11.881,22.89 C11.5134501,23.8616345 10.9205344,24.7321582 10.151,25.43 C9.83650019,23.8616828 10.0510329,22.2333442 10.761,20.8 C11.1065701,19.9501438 11.6727232,19.2079311 12.401,18.65 C12.674695,20.0829573 12.4928556,21.5656479 11.881,22.89 Z" id="Shape" fill="#60A917"/><path d="M12.52,25.58 C12.2475836,25.9686487 11.9131232,26.3098658 11.53,26.59 C11.7996727,26.1990798 12.1345509,25.8574364 12.52,25.58 Z" id="Shape" fill="#549414"/><path d="M15.351,29.89 C15.0581953,31.1091775 14.4232997,32.2193774 13.521,33.09 C13.0493556,31.6034877 13.0880733,30.0019842 13.631,28.54 C13.937674,27.4458558 14.577245,26.4742671 15.461,25.76 C15.8523599,27.1149104 15.8139283,28.557843 15.351,29.89 Z" id="Shape" fill="#60A917"/><path d="M44.4,41.04 C44.35,41.11 44.3,41.17 44.25,41.24 C44.2087844,41.3097993 44.1583281,41.3737106 44.1,41.43 C43.8745633,41.6864941 43.5034638,41.7565907 43.2,41.6 C41.98,40.9 41.03,39.37 40.64,37.1 C40.1958798,35.4415846 40.4834692,33.6723631 41.43,32.24 C41.6389165,31.9756063 41.9957798,31.87828 42.31,32 C43.51,32.5 44.6,33.69 45.1,35.98 C45.5569063,37.6921535 45.3045689,39.5161928 44.4,41.04 Z" id="Shape" fill="#60A917"/><path d="M53.8,40.63 C52.8267276,42.4405402 51.0389972,43.6696049 49,43.93 C47.4246334,44.2989308 45.7675619,43.9022716 44.53,42.86 C44.3826579,42.7165259 44.2456494,42.5628089 44.12,42.4 C43.9044295,42.0904503 43.916609,41.676345 44.15,41.38 C45.3908808,39.9504086 47.0989819,39.0077636 48.97,38.72 C49.9040351,38.4831768 50.8744872,38.4254926 51.83,38.55 C52.5603769,38.6498097 53.236305,38.9912942 53.75,39.52 C53.9846698,39.8475689 54.0042685,40.2826591 53.8,40.63 Z" id="Shape" fill="#549414"/><path d="M57.61,31.84 C56.9637353,33.7415123 55.4883769,35.2463043 53.6,35.93 C51.42,36.75 49.83,36.28 48.91,35.37 C48.8775796,35.3353822 48.8475124,35.2986334 48.82,35.26 C48.6705237,34.9892614 48.6705237,34.6607386 48.82,34.39 C48.8255228,34.39 48.83,34.3855228 48.83,34.38 C49.783157,32.7968189 51.2362103,31.5759727 52.96,30.91 C53.8074202,30.4867384 54.7338216,30.2449204 55.68,30.2 C56.3094135,30.1764341 56.9265263,30.3785917 57.42,30.77 C57.6786066,31.0629938 57.7519235,31.475884 57.61,31.84 Z" id="Shape" fill="#549414"/><path d="M52.53,26.08 C52.5292662,26.1123322 52.5188123,26.143694 52.5,26.17 C52.45,26.34 52.39,26.51 52.33,26.67 C52.2095824,26.9397451 51.9349171,27.1069327 51.64,27.09 C50.48,26.9 49.37,25.86 48.56,23.92 C47.8469971,22.4244453 47.7151307,20.717311 48.19,19.13 C48.2732556,18.8306405 48.5309894,18.612558 48.84,18.58 C49.92,18.6 51.05,19.31 51.96,21.25 C52.7030234,22.7455837 52.9044653,24.4525388 52.53,26.08 Z" id="Shape" fill="#60A917"/><path d="M59.98,22.34 C59.6857636,24.3010875 58.5642207,26.0416638 56.9,27.12 C55.03,28.34 53.52,28.2 52.57,27.49 C52.4252052,27.3672537 52.3382126,27.1896438 52.33,27 C52.3123972,26.848149 52.3294934,26.6942833 52.38,26.55 C53.0394182,24.8510194 54.1922094,23.3882633 55.69,22.35 C56.3759003,21.7816194 57.1729,21.3626837 58.03,21.12 C58.5842254,20.9731824 59.1740626,21.0523069 59.67,21.34 C59.954934,21.5873623 60.0750527,21.9748418 59.98,22.34 Z" id="Shape" fill="#549414"/><path d="M51.83,39.6 C50.8567276,41.4105402 49.0689972,42.6396049 47.03,42.9 C46.2016239,43.0447363 45.3533217,43.0311635 44.53,42.86 C44.3826579,42.7165259 44.2456494,42.5628089 44.12,42.4 C43.9044295,42.0904503 43.916609,41.676345 44.15,41.38 C45.3908808,39.9504086 47.0989819,39.0077636 48.97,38.72 C49.9040351,38.4831768 50.8744872,38.4254926 51.83,38.55 C52.0161324,38.8752534 52.0161324,39.2747466 51.83,39.6 Z" id="Shape" fill="#60A917"/><path d="M55.64,30.81 C54.9937353,32.7115123 53.5183769,34.2163043 51.63,34.9 C50.7429576,35.271286 49.7719918,35.3956802 48.82,35.26 C48.6705237,34.9892614 48.6705237,34.6607386 48.82,34.39 C48.8255228,34.39 48.83,34.3855228 48.83,34.38 C49.783157,32.7968189 51.2362103,31.5759727 52.96,30.91 C53.8074202,30.4867384 54.7338216,30.2449204 55.68,30.2 C55.7160498,30.403584 55.7023263,30.6128669 55.64,30.81 Z" id="Shape" fill="#60A917"/><path d="M58.03,21.12 C58.0277759,21.1837225 58.0210928,21.2472111 58.01,21.31 C57.7157636,23.2710875 56.5942207,25.0116638 54.93,26.09 C54.1686,26.6365193 53.2660285,26.9524193 52.33,27 C52.3123972,26.848149 52.3294934,26.6942833 52.38,26.55 C53.0394182,24.8510194 54.1922094,23.3882633 55.69,22.35 C56.3759003,21.7816194 57.1729,21.3626837 58.03,21.12 Z" id="Shape" fill="#60A917"/><path d="M48.99,34.06 C48.94,34.16 48.88,34.25 48.83,34.35 C48.83,34.36 48.82,34.38 48.82,34.39 C48.655764,34.6999572 48.2979827,34.8538864 47.96,34.76 C46.75,34.32 45.7,33.03 45.09,30.92 C44.5045024,29.3383696 44.5765269,27.5881748 45.29,26.06 C45.4391673,25.7750514 45.7515532,25.6148535 46.07,25.66 C47.23,25.92 48.36,26.86 49.09,28.99 C49.7147651,30.6291332 49.6789141,32.4467776 48.99,34.06 Z" id="Shape" fill="#60A917"/><path d="M7.95,20.9 C6.9,20.81 5.65,18.66 5.35,15.76 C5.05,12.86 5.73,10.39 6.57,10 C7.42,10.38 8.19,12.62 8.6,15.26 C9.01,17.9 8.83,20.24 7.95,20.9 Z" id="Shape" fill="#60A917"/><path d="M56.65,15.76 C56.35,18.66 55.1,20.81 54.05,20.9 C53.17,20.24 53,17.91 53.4,15.26 C53.8,12.61 54.58,10.38 55.43,10 C56.27,10.39 56.95,12.86 56.65,15.76 Z" id="Shape" fill="#60A917"/><path d="M35.71,25.71 L34.27,26.8 C34.0929711,26.9295711 33.8793804,26.9996009 33.66,27 L28.34,27 C28.1206196,26.9996009 27.9070289,26.9295711 27.73,26.8 L26.29,25.71 C25.9000221,25.3169921 25.9000221,24.6830079 26.29,24.29 L27.73,23.2 C27.9070289,23.0704289 28.1206196,23.0003991 28.34,23 L33.66,23 C33.8793804,23.0003991 34.0929711,23.0704289 34.27,23.2 L35.71,24.29 C36.0999779,24.6830079 36.0999779,25.3169921 35.71,25.71 Z" id="Shape" fill="#F57C00"/><path d="M32,36.45 L31,38 L29.5,39 L28,38 L27.11,36.45 C26.9599555,36.1687611 26.9599555,35.8312389 27.11,35.55 L27.71,34.5 C27.889341,34.1893658 28.2213152,33.998576 28.58,34 L30.45,34 C30.7928377,33.9999404 31.112537,34.1729541 31.3,34.46 L32,35.55 C32.1399671,35.8336743 32.1399671,36.1663257 32,36.45 Z" id="Shape" fill="#FF9801"/><path d="M32.71,25.71 L31.27,26.8 C31.0929711,26.9295711 30.8793804,26.9996009 30.66,27 L28.34,27 C28.1206196,26.9996009 27.9070289,26.9295711 27.73,26.8 L26.29,25.71 C25.9000221,25.3169921 25.9000221,24.6830079 26.29,24.29 L27.73,23.2 C27.9070289,23.0704289 28.1206196,23.0003991 28.34,23 L30.66,23 C30.8793804,23.0003991 31.0929711,23.0704289 31.27,23.2 L32.71,24.29 C33.0999779,24.6830079 33.0999779,25.3169921 32.71,25.71 Z" id="Shape" fill="#FF9801"/><polygon id="Shape" fill="#FEC108" points="45 55 31 57 29.5 56.79 17 55 19 48 31 46 43 48"/><polygon id="Shape" fill="#FFDC00" points="42 55 29.5 56.79 17 55 19 48 29.5 46.25 40 48"/><rect id="Rectangle-path" fill="#783E22" x="15" y="55" width="32" height="4" rx="1"/><rect id="Rectangle-path" fill="#783E22" x="18" y="44" width="26" height="4" rx="1"/><rect id="Rectangle-path" fill="#A0522D" x="15" y="55" width="29" height="4" rx="1"/><rect id="Rectangle-path" fill="#A0522D" x="18" y="44" width="23" height="4" rx="1"/><path d="M39.58,15 L40.85,15 C42.3632035,14.997025 43.6389669,13.8710996 43.83,12.37 L44.36,8.12 C44.3942778,7.83642487 44.3056531,7.55172681 44.1164785,7.33771101 C43.9273038,7.1236952 43.6556382,7.0007922 43.37,7 L39.27,7 L37.17,4.847 L39.09,3 L43.34,3 C44.7731212,3.0026713 46.1364032,3.61931111 47.0847154,4.69380993 C48.0330275,5.76830875 48.4754578,7.19765751 48.3,8.62 L47.77,12.87 C47.3281783,16.3722818 44.3500401,18.9990426 40.82,19 L38.27,19 L39.58,15 Z" id="Shape" fill="#F57C00"/><path d="M23.73,19 L21.18,19 C17.6499599,18.9990426 14.6718217,16.3722818 14.23,12.87 L13.7,8.62 C13.5245422,7.19765751 13.9669725,5.76830875 14.9152846,4.69380993 C15.8635968,3.61931111 17.2268788,3.0026713 18.66,3 L22.91,3 L25,5 L22.73,7 L18.63,7 C18.3443618,7.0007922 18.0726962,7.1236952 17.8835215,7.33771101 C17.6943469,7.55172681 17.6057222,7.83642487 17.64,8.12 L18.17,12.37 C18.3610331,13.8710996 19.6367965,14.997025 21.15,15 L22.42,15 L23.73,19 Z" id="Shape" fill="#FF9801"/><path d="M39.59,14.01 C39.6964942,16.3559178 38.8390418,18.6433509 37.2167211,20.3412162 C35.5944003,22.0390816 33.3483337,22.9996853 31,23 C30.5679784,23.0022895 30.1365075,22.9688421 29.71,22.9 L29.69,22.9 C25.3492621,22.2303976 22.2105521,18.3975499 22.41,14.01 L22.96,1.95 C22.9831406,1.41572114 23.4252373,0.995729257 23.96,1 L38.04,1 C38.5747627,0.995729257 39.0168594,1.41572114 39.04,1.95 L39.59,14.01 Z" id="Shape" fill="#FDD834"/><path d="M36.99,14.01 C37.1894479,18.3975499 34.0507379,22.2303976 29.71,22.9 L29.69,22.9 C25.3492621,22.2303976 22.2105521,18.3975499 22.41,14.01 L22.96,1.95 C22.9831406,1.41572114 23.4252373,0.995729257 23.96,1 L35.44,1 C35.9747627,0.995729257 36.4168594,1.41572114 36.44,1.95 L36.99,14.01 Z" id="Shape" fill="#FFEB3A"/><path d="M45,56 L17,56 C16.6862937,56.0000848 16.3907286,55.8529533 16.2016883,55.6026027 C16.012648,55.3522521 15.9520445,55.0277007 16.038,54.726 L18.038,47.726 C18.1604392,47.2962428 18.5531414,46.9998792 19,47 L43,47 C43.4468586,46.9998792 43.8395608,47.2962428 43.962,47.726 L45.962,54.726 C46.0479555,55.0277007 45.987352,55.3522521 45.7983117,55.6026027 C45.6092714,55.8529533 45.3137063,56.0000848 45,56 Z M18.326,54 L43.674,54 L42.246,49 L19.754,49 L18.326,54 Z" id="Shape" fill="#000000"/><path d="M46,60 L16,60 C14.8954305,60 14,59.1045695 14,58 L14,56 C14,54.8954305 14.8954305,54 16,54 L46,54 C47.1045695,54 48,54.8954305 48,56 L48,58 C48,59.1045695 47.1045695,60 46,60 Z M16,56 L16,58 L46,58 L46,56 L16,56 Z" id="Shape" fill="#000000"/><path d="M43,49 L19,49 C17.8954305,49 17,48.1045695 17,47 L17,45 C17,43.8954305 17.8954305,43 19,43 L43,43 C44.1045695,43 45,43.8954305 45,45 L45,47 C45,48.1045695 44.1045695,49 43,49 Z M19,45 L19,47 L43,47 L43,45 L19,45 Z" id="Shape" fill="#000000"/><path d="M39,45 L23,45 C22.4477153,45 22,44.5522847 22,44 L22,43.59 C21.9994601,41.6064824 23.3509285,39.877956 25.276,39.4 C25.9330248,39.2390933 26.4849273,38.7952274 26.783,38.188 L27.108,37.547 C27.358185,37.054362 27.960362,36.857815 28.453,37.108 C28.945638,37.358185 29.142185,37.960362 28.892,38.453 L28.571,39.083 C28.0127805,40.2143334 26.9831645,41.041174 25.758,41.342 C24.9365966,41.5459865 24.2917694,42.1816129 24.076,43 L37.924,43 C37.7092346,42.1768064 37.0590237,41.5385084 36.232,41.339 C35.0069679,41.0354466 33.9789765,40.205512 33.424,39.072 L33.108,38.453 C32.9461587,38.1343191 32.9666254,37.7535045 33.1616905,37.4540053 C33.3567556,37.1545062 33.6967841,36.9818236 34.0536905,37.0010053 C34.4105969,37.0201871 34.7301587,37.2283191 34.892,37.547 L35.212,38.177 C35.5074206,38.7885239 36.0597636,39.2367757 36.719,39.4 C38.6458504,39.8763279 39.9996109,41.6051472 40,43.59 L40,44 C40,44.5522847 39.5522847,45 39,45 Z" id="Shape" fill="#000000"/><path d="M33,24 C32.4477153,24 32,23.5522847 32,23 L32,22.76 C32,22.2077153 32.4477153,21.76 33,21.76 C33.5522847,21.76 34,22.2077153 34,22.76 L34,23 C34,23.5522847 33.5522847,24 33,24 Z" id="Shape" fill="#000000"/><path d="M33,35 C32.4477153,35 32,34.5522847 32,34 L32,27 C32,26.4477153 32.4477153,26 33,26 C33.5522847,26 34,26.4477153 34,27 L34,34 C34,34.5522847 33.5522847,35 33,35 Z" id="Shape" fill="#000000"/><path d="M29,24 C28.4477153,24 28,23.5522847 28,23 L28,22.76 C28,22.2077153 28.4477153,21.76 29,21.76 C29.5522847,21.76 30,22.2077153 30,22.76 L30,23 C30,23.5522847 29.5522847,24 29,24 Z" id="Shape" fill="#000000"/><path d="M29,35 C28.4477153,35 28,34.5522847 28,34 L28,27 C28,26.4477153 28.4477153,26 29,26 C29.5522847,26 30,26.4477153 30,27 L30,34 C30,34.5522847 29.5522847,35 29,35 Z" id="Shape" fill="#000000"/><path d="M40.82,20 L38.27,20 C37.7177153,20 37.27,19.5522847 37.27,19 C37.27,18.4477153 37.7177153,18 38.27,18 L40.82,18 C43.8447598,17.9959593 46.3957005,15.7456331 46.777,12.745 L47.308,8.5 C47.4488064,7.36164539 47.095143,6.217513 46.3365214,5.35718109 C45.5778999,4.49684918 44.4870266,4.00277208 43.34,4 L40.14,4 L40.23,6 L43.37,6 C43.9413848,6.0005451 44.485253,6.24545292 44.8643859,6.67293291 C45.2435188,7.1004129 45.4217094,7.66964091 45.354,8.237 L44.822,12.494 C44.5663532,14.4943313 42.8665942,15.9946725 40.85,16 L39.58,16 C39.0277153,16 38.58,15.5522847 38.58,15 C38.58,14.4477153 39.0277153,14 39.58,14 L40.85,14 C41.8596462,13.9970425 42.7104167,13.2455571 42.838,12.244 L43.368,8 L39.268,8 C38.732822,8.00054213 38.2920827,7.57963614 38.268,7.045 L38.088,3.045 C38.0756891,2.77172838 38.1758623,2.50534296 38.3651855,2.3078951 C38.5545087,2.11044724 38.8164525,1.99917574 39.09,2 L43.34,2 C45.0598075,2.00246513 46.6960476,2.74207259 47.8341572,4.03143301 C48.9722668,5.32079343 49.5030406,7.03618845 49.292,8.743 L48.762,12.994 C48.2538832,16.9946234 44.8527589,19.9949101 40.82,20 Z" id="Shape" fill="#000000"/><path d="M23.73,20 L21.18,20 C17.149253,19.9952971 13.7488807,16.9982427 13.238,13 L12.708,8.749 C12.4950951,7.04122695 13.025021,5.32417162 14.1633447,4.03342123 C15.3016683,2.74267085 16.9390084,2.00225341 18.66,2 L22.91,2 C23.1832006,1.99972324 23.4446193,2.11123464 23.6335047,2.30861988 C23.8223901,2.50600512 23.9222942,2.77207606 23.91,3.045 L23.73,7.045 C23.7059173,7.57963614 23.265178,8.00054213 22.73,8 L18.63,8 L19.162,12.246 C19.290503,13.2467637 20.1410238,13.9971729 21.15,14 L22.42,14 C22.9722847,14 23.42,14.4477153 23.42,15 C23.42,15.5522847 22.9722847,16 22.42,16 L21.15,16 C19.1354142,15.995065 17.4364036,14.4979509 17.178,12.5 L16.647,8.248 C16.5759011,7.67904824 16.7524117,7.10694473 17.1317134,6.67695473 C17.5110151,6.24696472 18.0566232,6.00044848 18.63,6 L21.774,6 L21.864,4 L18.664,4 C17.5170815,4.00309464 16.4264099,4.49726536 15.6678593,5.35751682 C14.9093087,6.21776828 14.5555271,7.36171226 14.696,8.5 L15.227,12.749 C15.6099461,15.7465379 18.1581053,17.9942087 21.18,18 L23.73,18 C24.2822847,18 24.73,18.4477153 24.73,19 C24.73,19.5522847 24.2822847,20 23.73,20 Z" id="Shape" fill="#000000"/><path d="M31,24 C28.3781103,24.0002474 25.8702002,22.9281155 24.0587442,21.0326122 C22.2472882,19.1371089 21.2899225,16.5831843 21.409,13.964 L21.958,1.909 C22.0066838,0.840121437 22.8880139,-0.00110811766 23.958,3.10862447e-15 L38.044,3.10862447e-15 C39.1147261,-0.00106065517 39.9963532,0.841334018 40.044,1.911 L40.593,13.964 C40.7120934,16.5835313 39.7544585,19.1377696 37.942565,21.0333354 C36.1306716,22.9289011 33.622237,24.0007938 31,24 Z M23.956,2 L23.407,14.056 C23.2871499,16.8464934 24.7075839,19.4778698 27.1062219,20.9088671 C29.50486,22.3398643 32.49514,22.3398643 34.8937781,20.9088671 C37.2924161,19.4778698 38.7128501,16.8464934 38.593,14.056 L38.044,2 L23.956,2 Z" id="Shape" fill="#000000"/><path d="M26.5,15 L26.443,15 C25.8919313,14.9688406 25.4703145,14.4970953 25.501,13.946 L26.001,4.946 C26.0103332,4.67880532 26.1280977,4.42693893 26.3271511,4.24845124 C26.5262045,4.06996356 26.7893725,3.98025439 27.056,4 C27.3213671,4.01444319 27.5700703,4.13392378 27.7471899,4.33205752 C27.9243094,4.53019126 28.0152753,4.79067948 28,5.056 L27.5,14.056 C27.4702571,14.5863017 27.0311345,15.0008334 26.5,15 Z" id="Shape" fill="#000000"/><path d="M34,39 L28,39 C27.6427435,38.9999909 27.3126283,38.8093932 27.134,38.5 L26.239,36.947 C25.9365501,36.3729288 25.9261482,35.6890035 26.211,35.106 L26.846,34.006 C27.2032565,33.3872136 27.863487,33.0060182 28.578,33.006 L33.454,33.006 C34.1352841,33.0042103 34.7701821,33.3508956 35.137,33.925 L35.837,35.017 C35.856,35.047 35.874,35.079 35.891,35.111 C36.1710314,35.6748101 36.1710314,36.3371899 35.891,36.901 C35.8736667,36.933 35.8556667,36.964 35.837,36.994 L34.837,38.547 C34.6523455,38.8295966 34.3375769,38.9999552 34,39 Z M28.578,37 L33.454,37 L34.099,36 L33.454,35 L28.578,35 L28,36 L28.578,37 Z" id="Shape" fill="#000000"/><path d="M33.664,28 L28.336,28 C27.9000377,27.9987746 27.4762075,27.8563283 27.128,27.594 L25.689,26.5 C25.6534314,26.4725808 25.6200015,26.4424939 25.589,26.41 C24.8082361,25.6290003 24.8082361,24.3629997 25.589,23.582 C25.6200015,23.5495061 25.6534314,23.5194192 25.689,23.492 L27.129,22.402 C27.4772648,22.1409817 27.9007772,21.9999279 28.336,22 L33.664,22 C34.0999623,22.0012254 34.5237925,22.1436717 34.872,22.406 L36.311,23.496 C36.3465686,23.5234192 36.3799985,23.5535061 36.411,23.586 C37.1917639,24.3669997 37.1917639,25.6330003 36.411,26.414 C36.3799985,26.4464939 36.3465686,26.4765808 36.311,26.504 L34.871,27.594 C34.5232363,27.8564464 34.0996794,27.9989187 33.664,28 Z M27.016,25 L28.336,26 L33.664,26 L34.984,25 L33.664,24 L28.336,24 L27.016,25 Z" id="Shape" fill="#000000"/><path d="M18.462,42.688 C17.9184999,42.6834212 17.4061705,42.4335044 17.068,42.008 C15.764431,40.2084378 15.34329,37.9164163 15.922,35.771 C16.57,32.791 18.122,31.571 19.303,31.071 C20.0354431,30.7772679 20.8738612,31.0035919 21.359,31.626 C22.4751931,33.2819439 22.8337478,35.3347245 22.345,37.271 C21.919,39.745 20.837,41.588 19.296,42.463 C19.0424171,42.6095401 18.754878,42.6871136 18.462,42.688 Z M19.886,33.008 C18.7658018,33.7111613 18.0264578,34.8858682 17.877,36.2 C17.4609578,37.692341 17.6902391,39.2907801 18.509,40.606 C19.5813975,39.6711915 20.2498564,38.3572126 20.374,36.94 C20.7202379,35.61516 20.5455962,34.208006 19.886,33.008 Z" id="Shape" fill="#000000"/><path d="M14.159,45.026 C13.718953,45.024807 13.2796523,44.9897031 12.845,44.921 C10.4933052,44.602446 8.43592381,43.1780765 7.31,41.089 C6.90571732,40.3657695 6.99133275,39.4678029 7.525,38.834 C8.732,37.545 10.657,37.177 13.241,37.747 C15.344305,38.077971 17.2597606,39.1506261 18.641,40.771 C19.153972,41.4223774 19.1703247,42.3356764 18.681,43.005 C17.5794647,44.3576737 15.9015414,45.1075815 14.159,45.026 Z M13.159,42.945 C15.367,43.292 16.487,42.499 16.993,41.912 C15.8932019,40.7199641 14.4191003,39.9395158 12.815,39.7 C11.039,39.307 9.778,39.45 9.067,40.118 C9.07128563,40.1353744 9.07766568,40.1521641 9.086,40.168 C9.90746511,41.7039313 11.4281787,42.7410191 13.158,42.945 L13.159,42.945 Z" id="Shape" fill="#000000"/><path d="M13.836,35.8 C13.1969401,35.7867416 12.6137489,35.4327838 12.307,34.872 C11.3178848,32.9475737 11.1938994,30.6932932 11.966,28.672 C12.922,25.852 14.529,24.946 15.71,24.684 C16.466595,24.5321333 17.2323967,24.8991309 17.588,25.584 C18.4256027,27.3417087 18.5274632,29.3609222 17.871,31.194 C17.195,33.528 15.955,35.129 14.378,35.701 C14.2045871,35.7657113 14.0210919,35.7992279 13.836,35.8 Z M15.91,26.7 C14.8781206,27.2284203 14.1293661,28.1821779 13.861,29.31 C13.3075385,30.7307844 13.3399027,32.3130361 13.951,33.71 C14.9873804,32.9816737 15.7035802,31.8823071 15.951,30.64 C16.4183849,29.3656321 16.4038032,27.9643657 15.91,26.7 Z" id="Shape" fill="#000000"/><path d="M10.536,37.349 C9.68572784,37.3374221 8.84441865,37.1734955 8.052,36.865 C5.87249521,36.0859492 4.17340452,34.346281 3.446,32.149 C3.16433562,31.394009 3.36478045,30.5436968 3.954,29.994 C5.254,28.939 7.108,28.938 9.454,29.994 C11.377537,30.7476774 12.9957929,32.119677 14.054,33.894 C14.4543161,34.5952779 14.3509194,35.4755692 13.799,36.065 C12.9293745,36.9161087 11.7524376,37.3792368 10.536,37.349 Z M8.756,34.993 C9.87385908,35.5683964 11.2169714,35.4858909 12.256,34.778 C11.395301,33.4309409 10.1260495,32.3947242 8.634,31.821 C7.126,31.141 6.017,31.021 5.334,31.461 C5.33695368,31.4824351 5.34197714,31.5035337 5.349,31.524 C5.88812658,33.1443568 7.14562836,34.4247424 8.756,34.993 Z" id="Shape" fill="#000000"/><path d="M10.282,28.1 C9.55298762,28.0692985 8.9185179,27.5919545 8.687,26.9 C8.02485278,24.8969987 8.18490724,22.7130646 9.132,20.828 C10.371,18.19 11.993,17.609 13.132,17.586 C13.8788753,17.6100636 14.5293427,18.1026233 14.755,18.815 C15.3048475,20.631869 15.1623504,22.5879981 14.355,24.306 C13.455,26.483 12.094,27.825 10.522,28.083 C10.4426773,28.0959006 10.3623492,28.1015905 10.282,28.1 Z M12.915,19.606 C12.015,19.787 11.35,20.806 10.944,21.668 C10.258815,23.0137171 10.100486,24.5666959 10.5,26.023 C11.466703,25.4849735 12.1877127,24.5937452 12.512,23.536 C13.1020432,22.3149092 13.244328,20.9253316 12.914,19.61 L12.915,19.606 Z" id="Shape" fill="#000000"/><path d="M7.727,29.034 C6.58639122,28.9951256 5.48248051,28.6212428 4.553,27.959 C2.64792684,26.7278595 1.36395294,24.7372446 1.028,22.494 C0.863133145,21.7232879 1.17447111,20.9286086 1.819,20.475 C3.185,19.665 4.902,20.026 6.913,21.558 C8.57129389,22.7115887 9.84468505,24.3368608 10.568,26.223 C10.8513668,26.9566522 10.6348515,27.7893103 10.03,28.292 C9.36228303,28.7809142 8.55454567,29.0411579 7.727,29.034 Z M5.647,26.285 C6.834,27.058 7.89,27.238 8.647,26.809 C8.03660175,25.3326517 7.01425653,24.0631384 5.702,23.152 C4.865,22.517 3.743,21.852 2.996,22.12 C2.99411956,22.1432954 2.99411956,22.1667046 2.996,22.19 C3.24930638,23.8704767 4.21131796,25.3615583 5.638,26.285 L5.647,26.285 Z" id="Shape" fill="#000000"/><path d="M7.952,21.9 C7.925,21.9 7.896,21.9 7.869,21.9 C5.949,21.74 4.65,18.744 4.359,15.866 C4.067,13.06 4.587,9.833 6.145,9.102 C6.4700319,8.93835232 6.8583053,8.96419068 7.15878666,9.16946427 C7.45926803,9.37473786 7.62451867,9.72703898 7.59025813,10.0893269 C7.55599759,10.4516148 7.32763478,10.766693 6.994,10.912 C6.727,11.143 6.065,12.938 6.35,15.662 C6.62,18.337 7.691,19.803 8.05,19.909 C8.31231883,19.9320972 8.55465844,20.0586491 8.72351724,20.2607168 C8.89237603,20.4627845 8.97386726,20.7237501 8.95,20.986 C8.90213668,21.5021084 8.47031744,21.8975822 7.952,21.9 Z" id="Shape" fill="#000000"/><path d="M7.952,21.9 C7.52156959,21.9 7.13943075,21.6245699 7.0033167,21.2162278 C6.86720266,20.8078856 7.00765567,20.3582582 7.352,20.1 C7.652,19.872 8.045,18.267 7.61,15.42 C7.145,12.435 6.418,11.087 6.14,10.9 C5.89935675,10.7914352 5.7119782,10.5913396 5.61942598,10.3440957 C5.52687376,10.0968517 5.53679892,9.82289834 5.647,9.583 C5.87915502,9.07968658 6.47299388,8.8567741 6.979,9.083 C8.46,9.75 9.216,12.724 9.589,15.102 C9.889,17.056 10.147,20.502 8.549,21.692 C8.37772876,21.8240678 8.16825685,21.8970496 7.952,21.9 Z" id="Shape" fill="#000000"/><path d="M20.06,45 C19.7772795,45.0001534 19.5077054,44.8806252 19.318,44.671 C18.518,43.783 17.804,42.938 17.145,42.087 C17.0444135,41.9822065 16.9567852,41.8657046 16.884,41.74 L16.784,41.626 C15.1165181,39.4964894 13.6179585,37.2399568 12.302,34.877 C12.2770575,34.8327614 12.2556573,34.7866172 12.238,34.739 C12.173,34.624 12.138,34.565 12.108,34.503 C10.7776616,32.0991751 9.64557607,29.5908616 8.723,27.003 C8.662,26.84 8.596,26.654 8.541,26.467 C8.534,26.449 8.528,26.431 8.522,26.412 C7.90703029,24.6799873 7.3895532,22.9148897 6.972,21.125 C6.86628441,20.5954481 7.20008438,20.0776169 7.72603716,19.9552458 C8.25198994,19.8328747 8.78009516,20.1501701 8.919,20.672 C9.3201351,22.3890642 9.81690955,24.0823707 10.407,25.744 C10.414,25.764 10.421,25.784 10.427,25.804 C10.433,25.824 10.446,25.858 10.455,25.887 C10.498,26.034 10.555,26.181 10.602,26.319 C11.4956647,28.8224076 12.5919636,31.24878 13.88,33.574 L13.951,33.703 C13.988,33.768 14.025,33.833 14.059,33.903 C14.0749466,33.9332887 14.08865,33.9647064 14.1,33.997 C15.3593763,36.2460556 16.7906354,38.3944488 18.381,40.423 L18.458,40.523 L18.558,40.662 C18.6024388,40.7117167 18.644166,40.7637923 18.683,40.818 C19.321,41.643 20.011,42.464 20.793,43.329 C21.0573137,43.6210395 21.125571,44.0410345 20.9673418,44.4017454 C20.8091125,44.7624562 20.4538754,44.9966814 20.06,45 Z" id="Shape" fill="#000000"/><path d="M43.539,42.688 C43.2442391,42.688 42.9546225,42.6107689 42.699,42.464 C41.163,41.592 40.081,39.749 39.655,37.275 C39.1663075,35.3399534 39.5241159,33.2883728 40.639,31.633 C41.1214111,31.0086946 41.9594051,30.7801136 42.692,31.073 C43.881,31.573 45.43,32.791 46.078,35.773 C46.656861,37.9204362 46.2345899,40.2144453 44.929,42.015 C44.5903293,42.4367985 44.0799207,42.6839244 43.539,42.688 Z M42.113,33.008 C41.4561157,34.2060077 41.2818985,35.6097619 41.626,36.932 C41.7496413,38.3499239 42.418144,39.6647057 43.491,40.6 C44.3100261,39.2837677 44.5392978,37.6843075 44.123,36.191 C43.9704231,34.8800664 43.2310719,33.7092431 42.113,33.008 Z" id="Shape" fill="#000000"/><path d="M47.841,45.026 C46.1001744,45.1079852 44.4236946,44.3591724 43.323,43.008 C42.8312793,42.3387289 42.8464148,41.4236433 43.36,40.771 C44.7413647,39.1506013 46.6567017,38.0776578 48.76,37.746 C51.341,37.18 53.265,37.546 54.475,38.837 C55.0069208,39.4714738 55.0909232,40.368827 54.686,41.091 C53.5603676,43.177619 51.505256,44.6005887 49.156,44.92 C48.7210391,44.9890498 48.281405,45.024488 47.841,45.026 Z M45.008,41.912 C45.508,42.496 46.629,43.292 48.842,42.945 C50.5709116,42.7415125 52.0911329,41.705626 52.913,40.171 C52.9219252,40.154622 52.9286499,40.1371377 52.933,40.119 C52.218,39.449 50.96,39.31 49.188,39.7 C47.5832866,39.9393915 46.1085118,40.7198226 45.008,41.912 Z" id="Shape" fill="#000000"/><path d="M48.164,35.8 C47.9775131,35.7992751 47.7926389,35.7654153 47.618,35.7 C46.045,35.13 44.805,33.529 44.129,31.2 C43.4728015,29.3684135 43.5739347,27.350787 44.41,25.594 C44.7634483,24.9078901 45.5274246,24.5375144 46.285,24.685 C47.471,24.949 49.078,25.855 50.033,28.672 C50.806447,30.6956504 50.6817114,32.9528926 49.69,34.879 C49.382898,35.4370551 48.8008681,35.7883327 48.164,35.8 Z M46.09,26.7 C45.5969044,27.9627738 45.582323,29.362226 46.049,30.635 C46.2960313,31.8774654 47.0123178,32.9769651 48.049,33.705 C48.6593388,32.3078075 48.6913399,30.7257305 48.138,29.305 C47.8681743,28.1794163 47.1200925,27.2278768 46.09,26.7 Z" id="Shape" fill="#000000"/><path d="M51.464,37.349 C50.2485386,37.3817876 49.0714141,36.9219734 48.2,36.074 C47.6467786,35.4845385 47.5425491,34.603252 47.943,33.901 C49.004076,32.124636 50.6263942,30.7521217 52.554,30 C54.894,28.943 56.745,28.942 58.054,30 C58.6420979,30.5499801 58.8417054,31.3996928 58.56,32.154 C57.8322025,34.35082 56.1331998,36.0900292 53.954,36.869 C53.159445,37.1768327 52.3160486,37.3394151 51.464,37.349 Z M49.746,34.778 C50.7848085,35.4865338 52.1282807,35.5690614 53.246,34.993 C54.8583574,34.4263739 56.1182199,33.1462089 56.659,31.525 C56.665909,31.5045009 56.6709299,31.4834132 56.674,31.462 C55.987,31.021 54.879,31.14 53.374,31.819 C51.8796289,32.3924583 50.608197,33.4294394 49.746,34.778 Z" id="Shape" fill="#000000"/><path d="M51.715,28.1 C51.6321721,28.1001211 51.5495027,28.0927578 51.468,28.078 C49.903,27.821 48.542,26.478 47.642,24.302 C46.8353166,22.5848862 46.6928276,20.6299371 47.242,18.814 C47.4614813,18.1065404 48.1019418,17.6133858 48.842,17.582 L48.863,17.582 C50.011,17.605 51.633,18.182 52.871,20.822 C53.8190776,22.7082197 53.9791455,24.893776 53.316,26.898 C53.0846223,27.5929053 52.446867,28.0717197 51.715,28.1 Z M49.086,19.6 C48.7551927,20.9144462 48.896772,22.3033393 49.486,23.524 C49.8081958,24.5867318 50.5302072,25.4829724 51.5,26.024 C51.8986693,24.5679578 51.7403672,23.0155994 51.056,21.67 C50.652,20.811 49.993,19.794 49.086,19.61 L49.086,19.6 Z" id="Shape" fill="#000000"/><path d="M54.272,29.034 C53.4456056,29.0417342 52.6388435,28.7821673 51.972,28.294 C51.3641363,27.7906383 51.1469579,26.9545618 51.433,26.219 C52.1569171,24.3329013 53.4310366,22.7079373 55.09,21.555 C57.098,20.027 58.813,19.663 60.185,20.478 C60.8265524,20.9319132 61.1357475,21.7245698 60.971,22.493 C60.6354855,24.7353559 59.3526949,26.725466 57.449,27.957 C56.5188204,28.6203515 55.4138161,28.9949469 54.272,29.034 Z M53.346,26.808 C54.103,27.239 55.161,27.059 56.352,26.285 C57.7811987,25.362566 58.7455454,23.8708877 59,22.189 C59.0018783,22.1663722 59.0018783,22.1436278 59,22.121 C58.241,21.85 57.128,22.521 56.3,23.149 C54.9847591,24.0598288 53.9595892,25.3300953 53.347,26.808 L53.346,26.808 Z" id="Shape" fill="#000000"/><path d="M54.048,21.9 C53.4957153,21.9223675 53.0298676,21.4927847 53.0075001,20.9405 C52.9851325,20.3882153 53.4147153,19.9223676 53.967,19.9 C54.309,19.8 55.38,18.332 55.65,15.66 C55.935,12.933 55.273,11.138 54.963,10.883 C54.7243628,10.771472 54.5407371,10.5684844 54.4536096,10.3198984 C54.3664822,10.0713124 54.3832051,9.79810409 54.5,9.562 C54.7488222,9.06278907 55.3530376,8.85677614 55.855,9.1 C57.413,9.831 57.933,13.058 57.641,15.867 C57.35,18.742 56.051,21.738 54.131,21.898 C54.1,21.9 54.075,21.9 54.048,21.9 Z" id="Shape" fill="#000000"/><path d="M54.048,21.9 C53.8316298,21.9 53.6210962,21.8298221 53.448,21.7 C51.848,20.51 52.11,17.064 52.408,15.114 C52.781,12.732 53.537,9.758 55.018,9.091 C55.5162751,8.87849277 56.0931618,9.10136901 56.3191336,9.59368412 C56.5451055,10.0859992 56.3379913,10.6687306 55.852,10.908 C55.569,11.108 54.852,12.456 54.385,15.421 C53.95,18.264 54.339,19.869 54.643,20.097 C54.9873443,20.3552582 55.1277973,20.8048856 54.9916833,21.2132278 C54.8555693,21.6215699 54.4734304,21.897 54.043,21.897 L54.048,21.9 Z" id="Shape" fill="#000000"/><path d="M41.94,45 C41.544675,44.9998192 41.1865633,44.7667633 41.0263076,44.405377 C40.866052,44.0439908 40.9337369,43.6221166 41.199,43.329 C41.981,42.464 42.671,41.643 43.309,40.818 C43.336268,40.7826068 43.3660091,40.7491898 43.398,40.718 L43.537,40.524 C43.546,40.514 43.605,40.434 43.614,40.424 C45.2060005,38.39626 46.6389325,36.2485337 47.9,34 C47.91135,33.9677064 47.9250534,33.9362887 47.941,33.906 C47.975,33.839 48.012,33.774 48.049,33.706 L48.099,33.617 C49.3929763,31.2835167 50.4946228,28.8484564 51.393,26.336 C51.449,26.184 51.502,26.036 51.545,25.89 C51.554,25.861 51.563,25.834 51.573,25.807 C51.583,25.78 51.586,25.767 51.593,25.747 C52.1830905,24.0853707 52.6798649,22.3920642 53.081,20.675 C53.1524151,20.3172664 53.4129625,20.0268036 53.7608617,19.9170783 C54.1087609,19.8073531 54.4888068,19.8957767 54.7525378,20.1478073 C55.0162688,20.3998379 55.1218358,20.7754829 55.028,21.128 C54.6104468,22.9178897 54.0929697,24.6829873 53.478,26.415 C53.472,26.434 53.466,26.452 53.459,26.47 C53.404,26.657 53.338,26.844 53.273,27.02 C52.3458921,29.6161783 51.208797,32.132503 49.873,34.544 C49.86,34.575 49.82,34.644 49.781,34.711 C49.7612344,34.7696753 49.73578,34.8262779 49.705,34.88 C48.3819741,37.2542852 46.8753856,39.5215236 45.199,41.661 L45.133,41.747 C45.0562849,41.870121 44.9671525,41.9850549 44.867,42.09 C44.208,42.941 43.496,43.79 42.694,44.674 C42.5009603,44.8856455 42.226425,45.0043438 41.94,45 Z" id="Shape" fill="#000000"/><path d="M23,53 L22,53 C21.4477153,53 21,52.5522847 21,52 C21,51.4477153 21.4477153,51 22,51 L23,51 C23.5522847,51 24,51.4477153 24,52 C24,52.5522847 23.5522847,53 23,53 Z" id="Shape" fill="#000000"/><path d="M32,53 L27,53 C26.4477153,53 26,52.5522847 26,52 C26,51.4477153 26.4477153,51 27,51 L32,51 C32.5522847,51 33,51.4477153 33,52 C33,52.5522847 32.5522847,53 32,53 Z" id="Shape" fill="#000000"/></g></g></svg>
